<?xml version="1.0" encoding="UTF-8"?> <svg xmlns="http://www.w3.org/2000/svg" width="42" height="42" viewBox="0 0 42 42" fill="none"> <g opacity="0.7"> <path d="M21 42C9.40656 42 0 32.5635 0 21C0 9.43652 9.40656 0 21 0C32.5934 0 42 9.40656 42 21C42 32.5934 32.5635 42 21 42ZM21 1.79743C10.4251 1.79743 1.79743 10.4251 1.79743 21C1.79743 31.5749 10.4251 40.2026 21 40.2026C31.5749 40.2026 40.2026 31.5749 40.2026 21C40.2026 10.4251 31.5749 1.79743 21 1.79743Z" fill="white"></path> <path d="M22.7974 22.5877C26.8716 22.5877 30.1669 19.2625 30.1669 15.2183V14.6191C30.1669 10.6048 26.9015 7.2796 22.8873 7.24964L17.6148 7.18973C17.3752 7.18973 17.1355 7.2796 16.9857 7.45934C16.806 7.63909 16.7161 7.84879 16.7161 8.08844V20.8203H13.5706C13.0613 20.8203 12.6719 21.2097 12.6719 21.719C12.6719 22.2282 13.0613 22.6177 13.5706 22.6177H16.6861V24.8645H13.5706C13.0613 24.8645 12.6719 25.2539 12.6719 25.7632C12.6719 26.2725 13.0613 26.6619 13.5706 26.6619H16.6861V32.7432C16.6861 33.2525 17.0756 33.6419 17.5849 33.6419C18.0941 33.6419 18.4836 33.2525 18.4836 32.7432V26.632H28.669C29.1783 26.632 29.5677 26.2425 29.5677 25.7332C29.5677 25.224 29.1783 24.8345 28.669 24.8345H18.4836V22.5877H22.7974ZM18.4836 8.9572L22.8573 9.01712C25.883 9.04707 28.3694 11.5635 28.3694 14.5892V15.1883C28.3694 18.2739 25.853 20.7603 22.7974 20.7603H18.4836V8.9572Z" fill="white"></path> </g> </svg> 