<?xml version="1.0" encoding="UTF-8"?> <!-- Generator: Adobe Illustrator 25.2.0, SVG Export Plug-In . SVG Version: 6.00 Build 0) --> <svg xmlns="http://www.w3.org/2000/svg" xmlns:xlink="http://www.w3.org/1999/xlink" id="Layer_1" x="0px" y="0px" viewBox="0 0 32 32" style="enable-background:new 0 0 32 32;" xml:space="preserve"> <style type="text/css"> .st0{fill:#FFFFFF;} </style> <g id="Layer_1_1_"> </g> <g> <path class="st0" d="M16,2.2c-3.8,0-7.3,1.5-9.8,4c-2.5,2.5-4.1,6-4.1,9.8s1.5,7.3,4.1,9.8c2.5,2.5,6,4,9.8,4c3.8,0,7.3-1.5,9.8-4 s4.1-6,4.1-9.8C29.8,8.4,23.6,2.2,16,2.2z M16,5c3.1,0,5.7,2.5,5.7,5.7c0,3.1-2.5,5.7-5.7,5.7c-3.1,0-5.7-2.5-5.7-5.7 C10.3,7.5,12.9,5,16,5z M21.5,24.2c0.7,0.6,0.7,1.7,0,2.4c-0.6,0.6-1.7,0.6-2.4,0L16,23.4l-3.1,3.1c-0.3,0.3-0.8,0.5-1.2,0.5 c-0.4,0-0.9-0.2-1.2-0.5c-0.6-0.6-0.6-1.7,0-2.4l3.2-3.2c-1.2-0.3-2.3-0.7-3.3-1.4c-0.8-0.5-1-1.5-0.5-2.3c0.5-0.8,1.5-1,2.3-0.5 c2.3,1.5,5.3,1.5,7.6,0c0.8-0.5,1.8-0.3,2.3,0.5c0.5,0.8,0.3,1.8-0.5,2.3c-1,0.6-2.1,1.1-3.3,1.4C18.3,21,21.5,24.2,21.5,24.2z"></path> <path class="st0" d="M16,13c1.3,0,2.4-1.1,2.4-2.3c0-1.3-1.1-2.4-2.4-2.4c-1.3,0-2.4,1.1-2.4,2.4C13.6,12,14.7,13,16,13z"></path> </g> </svg> 