<?xml version="1.0" encoding="UTF-8"?> <svg xmlns="http://www.w3.org/2000/svg" width="40" height="40" viewBox="0 0 40 40" fill="none"> <path d="M27.1943 14.2446L15.9713 24.1727C15.8274 24.3166 15.8274 24.4604 15.8274 24.6043L15.3957 28.4892C15.3957 28.6331 15.2518 28.6331 15.108 28.4892L13.3813 22.7338C13.2375 22.446 13.3813 22.1583 13.6691 22.0144L26.7626 13.813C27.1943 13.6691 27.4821 14.1007 27.1943 14.2446Z" fill="white"></path> <path d="M20 0C14.5324 0 9.4964 2.15827 5.89928 5.75539C2.30216 9.35252 0 14.3885 0 19.8561C0 25.3237 2.15827 30.3597 5.89928 33.9568C9.4964 37.554 14.5324 39.7122 20 39.7122C25.4676 39.7122 30.5036 37.554 34.1007 33.9568C37.6978 30.3597 40 25.3237 40 19.8561C39.8561 8.92086 30.9353 0 20 0ZM31.7986 11.3669L27.7698 30.9353C27.6259 31.7986 26.4748 32.2302 25.7554 31.6547L19.5683 27.0504L16.4029 30.2158C15.8273 30.7914 14.964 30.5036 14.6763 29.7842L12.3741 22.5899L6.33094 20.7194C5.46763 20.4317 5.46763 19.4245 6.33094 19.1367L30.3597 9.78417C31.0791 9.64029 32.0863 10.3597 31.7986 11.3669Z" fill="white"></path> </svg> 