<?xml version="1.0" encoding="UTF-8"?> <svg xmlns="http://www.w3.org/2000/svg" width="40" height="40" viewBox="0 0 40 40" fill="none"> <path d="M20 0C9 0 0 9 0 20C0 31 9 40 20 40C31 40 40 31 40 20C40 9 31 0 20 0ZM32.4286 16.1429C32.8571 15.8571 33.4286 16.2857 33.4286 16.7143V26.8571C33.4286 28 32.5714 28.8571 31.4286 28.8571H8.57143C7.42857 28.8571 6.57143 28 6.57143 26.8571V16.7143C6.57143 16.1429 7.14286 15.8571 7.57143 16.1429L18.1429 22C18.7143 22.2857 19.4286 22.4286 20 22.4286C20.7143 22.4286 21.2857 22.2857 21.8571 22L32.4286 16.1429ZM32.8571 13.4286C29.8571 15.1429 20.8571 20.1429 20.8571 20.1429C20.5714 20.2857 20.2857 20.4286 20 20.4286C19.7143 20.4286 19.4286 20.2857 19.1429 20.1429C19.1429 20.1429 10.1429 15.1429 7.14286 13.4286C6.14286 12.8571 7.42857 11.2857 8.57143 11.2857H20H31.4286C32.5714 11.2857 33.8571 12.8571 32.8571 13.4286Z" fill="white"></path> </svg> 