<?xml version="1.0" encoding="UTF-8"?> <!-- Generator: Adobe Illustrator 25.2.0, SVG Export Plug-In . SVG Version: 6.00 Build 0) --> <svg xmlns="http://www.w3.org/2000/svg" xmlns:xlink="http://www.w3.org/1999/xlink" id="Layer_1" x="0px" y="0px" viewBox="0 0 173.8 30.3" style="enable-background:new 0 0 173.8 30.3;" xml:space="preserve"> <style type="text/css"> .st0{fill:#FFFFFF;} .st1{fill:#EC208B;} </style> <path class="st0" d="M33.3,30.3H26l-4.1-15.9c-0.2-0.6-0.4-1.7-0.8-3.5S20.5,8,20.5,7.3c-0.1,0.8-0.3,1.9-0.6,3.6 c-0.3,1.7-0.6,2.8-0.8,3.5L15,30.2H7.7L0,0h6.3l3.8,16.5c0.7,3,1.2,5.7,1.5,7.9c0.1-0.8,0.3-2,0.6-3.6c0.3-1.7,0.6-2.9,0.8-3.8 l4.4-16.9h6L27.8,17c0.2,0.8,0.4,1.9,0.7,3.5c0.3,1.6,0.5,2.9,0.7,4c0.1-1.1,0.3-2.4,0.6-4c0.3-1.6,0.6-2.9,0.8-3.9l4.1-16.5H41 L33.3,30.3z"></path> <path class="st0" d="M44.8,0.1h9.4c4.3,0,7.4,0.6,9.3,1.8c1.9,1.2,2.9,3.2,2.9,5.8c0,1.8-0.4,3.3-1.3,4.4c-0.8,1.1-2,1.8-3.4,2.1 v0.2c1.9,0.4,3.3,1.2,4.1,2.4c0.9,1.2,1.3,2.7,1.3,4.7c0,2.7-1,4.9-3,6.4c-2,1.6-4.7,2.3-8.1,2.3H44.8V0.1z M51.2,12h3.7 c1.7,0,3-0.3,3.8-0.8s1.2-1.4,1.2-2.7c0-1.1-0.4-2-1.3-2.5c-0.8-0.5-2.2-0.8-4-0.8h-3.4C51.2,5.2,51.2,12,51.2,12z M51.2,17.1v7.8 h4.2c1.8,0,3.1-0.3,3.9-1s1.3-1.7,1.3-3.1c0-2.5-1.8-3.8-5.3-3.8L51.2,17.1L51.2,17.1z"></path> <polygon class="st1" points="97.9,30.3 91.5,30.3 91.5,17.2 79.5,17.2 79.5,30.3 73.2,30.3 73.2,0.1 79.5,0.1 79.5,11.9 91.5,11.9 91.5,0.1 97.9,0.1 "></polygon> <polygon class="st1" points="122.8,30.3 105.5,30.3 105.5,0.1 122.8,0.1 122.8,5.3 111.9,5.3 111.9,11.9 122.1,11.9 122.1,17.2 111.9,17.2 111.9,25 122.8,25 "></polygon> <polygon class="st1" points="129.1,30.3 129.1,0.1 135.5,0.1 135.5,25 147.8,25 147.8,30.3 "></polygon> <path class="st1" d="M159.4,14.3h2.1c2,0,3.4-0.4,4.4-1.2c1-0.8,1.5-1.9,1.5-3.4s-0.4-2.6-1.2-3.3c-0.8-0.7-2.1-1.1-3.9-1.1h-2.9 L159.4,14.3L159.4,14.3z M173.8,9.5c0,3.3-1,5.7-3,7.5c-2,1.7-4.9,2.6-8.7,2.6h-2.7v10.7H153V0.1h9.6c3.7,0,6.4,0.8,8.3,2.4 C172.9,4,173.8,6.4,173.8,9.5L173.8,9.5z"></path> </svg> 