<?xml version="1.0" encoding="UTF-8"?> <svg xmlns="http://www.w3.org/2000/svg" width="3169" height="37" viewBox="0 0 3169 37" fill="none"> <path fill-rule="evenodd" clip-rule="evenodd" d="M702.864 8.97363H706.003V16.8458V24.7179H702.864V8.97363ZM706.003 16.8458L712.954 8.97363H716.99L710.039 16.8458L716.99 24.7179H712.954L706.003 16.8458ZM790.532 24.7179H779.994V8.97363H790.532V11.5813H783.342V15.4439H789.411V18.2477H783.342V22.1104H790.532V24.7179ZM812.437 21.7416C813.135 22.1869 813.955 22.4227 814.793 22.4193C815.914 22.4168 816.987 21.9863 817.777 21.2226C818.568 20.4589 819.011 19.4244 819.009 18.3468C819.009 17.5407 818.759 16.7528 818.293 16.083C817.828 15.4131 817.165 14.8913 816.39 14.5838C815.616 14.2762 814.764 14.1967 813.942 14.3553C813.121 14.5139 812.367 14.9035 811.776 15.4747C811.184 16.0459 810.783 16.7731 810.622 17.5641C810.461 18.355 810.547 19.1743 810.87 19.9179C811.193 20.6616 811.738 21.2963 812.437 21.7416ZM810.875 13.3388C812.033 12.1204 813.649 11.346 815.492 11.346C819.184 11.346 822.146 14.4811 822.146 18.3556C822.146 22.23 819 24.9336 815.308 24.9336C813.465 24.9336 811.869 24.4487 810.711 23.1005V29.8942H807.572V11.5617H810.875V13.3388ZM827.078 13.5028C827.51 12.8501 828.809 11.346 831.114 11.346C832.909 11.4539 833.581 11.9931 833.581 11.9931L831.9 14.1499C831.9 14.1499 831.114 14.0421 830.666 14.0421C828.603 14.0421 827.386 15.508 827.078 16.5223V24.7179H823.94V11.5617H827.078V13.5028ZM846.137 20.6201C845.529 22.8876 843.226 24.9336 839.827 24.9336C835.429 24.9336 832.684 22.369 832.684 18.2758C832.684 14.2504 835.495 11.346 839.675 11.346C843.265 11.346 846.361 13.4267 846.361 18.004L846.315 18.9806H836.152C836.181 21.2141 837.604 22.6238 839.827 22.6238C839.827 22.6238 842.086 22.6583 842.998 20.6201H846.137ZM839.694 14.0585C837.643 14.0585 836.266 15.4596 836.161 17.1242H843.019C843 15.3493 841.671 14.0585 839.694 14.0585ZM851.298 21.4638C851.138 21.2274 851 21.0166 850.958 20.6201H847.706C847.724 21.3885 847.89 21.844 848.195 22.4134V22.4151L848.196 22.4168C848.519 22.9694 848.949 23.4385 849.487 23.8235L849.488 23.8247L849.49 23.8258C850.044 24.1936 850.687 24.4684 851.416 24.6511V24.6512C852.164 24.8346 852.901 24.9336 853.76 24.9336C854.463 24.9336 855.253 24.8509 855.982 24.7013C856.71 24.5519 857.368 24.3109 857.957 23.9776C858.567 23.6426 859.06 23.2064 859.437 22.6694C859.817 22.127 860.039 21.3905 860.039 20.6201C860.039 19.9798 859.87 19.517 859.599 19.0771C859.346 18.6386 859.003 18.2753 858.569 17.9883C858.156 17.7034 857.682 17.478 857.148 17.3114C856.62 17.1468 856.082 17.0069 855.536 16.8917L855.535 16.8915C854.975 16.7769 854.433 16.6705 853.907 16.5723C853.387 16.4751 852.92 16.3619 852.506 16.2332C852.115 16.0898 851.796 15.9163 851.547 15.7143C851.327 15.524 851.217 15.2756 851.217 14.9591C851.217 14.703 851.296 14.5114 851.446 14.3717L851.448 14.3699L851.45 14.368C851.612 14.201 851.807 14.0799 852.033 14.004L852.036 14.0034L852.038 14.0026C852.291 13.9079 852.552 13.8448 852.823 13.8132C853.118 13.7808 853.366 13.7649 853.57 13.7649C854.221 13.7649 854.79 13.8769 855.278 14.0977L855.281 14.0983C855.747 14.3019 856.078 14.8294 856.226 15.4439H859.454C859.361 14.7422 859.088 13.9329 858.805 13.5028C858.464 12.9836 858.106 12.565 857.567 12.2459C857.048 11.928 856.458 11.7028 855.8 11.5696C855.161 11.4204 854.488 11.346 853.78 11.346C853.161 11.346 852.506 11.404 851.818 11.5195H851.817C851.142 11.6359 850.517 11.844 849.947 12.1443C849.39 12.4298 848.923 12.8163 848.545 13.3028V13.3035C848.179 13.7829 848 14.3778 848 15.0817C848 15.7317 848.124 16.289 848.379 16.7492L848.38 16.7505C848.632 17.1889 848.967 17.5526 849.384 17.8402L849.385 17.8413C849.814 18.1254 850.287 18.3507 850.804 18.5173L850.805 18.5176C851.334 18.6823 851.88 18.8223 852.444 18.9375C852.986 19.0521 853.521 19.1585 854.046 19.2568C854.566 19.354 855.023 19.475 855.418 19.6195L855.42 19.6204L855.424 19.6214C855.831 19.7485 856.157 19.9215 856.406 20.1379C856.644 20.3465 856.773 20.614 856.789 20.9484C856.805 21.2868 856.715 21.5531 856.528 21.7578L856.527 21.7582C856.349 21.9556 856.111 22.1096 855.811 22.2186C855.506 22.3295 855.174 22.4093 854.815 22.4574C854.469 22.4897 854.16 22.5057 853.885 22.5057C853.098 22.5057 852.512 22.3547 851.954 22.0388C851.676 21.8815 851.457 21.7001 851.298 21.4638ZM864.975 21.4638C864.815 21.2274 864.677 21.0166 864.634 20.6201H861.384C861.401 21.3885 861.568 21.844 861.872 22.4134L861.873 22.4151L861.874 22.4168C862.196 22.9694 862.626 23.4385 863.163 23.8235L863.166 23.8247L863.167 23.8258C863.721 24.1936 864.364 24.4684 865.092 24.6511L865.093 24.6512C865.842 24.8346 866.577 24.9336 867.437 24.9336C868.14 24.9336 868.929 24.8509 869.659 24.7013C870.388 24.5519 871.046 24.3109 871.634 23.9776C872.243 23.6426 872.738 23.2064 873.114 22.6694C873.495 22.127 873.715 21.3905 873.715 20.6201C873.715 19.9798 873.547 19.517 873.276 19.0771C873.023 18.6386 872.68 18.2753 872.246 17.9883C871.834 17.7034 871.36 17.478 870.825 17.3114C870.296 17.1468 869.76 17.0069 869.214 16.8917L869.213 16.8915C868.652 16.7769 868.11 16.6705 867.584 16.5723C867.064 16.4751 866.598 16.3619 866.184 16.2332C865.793 16.0898 865.474 15.9163 865.223 15.7143C865.005 15.524 864.893 15.2756 864.893 14.9591C864.893 14.703 864.973 14.5114 865.123 14.3717L865.124 14.3699L865.127 14.368C865.289 14.201 865.483 14.0799 865.711 14.004L865.712 14.0034L865.714 14.0026C865.968 13.9079 866.229 13.8448 866.5 13.8132C866.794 13.7808 867.043 13.7649 867.247 13.7649C867.898 13.7649 868.466 13.8769 868.956 14.0977L868.957 14.0983C869.424 14.3019 869.755 14.8294 869.904 15.4439H873.131C873.038 14.7422 872.764 13.9329 872.482 13.5028C872.141 12.9836 871.783 12.565 871.244 12.2459C870.725 11.928 870.135 11.7028 869.476 11.5696C868.838 11.4204 868.164 11.346 867.457 11.346C866.837 11.346 866.183 11.404 865.495 11.5195C864.818 11.6359 864.195 11.844 863.623 12.1443C863.067 12.4298 862.599 12.8163 862.222 13.3028V13.3035C861.856 13.7829 861.676 14.3778 861.676 15.0817C861.676 15.7317 861.801 16.289 862.057 16.7492V16.7505C862.309 17.1889 862.644 17.5526 863.06 17.8402L863.062 17.8413C863.491 18.1254 863.964 18.3507 864.481 18.5173L864.482 18.5176C865.011 18.6823 865.558 18.8223 866.121 18.9375C866.663 19.0521 867.197 19.1585 867.724 19.2568C868.243 19.354 868.701 19.475 869.095 19.6195L869.098 19.6204L869.1 19.6214C869.509 19.7485 869.834 19.9215 870.082 20.1379C870.322 20.3465 870.45 20.614 870.466 20.9484C870.483 21.2868 870.393 21.5531 870.205 21.7578V21.7582C870.025 21.9556 869.789 22.1096 869.489 22.2186C869.183 22.3295 868.852 22.4093 868.493 22.4574C868.147 22.4897 867.837 22.5057 867.562 22.5057C866.775 22.5057 866.188 22.3547 865.631 22.0388C865.353 21.8815 865.135 21.7001 864.975 21.4638ZM806.227 11.5617H802.639L799.052 15.9472L795.464 11.5617H791.877L797.258 18.1399L791.877 24.7179H795.464L799.052 20.3326L802.639 24.7179H806.227L800.846 18.1399L806.227 11.5617ZM772.146 11.346C769.841 11.346 768.542 12.8501 768.11 13.5028V11.5617H764.971V24.7179H768.11V16.5223C768.417 15.508 769.635 14.0421 771.698 14.0421C773.637 14.0421 773.94 16.5223 773.94 16.5223V22.5612L773.94 22.5919C773.929 23.7581 774.905 24.7108 776.118 24.7171L776.155 24.7178L776.182 24.7179H778.2L778.2 22.1298H777.976C777.357 22.1298 777.079 21.6471 777.079 21.0515V16.9894V16.1457C776.999 14.815 776.718 12.37 774.164 11.5912C773.653 11.4353 772.835 11.346 772.146 11.346ZM752.173 21.4142C752.855 21.8453 753.657 22.0737 754.476 22.0702C755.571 22.0676 756.62 21.6507 757.393 20.911C758.165 20.1714 758.598 19.1696 758.595 18.1261C758.595 17.3454 758.352 16.5823 757.896 15.9336C757.441 15.2847 756.794 14.7795 756.036 14.4816C755.279 14.1838 754.446 14.1068 753.643 14.2605C752.84 14.4141 752.103 14.7915 751.525 15.3448C750.947 15.8981 750.555 16.6024 750.397 17.3685C750.24 18.1345 750.324 18.928 750.641 19.6483C750.957 20.3684 751.49 20.9831 752.173 21.4142ZM761.608 11.5617V21.0159C761.608 22.4926 763.178 22.1298 763.178 22.1298V24.7179H760.957C759.688 24.7179 758.943 23.9045 758.692 22.8756C758.102 23.5282 757.37 24.0503 756.547 24.4057C755.724 24.761 754.829 24.9412 753.925 24.9334C750.243 24.9334 747.259 21.8924 747.259 18.1401C747.259 14.3878 750.243 11.346 753.925 11.346C755.654 11.346 757.109 12.1415 758.245 13.2871V11.5617H761.608ZM745.913 14.1499V11.5617H734.254V14.1499H741.877L734.254 22.1298V24.718H745.913V22.1298H738.29L745.913 14.1499ZM721.455 21.4142C722.138 21.8453 722.94 22.0737 723.759 22.0702C724.854 22.0676 725.903 21.6507 726.675 20.911C727.448 20.1714 727.88 19.1696 727.878 18.1261C727.878 17.3454 727.635 16.5823 727.179 15.9336C726.724 15.2847 726.076 14.7795 725.319 14.4816C724.562 14.1838 723.729 14.1068 722.926 14.2605C722.123 14.4141 721.386 14.7915 720.808 15.3448C720.23 15.8981 719.838 16.6024 719.68 17.3685C719.523 18.1345 719.607 18.928 719.923 19.6483C720.239 20.3684 720.772 20.9831 721.455 21.4142ZM730.891 11.5617V21.0159C730.891 22.4926 732.46 22.1298 732.46 22.1298V24.7179H730.239C728.97 24.7179 728.225 23.9045 727.975 22.8756C727.385 23.5282 726.653 24.0503 725.83 24.4057C725.006 24.761 724.112 24.9412 723.208 24.9334C719.526 24.9334 716.541 21.8924 716.541 18.1401C716.541 14.3878 719.526 11.346 723.208 11.346C724.937 11.346 726.391 12.1415 727.528 13.2871V11.5617H730.891Z" fill="white"></path> <path fill-rule="evenodd" clip-rule="evenodd" d="M2330.09 8.97363H2333.22V16.8458V24.7179H2330.09V8.97363ZM2333.22 16.8458L2340.17 8.97363H2344.21L2337.26 16.8458L2344.21 24.7179H2340.17L2333.22 16.8458ZM2417.75 24.7179H2407.21V8.97363H2417.75V11.5813H2410.56V15.4439H2416.63V18.2477H2410.56V22.1104H2417.75V24.7179ZM2439.66 21.7416C2440.36 22.1869 2441.18 22.4227 2442.01 22.4193C2443.14 22.4168 2444.21 21.9863 2445 21.2226C2445.79 20.4589 2446.23 19.4244 2446.23 18.3468C2446.23 17.5407 2445.98 16.7528 2445.51 16.083C2445.05 15.4131 2444.39 14.8913 2443.61 14.5838C2442.84 14.2762 2441.99 14.1967 2441.16 14.3553C2440.34 14.5139 2439.59 14.9035 2439 15.4747C2438.4 16.0459 2438 16.7731 2437.84 17.5641C2437.68 18.355 2437.77 19.1743 2438.09 19.9179C2438.41 20.6616 2438.96 21.2963 2439.66 21.7416ZM2438.1 13.3388C2439.25 12.1204 2440.87 11.346 2442.71 11.346C2446.4 11.346 2449.37 14.4811 2449.37 18.3556C2449.37 22.23 2446.22 24.9336 2442.53 24.9336C2440.69 24.9336 2439.09 24.4487 2437.93 23.1005V29.8942H2434.79V11.5617H2438.1V13.3388ZM2454.3 13.5028C2454.73 12.8501 2456.03 11.346 2458.34 11.346C2460.13 11.4539 2460.8 11.9931 2460.8 11.9931L2459.12 14.1499C2459.12 14.1499 2458.34 14.0421 2457.89 14.0421C2455.82 14.0421 2454.61 15.508 2454.3 16.5223V24.7179H2451.16V11.5617H2454.3V13.5028ZM2473.36 20.6201C2472.75 22.8876 2470.45 24.9336 2467.05 24.9336C2462.65 24.9336 2459.91 22.369 2459.91 18.2758C2459.91 14.2504 2462.72 11.346 2466.9 11.346C2470.49 11.346 2473.58 13.4267 2473.58 18.004L2473.54 18.9806H2463.37C2463.4 21.2141 2464.83 22.6238 2467.05 22.6238C2467.05 22.6238 2469.31 22.6583 2470.22 20.6201H2473.36ZM2466.92 14.0585C2464.86 14.0585 2463.49 15.4596 2463.38 17.1242H2470.24C2470.22 15.3493 2468.89 14.0585 2466.92 14.0585ZM2478.52 21.4638C2478.36 21.2274 2478.22 21.0166 2478.18 20.6201H2474.93C2474.95 21.3885 2475.11 21.844 2475.42 22.4134V22.4151L2475.42 22.4168C2475.74 22.9694 2476.17 23.4385 2476.71 23.8235L2476.71 23.8247L2476.71 23.8258C2477.27 24.1936 2477.91 24.4684 2478.64 24.6511V24.6512C2479.39 24.8346 2480.12 24.9336 2480.98 24.9336C2481.68 24.9336 2482.47 24.8509 2483.2 24.7013C2483.93 24.5519 2484.59 24.3109 2485.18 23.9776C2485.79 23.6426 2486.28 23.2064 2486.66 22.6694C2487.04 22.127 2487.26 21.3905 2487.26 20.6201C2487.26 19.9798 2487.09 19.517 2486.82 19.0771C2486.57 18.6386 2486.22 18.2753 2485.79 17.9883C2485.38 17.7034 2484.9 17.478 2484.37 17.3114C2483.84 17.1468 2483.3 17.0069 2482.76 16.8917L2482.76 16.8915C2482.2 16.7769 2481.65 16.6705 2481.13 16.5723C2480.61 16.4751 2480.14 16.3619 2479.73 16.2332C2479.34 16.0898 2479.02 15.9163 2478.77 15.7143C2478.55 15.524 2478.44 15.2756 2478.44 14.9591C2478.44 14.703 2478.52 14.5114 2478.67 14.3717L2478.67 14.3699L2478.67 14.368C2478.83 14.201 2479.03 14.0799 2479.25 14.004L2479.26 14.0034L2479.26 14.0026C2479.51 13.9079 2479.77 13.8448 2480.04 13.8132C2480.34 13.7808 2480.59 13.7649 2480.79 13.7649C2481.44 13.7649 2482.01 13.8769 2482.5 14.0977L2482.5 14.0983C2482.97 14.3019 2483.3 14.8294 2483.45 15.4439H2486.68C2486.58 14.7422 2486.31 13.9329 2486.03 13.5028C2485.69 12.9836 2485.33 12.565 2484.79 12.2459C2484.27 11.928 2483.68 11.7028 2483.02 11.5696C2482.38 11.4204 2481.71 11.346 2481 11.346C2480.38 11.346 2479.73 11.404 2479.04 11.5195H2479.04C2478.36 11.6359 2477.74 11.844 2477.17 12.1443C2476.61 12.4298 2476.14 12.8163 2475.77 13.3028V13.3035C2475.4 13.7829 2475.22 14.3778 2475.22 15.0817C2475.22 15.7317 2475.35 16.289 2475.6 16.7492L2475.6 16.7505C2475.85 17.1889 2476.19 17.5526 2476.6 17.8402L2476.61 17.8413C2477.04 18.1254 2477.51 18.3507 2478.03 18.5173L2478.03 18.5176C2478.56 18.6823 2479.1 18.8223 2479.67 18.9375C2480.21 19.0521 2480.74 19.1585 2481.27 19.2568C2481.79 19.354 2482.24 19.475 2482.64 19.6195L2482.64 19.6204L2482.64 19.6214C2483.05 19.7485 2483.38 19.9215 2483.63 20.1379C2483.87 20.3465 2483.99 20.614 2484.01 20.9484C2484.03 21.2868 2483.94 21.5531 2483.75 21.7578L2483.75 21.7582C2483.57 21.9556 2483.33 22.1096 2483.03 22.2186C2482.73 22.3295 2482.4 22.4093 2482.04 22.4574C2481.69 22.4897 2481.38 22.5057 2481.11 22.5057C2480.32 22.5057 2479.73 22.3547 2479.18 22.0388C2478.9 21.8815 2478.68 21.7001 2478.52 21.4638ZM2492.2 21.4638C2492.04 21.2274 2491.9 21.0166 2491.86 20.6201H2488.61C2488.62 21.3885 2488.79 21.844 2489.09 22.4134L2489.09 22.4151L2489.1 22.4168C2489.42 22.9694 2489.85 23.4385 2490.38 23.8235L2490.39 23.8247L2490.39 23.8258C2490.94 24.1936 2491.58 24.4684 2492.31 24.6511L2492.31 24.6512C2493.06 24.8346 2493.8 24.9336 2494.66 24.9336C2495.36 24.9336 2496.15 24.8509 2496.88 24.7013C2497.61 24.5519 2498.27 24.3109 2498.86 23.9776C2499.46 23.6426 2499.96 23.2064 2500.33 22.6694C2500.72 22.127 2500.94 21.3905 2500.94 20.6201C2500.94 19.9798 2500.77 19.517 2500.5 19.0771C2500.24 18.6386 2499.9 18.2753 2499.47 17.9883C2499.06 17.7034 2498.58 17.478 2498.05 17.3114C2497.52 17.1468 2496.98 17.0069 2496.44 16.8917L2496.43 16.8915C2495.87 16.7769 2495.33 16.6705 2494.81 16.5723C2494.29 16.4751 2493.82 16.3619 2493.41 16.2332C2493.01 16.0898 2492.69 15.9163 2492.44 15.7143C2492.23 15.524 2492.11 15.2756 2492.11 14.9591C2492.11 14.703 2492.19 14.5114 2492.34 14.3717L2492.35 14.3699L2492.35 14.368C2492.51 14.201 2492.7 14.0799 2492.93 14.004L2492.93 14.0034L2492.94 14.0026C2493.19 13.9079 2493.45 13.8448 2493.72 13.8132C2494.02 13.7808 2494.26 13.7649 2494.47 13.7649C2495.12 13.7649 2495.69 13.8769 2496.18 14.0977L2496.18 14.0983C2496.64 14.3019 2496.98 14.8294 2497.13 15.4439H2500.35C2500.26 14.7422 2499.99 13.9329 2499.7 13.5028C2499.36 12.9836 2499 12.565 2498.47 12.2459C2497.95 11.928 2497.36 11.7028 2496.7 11.5696C2496.06 11.4204 2495.39 11.346 2494.68 11.346C2494.06 11.346 2493.4 11.404 2492.72 11.5195C2492.04 11.6359 2491.42 11.844 2490.84 12.1443C2490.29 12.4298 2489.82 12.8163 2489.44 13.3028V13.3035C2489.08 13.7829 2488.9 14.3778 2488.9 15.0817C2488.9 15.7317 2489.02 16.289 2489.28 16.7492V16.7505C2489.53 17.1889 2489.87 17.5526 2490.28 17.8402L2490.28 17.8413C2490.71 18.1254 2491.19 18.3507 2491.7 18.5173L2491.7 18.5176C2492.23 18.6823 2492.78 18.8223 2493.34 18.9375C2493.88 19.0521 2494.42 19.1585 2494.94 19.2568C2495.46 19.354 2495.92 19.475 2496.32 19.6195L2496.32 19.6204L2496.32 19.6214C2496.73 19.7485 2497.06 19.9215 2497.3 20.1379C2497.54 20.3465 2497.67 20.614 2497.69 20.9484C2497.7 21.2868 2497.61 21.5531 2497.43 21.7578V21.7582C2497.25 21.9556 2497.01 22.1096 2496.71 22.2186C2496.4 22.3295 2496.07 22.4093 2495.71 22.4574C2495.37 22.4897 2495.06 22.5057 2494.78 22.5057C2494 22.5057 2493.41 22.3547 2492.85 22.0388C2492.57 21.8815 2492.36 21.7001 2492.2 21.4638ZM2433.45 11.5617H2429.86L2426.27 15.9472L2422.69 11.5617H2419.1L2424.48 18.1399L2419.1 24.7179H2422.69L2426.27 20.3326L2429.86 24.7179H2433.45L2428.07 18.1399L2433.45 11.5617ZM2399.37 11.346C2397.06 11.346 2395.76 12.8501 2395.33 13.5028V11.5617H2392.19V24.7179H2395.33V16.5223C2395.64 15.508 2396.86 14.0421 2398.92 14.0421C2400.86 14.0421 2401.16 16.5223 2401.16 16.5223V22.5612L2401.16 22.5919C2401.15 23.7581 2402.13 24.7108 2403.34 24.7171L2403.38 24.7178L2403.4 24.7179H2405.42L2405.42 22.1298H2405.2C2404.58 22.1298 2404.3 21.6471 2404.3 21.0515V16.9894V16.1457C2404.22 14.815 2403.94 12.37 2401.39 11.5912C2400.87 11.4353 2400.06 11.346 2399.37 11.346ZM2379.39 21.4142C2380.08 21.8453 2380.88 22.0737 2381.7 22.0702C2382.79 22.0676 2383.84 21.6507 2384.61 20.911C2385.39 20.1714 2385.82 19.1696 2385.82 18.1261C2385.82 17.3454 2385.57 16.5823 2385.12 15.9336C2384.66 15.2847 2384.01 14.7795 2383.26 14.4816C2382.5 14.1838 2381.67 14.1068 2380.86 14.2605C2380.06 14.4141 2379.32 14.7915 2378.75 15.3448C2378.17 15.8981 2377.78 16.6024 2377.62 17.3685C2377.46 18.1345 2377.55 18.928 2377.86 19.6483C2378.18 20.3684 2378.71 20.9831 2379.39 21.4142ZM2388.83 11.5617V21.0159C2388.83 22.4926 2390.4 22.1298 2390.4 22.1298V24.7179H2388.18C2386.91 24.7179 2386.16 23.9045 2385.91 22.8756C2385.32 23.5282 2384.59 24.0503 2383.77 24.4057C2382.94 24.761 2382.05 24.9412 2381.15 24.9334C2377.46 24.9334 2374.48 21.8924 2374.48 18.1401C2374.48 14.3878 2377.46 11.346 2381.15 11.346C2382.88 11.346 2384.33 12.1415 2385.47 13.2871V11.5617H2388.83ZM2373.13 14.1499V11.5617H2361.48V14.1499H2369.1L2361.48 22.1298V24.718H2373.13V22.1298H2365.51L2373.13 14.1499ZM2348.68 21.4142C2349.36 21.8453 2350.16 22.0737 2350.98 22.0702C2352.08 22.0676 2353.12 21.6507 2353.9 20.911C2354.67 20.1714 2355.1 19.1696 2355.1 18.1261C2355.1 17.3454 2354.86 16.5823 2354.4 15.9336C2353.94 15.2847 2353.3 14.7795 2352.54 14.4816C2351.78 14.1838 2350.95 14.1068 2350.15 14.2605C2349.34 14.4141 2348.61 14.7915 2348.03 15.3448C2347.45 15.8981 2347.06 16.6024 2346.9 17.3685C2346.74 18.1345 2346.83 18.928 2347.14 19.6483C2347.46 20.3684 2347.99 20.9831 2348.68 21.4142ZM2358.11 11.5617V21.0159C2358.11 22.4926 2359.68 22.1298 2359.68 22.1298V24.7179H2357.46C2356.19 24.7179 2355.45 23.9045 2355.2 22.8756C2354.61 23.5282 2353.87 24.0503 2353.05 24.4057C2352.23 24.761 2351.33 24.9412 2350.43 24.9334C2346.75 24.9334 2343.76 21.8924 2343.76 18.1401C2343.76 14.3878 2346.75 11.346 2350.43 11.346C2352.16 11.346 2353.61 12.1415 2354.75 13.2871V11.5617H2358.11Z" fill="white"></path> <path d="M1228.87 27.9658V5.01953H1242.43V7.91801H1231.68V14.9629H1241.31V17.8614H1231.68V25.1076H1243.2V28.0061H1228.87V27.9658Z" fill="white"></path> <path d="M1257.49 27.9659L1252.82 21.8468L1248.15 27.9659H1244.85L1251.21 19.7937L1244.53 11.3398H1248.19L1252.82 17.6601L1257.45 11.3398H1261.11L1254.75 19.7535L1260.79 27.9256H1257.49V27.9659Z" fill="white"></path> <path d="M1265.34 25.4702V36.7823H1262.48V19.8342C1262.48 15.5268 1265.78 10.9375 1270.93 10.9375C1276.13 10.9375 1280.07 14.2385 1280.07 19.6329C1280.07 24.9468 1276.13 28.5297 1271.58 28.5297C1269.32 28.5699 1266.38 27.6038 1265.34 25.4702ZM1277.05 19.6329C1277.05 15.9696 1274.68 13.7152 1270.41 13.9165C1268.4 13.997 1265.22 15.4865 1265.5 20.8004C1265.58 22.4912 1267.35 25.752 1271.22 25.752C1274.6 25.7922 1277.05 23.8196 1277.05 19.6329Z" fill="white"></path> <path d="M1282.45 27.9659V11.3399H1285.23V13.1111C1286.59 11.5814 1288.69 10.9775 1290.98 10.9775V13.9968C1290.66 13.9565 1287.32 13.554 1285.23 17.9017V27.9659H1282.45Z" fill="white"></path> <path d="M1291.79 19.6329C1291.79 14.8021 1295.21 10.9375 1299.96 10.9375C1305.84 10.9375 1308.05 14.8424 1308.05 19.8342V21.1627H1294.85C1295.05 24.3027 1297.87 25.9532 1300.44 25.8727C1302.37 25.8325 1303.66 25.2286 1305.03 23.8599L1306.84 25.7922C1305.15 27.4427 1302.94 28.5297 1300.24 28.5297C1295.33 28.5699 1291.79 24.8663 1291.79 19.6329ZM1299.76 13.7555C1297.06 13.7555 1295.01 16.0904 1294.89 18.5863H1305.11C1305.03 16.1306 1303.3 13.7555 1299.76 13.7555Z" fill="white"></path> <path d="M1309.46 25.6318L1311.51 23.8203C1311.47 23.8605 1312.56 24.9072 1312.68 25.028C1313.16 25.4305 1313.69 25.7123 1314.25 25.8331C1316.06 26.3162 1319.28 26.1552 1319.48 23.7398C1319.6 22.371 1318.56 21.6061 1317.39 21.1633C1315.86 20.5997 1314.21 20.3984 1312.72 19.7141C1311.03 18.9492 1309.94 17.6207 1309.94 15.7287C1309.94 10.7368 1317.03 9.89145 1320.29 12.2263C1320.45 12.3471 1322.02 13.7561 1321.98 13.8366L1319.89 15.4469C1318.88 14.2392 1317.87 13.5951 1315.7 13.5951C1314.61 13.5951 1313.12 14.0379 1312.8 15.2456C1312.36 16.8961 1314.25 17.5 1315.46 17.822C1317.11 18.2648 1318.88 18.4661 1320.33 19.392C1322.3 20.64 1322.78 23.2969 1322.02 25.35C1321.17 27.6044 1318.76 28.49 1316.54 28.5706C1313.93 28.6913 1311.67 27.8459 1309.82 26.0344C1309.78 25.9941 1309.46 25.6318 1309.46 25.6318Z" fill="white"></path> <path d="M1323.91 25.6318L1325.96 23.8203C1325.92 23.8605 1327.01 24.9072 1327.13 25.028C1327.62 25.4305 1328.14 25.7123 1328.7 25.8331C1330.51 26.3162 1333.73 26.1552 1333.94 23.7398C1334.06 22.371 1333.01 21.6061 1331.84 21.1633C1330.31 20.5997 1328.66 20.3984 1327.17 19.7141C1325.48 18.9492 1324.39 17.6207 1324.39 15.7287C1324.39 10.7368 1331.48 9.89145 1334.74 12.2263C1334.9 12.3471 1336.47 13.7561 1336.43 13.8366L1334.34 15.4469C1333.33 14.2392 1332.33 13.5951 1330.15 13.5951C1329.06 13.5951 1327.58 14.0379 1327.25 15.2456C1326.81 16.8961 1328.7 17.5 1329.91 17.822C1331.56 18.2648 1333.33 18.4661 1334.78 19.392C1336.75 20.64 1337.24 23.2969 1336.47 25.35C1335.63 27.6044 1333.21 28.49 1331 28.5706C1328.38 28.6913 1326.13 27.8459 1324.27 26.0344C1324.27 25.9941 1323.91 25.6318 1323.91 25.6318Z" fill="white"></path> <path d="M1337.32 11.3406V9.56934H1336.67V9.20703H1338.32V9.52909H1337.68V11.3004H1337.32V11.3406Z" fill="white"></path> <path d="M1340.38 11.3401V9.72988L1339.73 11.3401H1339.57L1338.93 9.72988V11.3401H1338.57V9.20654H1339.09L1339.65 10.6558L1340.22 9.20654H1340.74V11.2999H1340.38V11.3401Z" fill="white"></path> <path d="M1209.86 27.9654L1207.85 22.4904H1196.74L1194.73 27.9654H1191.79L1200.69 5.01904H1203.91L1212.8 27.9654H1209.86ZM1202.1 8.27983L1197.95 19.6322H1206.64L1202.1 8.27983Z" fill="white"></path> <path d="M1214.49 27.9654V5.01904H1217.35V27.9654H1214.49Z" fill="white"></path> <path d="M1221.7 27.9659V11.7021H1224.56V27.9659H1221.7Z" fill="white"></path> <path d="M1227.34 6.38798C1227.34 6.34772 1227.34 6.30747 1227.34 6.22695C1227.34 6.14644 1227.34 6.14643 1227.34 6.06592C1225.12 5.98541 1223.35 4.21412 1223.31 2C1223.27 2 1223.19 2 1223.15 2C1223.11 2 1223.03 2 1222.99 2C1222.91 4.21412 1221.14 5.98541 1218.96 6.06592C1218.96 6.10618 1218.96 6.14644 1218.96 6.22695C1218.96 6.30747 1218.96 6.30746 1218.96 6.38798C1221.18 6.46849 1222.95 8.23979 1222.99 10.4539C1223.03 10.4539 1223.11 10.4539 1223.15 10.4539C1223.19 10.4539 1223.27 10.4539 1223.31 10.4539C1223.35 8.28004 1225.12 6.50875 1227.34 6.38798Z" fill="white"></path> <path d="M2856.09 27.9658V5.01953H2869.65V7.91801H2858.9V14.9629H2868.53V17.8614H2858.9V25.1076H2870.42V28.0061H2856.09V27.9658Z" fill="white"></path> <path d="M2884.71 27.9659L2880.04 21.8468L2875.37 27.9659H2872.07L2878.43 19.7937L2871.75 11.3398H2875.41L2880.04 17.6601L2884.67 11.3398H2888.33L2881.97 19.7535L2888.01 27.9256H2884.71V27.9659Z" fill="white"></path> <path d="M2892.56 25.4702V36.7823H2889.7V19.8342C2889.7 15.5268 2893 10.9375 2898.16 10.9375C2903.35 10.9375 2907.29 14.2385 2907.29 19.6329C2907.29 24.9468 2903.35 28.5297 2898.8 28.5297C2896.54 28.5699 2893.61 27.6038 2892.56 25.4702ZM2904.27 19.6329C2904.27 15.9696 2901.9 13.7152 2897.63 13.9165C2895.62 13.997 2892.44 15.4865 2892.72 20.8004C2892.8 22.4912 2894.57 25.752 2898.44 25.752C2901.82 25.7922 2904.27 23.8196 2904.27 19.6329Z" fill="white"></path> <path d="M2909.67 27.9659V11.3399H2912.45V13.1111C2913.82 11.5814 2915.91 10.9775 2918.2 10.9775V13.9968C2917.88 13.9565 2914.54 13.554 2912.45 17.9017V27.9659H2909.67Z" fill="white"></path> <path d="M2919.01 19.6329C2919.01 14.8021 2922.43 10.9375 2927.18 10.9375C2933.06 10.9375 2935.27 14.8424 2935.27 19.8342V21.1627H2922.07C2922.27 24.3027 2925.09 25.9532 2927.66 25.8727C2929.6 25.8325 2930.88 25.2286 2932.25 23.8599L2934.06 25.7922C2932.37 27.4427 2930.16 28.5297 2927.46 28.5297C2922.55 28.5699 2919.01 24.8663 2919.01 19.6329ZM2926.98 13.7555C2924.28 13.7555 2922.23 16.0904 2922.11 18.5863H2932.33C2932.25 16.1306 2930.52 13.7555 2926.98 13.7555Z" fill="white"></path> <path d="M2936.68 25.6318L2938.73 23.8203C2938.69 23.8605 2939.78 24.9072 2939.9 25.028C2940.38 25.4305 2940.91 25.7123 2941.47 25.8331C2943.28 26.3162 2946.5 26.1552 2946.7 23.7398C2946.83 22.371 2945.78 21.6061 2944.61 21.1633C2943.08 20.5997 2941.43 20.3984 2939.94 19.7141C2938.25 18.9492 2937.16 17.6207 2937.16 15.7287C2937.16 10.7368 2944.25 9.89145 2947.51 12.2263C2947.67 12.3471 2949.24 13.7561 2949.2 13.8366L2947.11 15.4469C2946.1 14.2392 2945.09 13.5951 2942.92 13.5951C2941.83 13.5951 2940.34 14.0379 2940.02 15.2456C2939.58 16.8961 2941.47 17.5 2942.68 17.822C2944.33 18.2648 2946.1 18.4661 2947.55 19.392C2949.52 20.64 2950.01 23.2969 2949.24 25.35C2948.4 27.6044 2945.98 28.49 2943.77 28.5706C2941.15 28.6913 2938.9 27.8459 2937.04 26.0344C2937 25.9941 2936.68 25.6318 2936.68 25.6318Z" fill="white"></path> <path d="M2951.13 25.6318L2953.19 23.8203C2953.15 23.8605 2954.23 24.9072 2954.35 25.028C2954.84 25.4305 2955.36 25.7123 2955.92 25.8331C2957.74 26.3162 2960.96 26.1552 2961.16 23.7398C2961.28 22.371 2960.23 21.6061 2959.06 21.1633C2957.53 20.5997 2955.88 20.3984 2954.39 19.7141C2952.7 18.9492 2951.62 17.6207 2951.62 15.7287C2951.62 10.7368 2958.7 9.89145 2961.96 12.2263C2962.12 12.3471 2963.69 13.7561 2963.65 13.8366L2961.56 15.4469C2960.55 14.2392 2959.55 13.5951 2957.37 13.5951C2956.29 13.5951 2954.8 14.0379 2954.47 15.2456C2954.03 16.8961 2955.92 17.5 2957.13 17.822C2958.78 18.2648 2960.55 18.4661 2962 19.392C2963.97 20.64 2964.46 23.2969 2963.69 25.35C2962.85 27.6044 2960.43 28.49 2958.22 28.5706C2955.6 28.6913 2953.35 27.8459 2951.5 26.0344C2951.5 25.9941 2951.13 25.6318 2951.13 25.6318Z" fill="white"></path> <path d="M2964.54 11.3406V9.56934H2963.89V9.20703H2965.54V9.52909H2964.9V11.3004H2964.54V11.3406Z" fill="white"></path> <path d="M2967.6 11.3401V9.72988L2966.95 11.3401H2966.79L2966.15 9.72988V11.3401H2965.79V9.20654H2966.31L2966.87 10.6558L2967.44 9.20654H2967.96V11.2999H2967.6V11.3401Z" fill="white"></path> <path d="M2837.09 27.9654L2835.07 22.4904H2823.96L2821.95 27.9654H2819.01L2827.91 5.01904H2831.13L2840.02 27.9654H2837.09ZM2829.32 8.27983L2825.17 19.6322H2833.87L2829.32 8.27983Z" fill="white"></path> <path d="M2841.72 27.9654V5.01904H2844.57V27.9654H2841.72Z" fill="white"></path> <path d="M2848.92 27.9659V11.7021H2851.78V27.9659H2848.92Z" fill="white"></path> <path d="M2854.56 6.38798C2854.56 6.34772 2854.56 6.30747 2854.56 6.22695C2854.56 6.14644 2854.56 6.14643 2854.56 6.06592C2852.34 5.98541 2850.57 4.21412 2850.53 2C2850.49 2 2850.41 2 2850.37 2C2850.33 2 2850.25 2 2850.21 2C2850.13 4.21412 2848.36 5.98541 2846.18 6.06592C2846.18 6.10618 2846.18 6.14644 2846.18 6.22695C2846.18 6.30747 2846.18 6.30746 2846.18 6.38798C2848.4 6.46849 2850.17 8.23979 2850.21 10.4539C2850.25 10.4539 2850.33 10.4539 2850.37 10.4539C2850.41 10.4539 2850.49 10.4539 2850.53 10.4539C2850.57 8.28004 2852.34 6.50875 2854.56 6.38798Z" fill="white"></path> <path d="M1478.66 27.8072H1482.78V19.2974C1482.78 14.7944 1479.92 12.4094 1476.46 12.4094C1474.17 12.4094 1472.46 13.4016 1471.22 14.7754H1470.66C1469.73 13.5542 1468.11 12.4094 1465.68 12.4094C1463.49 12.4094 1461.75 13.3825 1460.84 14.4892H1460.28V12.8292H1456.45V27.7881H1460.53V19.9652C1460.53 17.294 1461.31 16.3781 1464.06 16.3781C1466.81 16.3781 1467.55 17.294 1467.55 19.9652V27.7881H1471.67V19.9652C1471.67 17.294 1472.44 16.3781 1475.16 16.3781C1477.91 16.3781 1478.66 17.294 1478.66 19.9652V27.8072ZM1440.06 25.6702C1439.33 25.136 1438.99 24.3537 1438.99 23.1516C1438.99 21.6443 1439.45 19.8126 1440.21 19.0112C1440.74 18.4769 1441.51 18.2289 1442.54 18.2289C1444.01 18.2289 1445.82 18.6105 1446.56 19.3928C1447.08 19.908 1447.31 20.6139 1447.31 21.6061C1447.31 23.0371 1446.91 25.0406 1446.01 25.8801C1445.49 26.338 1444.83 26.5479 1443.85 26.5479C1442.54 26.5288 1440.88 26.2236 1440.06 25.6702ZM1446.53 28.8185L1446.35 30.1923L1450.19 30.6693L1452 15.8439L1448.17 15.3669L1447.99 16.7979H1447.54C1446.96 15.7866 1445.44 14.4128 1442.54 14.4128C1438.51 14.4128 1435.54 17.3894 1435 21.4535C1434.94 21.8542 1434.92 22.2549 1434.92 22.6555C1434.92 26.5479 1437.56 29.7343 1441.68 30.1923C1441.91 30.2114 1442.14 30.2304 1442.37 30.2114C1444.08 30.2114 1445.38 29.4672 1446.05 28.8185H1446.53ZM1533.13 24.43C1530.06 24.43 1529.05 23.4188 1529.05 20.3468C1529.05 17.2749 1530.06 16.2255 1533.13 16.2255C1536.2 16.2255 1537.21 17.2749 1537.21 20.3468C1537.21 23.4188 1536.2 24.43 1533.13 24.43ZM1513.44 24.43C1510.37 24.43 1509.36 23.4188 1509.36 20.3468C1509.36 17.2749 1510.37 16.2255 1513.44 16.2255C1516.51 16.2255 1517.52 17.2749 1517.52 20.3468C1517.52 23.4188 1516.51 24.43 1513.44 24.43ZM1494.26 24.43C1491.19 24.43 1490.18 23.4188 1490.18 20.3468C1490.18 17.2749 1491.19 16.2255 1494.26 16.2255C1497.34 16.2255 1498.35 17.2749 1498.35 20.3468C1498.35 23.4188 1497.34 24.43 1494.26 24.43ZM1429.24 7.81104L1426.74 27.7881L1430.8 28.2842L1433.26 8.30713L1429.24 7.81104ZM1537.39 26.3762V27.8263H1541.22V12.8673H1537.39V14.3174H1536.83C1536.22 13.497 1534.68 12.4285 1532.6 12.4285C1528.04 12.4285 1524.91 15.9011 1524.91 20.3468C1524.91 24.7925 1528.04 28.2461 1532.6 28.2461C1534.68 28.2461 1536.22 27.1776 1536.83 26.3571L1537.39 26.3762ZM1494.26 12.4285C1489.19 12.4285 1486.04 15.9011 1486.04 20.3468C1486.04 24.7925 1489.19 28.2461 1494.26 28.2461C1499.34 28.2461 1502.49 24.7925 1502.49 20.3468C1502.49 15.9011 1499.34 12.4285 1494.26 12.4285ZM1517.75 26.3762V27.8263H1521.59V7.98276H1517.52V14.2984H1516.97C1516.36 13.4779 1514.99 12.4094 1512.91 12.4094C1508.35 12.4094 1505.22 15.882 1505.22 20.3277C1505.22 24.7735 1508.35 28.227 1512.91 28.227C1514.99 28.227 1516.61 27.1585 1517.2 26.338C1517.2 26.3762 1517.75 26.3762 1517.75 26.3762Z" fill="white"></path> <path d="M3105.88 27.8072H3110V19.2974C3110 14.7944 3107.14 12.4094 3103.68 12.4094C3101.39 12.4094 3099.68 13.4016 3098.44 14.7754H3097.88C3096.95 13.5542 3095.33 12.4094 3092.9 12.4094C3090.71 12.4094 3088.97 13.3825 3088.06 14.4892H3087.5V12.8292H3083.67V27.7881H3087.75V19.9652C3087.75 17.294 3088.53 16.3781 3091.28 16.3781C3094.03 16.3781 3094.77 17.294 3094.77 19.9652V27.7881H3098.89V19.9652C3098.89 17.294 3099.66 16.3781 3102.39 16.3781C3105.13 16.3781 3105.88 17.294 3105.88 19.9652V27.8072ZM3067.28 25.6702C3066.55 25.136 3066.21 24.3537 3066.21 23.1516C3066.21 21.6443 3066.67 19.8126 3067.43 19.0112C3067.97 18.4769 3068.73 18.2289 3069.76 18.2289C3071.23 18.2289 3073.04 18.6105 3073.78 19.3928C3074.3 19.908 3074.53 20.6139 3074.53 21.6061C3074.53 23.0371 3074.13 25.0406 3073.23 25.8801C3072.72 26.338 3072.05 26.5479 3071.08 26.5479C3069.76 26.5288 3068.1 26.2236 3067.28 25.6702ZM3073.75 28.8185L3073.58 30.1923L3077.41 30.6693L3079.22 15.8439L3075.39 15.3669L3075.22 16.7979H3074.76C3074.19 15.7866 3072.66 14.4128 3069.76 14.4128C3065.73 14.4128 3062.76 17.3894 3062.22 21.4535C3062.16 21.8542 3062.15 22.2549 3062.15 22.6555C3062.15 26.5479 3064.78 29.7343 3068.9 30.1923C3069.13 30.2114 3069.36 30.2304 3069.59 30.2114C3071.3 30.2114 3072.6 29.4672 3073.27 28.8185H3073.75ZM3160.35 24.43C3157.28 24.43 3156.27 23.4188 3156.27 20.3468C3156.27 17.2749 3157.28 16.2255 3160.35 16.2255C3163.42 16.2255 3164.44 17.2749 3164.44 20.3468C3164.44 23.4188 3163.42 24.43 3160.35 24.43ZM3140.66 24.43C3137.59 24.43 3136.58 23.4188 3136.58 20.3468C3136.58 17.2749 3137.59 16.2255 3140.66 16.2255C3143.73 16.2255 3144.74 17.2749 3144.74 20.3468C3144.74 23.4188 3143.73 24.43 3140.66 24.43ZM3121.49 24.43C3118.41 24.43 3117.4 23.4188 3117.4 20.3468C3117.4 17.2749 3118.41 16.2255 3121.49 16.2255C3124.56 16.2255 3125.57 17.2749 3125.57 20.3468C3125.57 23.4188 3124.56 24.43 3121.49 24.43ZM3056.46 7.81104L3053.96 27.7881L3058.02 28.2842L3060.49 8.30713L3056.46 7.81104ZM3164.61 26.3762V27.8263H3168.44V12.8673H3164.61V14.3174H3164.05C3163.44 13.497 3161.9 12.4285 3159.82 12.4285C3155.26 12.4285 3152.13 15.9011 3152.13 20.3468C3152.13 24.7925 3155.26 28.2461 3159.82 28.2461C3161.9 28.2461 3163.44 27.1776 3164.05 26.3571L3164.61 26.3762ZM3121.49 12.4285C3116.41 12.4285 3113.26 15.9011 3113.26 20.3468C3113.26 24.7925 3116.41 28.2461 3121.49 28.2461C3126.56 28.2461 3129.71 24.7925 3129.71 20.3468C3129.71 15.9011 3126.56 12.4285 3121.49 12.4285ZM3144.97 26.3762V27.8263H3148.81V7.98276H3144.74V14.2984H3144.19C3143.58 13.4779 3142.21 12.4094 3140.13 12.4094C3135.57 12.4094 3132.44 15.882 3132.44 20.3277C3132.44 24.7735 3135.57 28.227 3140.13 28.227C3142.21 28.227 3143.83 27.1585 3144.42 26.338C3144.42 26.3762 3144.97 26.3762 3144.97 26.3762Z" fill="white"></path> <path d="M6.85525 21.1603L2.88305 30.0021H0L4.35661 20.5454C3.33152 20.0365 2.52 19.2732 1.87932 18.2979C1.26 17.2801 0.93966 15.9231 0.93966 14.2056C0.93966 12.997 1.11051 11.9581 1.4522 11.0463C1.81525 10.1134 2.30644 9.35007 2.9044 8.75638C3.52372 8.16269 4.24983 7.69622 5.08271 7.39937C5.91559 7.10252 6.76982 6.9541 7.68813 6.9541H11.4254V30.0233H8.92677V21.1603H6.85525ZM8.92677 9.03202H7.6027C7.11152 9.03202 6.62033 9.13804 6.1505 9.32887C5.68067 9.4985 5.25355 9.79534 4.8905 10.1982C4.52745 10.5799 4.22847 11.1099 3.9722 11.7885C3.75864 12.4246 3.65186 13.2303 3.65186 14.2056C3.65186 15.1386 3.75864 15.9019 3.95084 16.538C4.1644 17.1529 4.44203 17.6618 4.80508 18.0434C5.16813 18.4251 5.59525 18.7007 6.06508 18.8916C6.55626 19.04 7.09016 19.1248 7.62406 19.1248H8.94813L8.92677 9.03202Z" fill="white"></path> <path d="M36.5185 33.1825H34.2548V29.9808H27.2287V33.1825H24.9649V27.9241H25.9687C26.3317 27.0548 26.6307 26.1218 26.8443 25.0829C27.0578 24.0227 27.2287 22.9625 27.3354 21.86C27.4636 20.7362 27.549 19.6124 27.5704 18.4674C27.6131 17.3012 27.6344 16.1987 27.6344 15.1173V13.7391H35.2371V27.9241H36.5398V33.1825H36.5185ZM47.5168 28.8994C47.0042 29.3023 46.4063 29.6204 45.7229 29.8748C45.0608 30.108 44.3134 30.2353 43.4805 30.2353C41.7934 30.2353 40.4693 29.5992 39.4869 28.3058C38.5046 26.9912 38.0347 25.0829 38.0347 22.5597C38.0347 21.2451 38.1202 20.0365 38.291 18.9551C38.4832 17.8525 38.7822 16.9196 39.1666 16.1139C39.5724 15.2869 40.1063 14.672 40.7256 14.2056C41.3449 13.7603 42.0924 13.5271 42.968 13.5271C43.63 13.5271 44.2493 13.6755 44.8259 13.9511C45.3812 14.2056 45.8724 14.6296 46.2568 15.2445C46.6412 15.8382 46.9402 16.6227 47.1751 17.5981C47.3886 18.5522 47.4954 19.6972 47.4954 21.0754V22.4536H40.6829C40.6829 24.2983 40.9392 25.6978 41.4303 26.6519C41.9429 27.606 42.7117 28.0725 43.7368 28.0725C44.4415 28.0725 45.0822 27.9453 45.6161 27.7121C46.1714 27.4576 46.6198 27.2032 46.9402 26.9699L47.5168 28.8994ZM23.4914 13.7391V30.002H20.9714V22.7081H17.2127V30.002H14.6714V13.7391H17.2127V20.6514H20.9714V13.7391H23.4914ZM52.6208 21.9024V30.002H50.0795V13.7391H52.6208V21.2451L56.5503 13.7391H59.113L55.0554 21.3935L59.711 30.002H56.9561L52.6208 21.9024ZM65.6479 30.2141C63.8968 30.2141 62.5086 29.5355 61.5262 28.1573C60.5225 26.7579 60.0313 24.6588 60.0313 21.86C60.0313 20.5878 60.1595 19.4428 60.3944 18.4038C60.6507 17.3649 61.0137 16.4955 61.5049 15.7958C61.9961 15.0749 62.6154 14.5024 63.3201 14.1208C64.0462 13.7179 64.9005 13.5059 65.8615 13.5059C66.5876 13.5059 67.1856 13.5907 67.6554 13.7603C68.1039 13.9087 68.531 14.0996 68.894 14.3328L68.531 16.7288C68.1893 16.4319 67.7835 16.1775 67.2923 15.9442C66.8439 15.711 66.3527 15.5838 65.8401 15.5838C64.9218 15.5838 64.1744 16.0927 63.5978 17.0892C63.0212 18.107 62.7222 19.6336 62.7222 21.7115C62.7222 23.747 62.9571 25.3373 63.4269 26.4611C63.9181 27.5636 64.6869 28.1149 65.7334 28.1149C66.3527 28.1149 66.9079 28.0089 67.3564 27.8181C67.8049 27.606 68.1893 27.3728 68.4883 27.1184L69.0649 28.9843C68.6378 29.3447 68.1466 29.6416 67.6127 29.896C67.0574 30.108 66.4167 30.2141 65.6479 30.2141ZM32.7171 15.7746H29.8981V16.0715C29.8981 16.9408 29.8768 17.8737 29.8341 18.9127C29.8127 19.9305 29.7487 20.9482 29.6419 22.0084C29.5351 23.0685 29.3856 24.1075 29.1934 25.1465C29.0012 26.1642 28.7236 27.0972 28.3819 27.9453H32.7385L32.7171 15.7746ZM42.968 15.5838C42.1778 15.5838 41.6439 16.0291 41.3022 16.8984C40.9819 17.7677 40.7683 18.9127 40.6829 20.3757H44.8686C44.8686 19.6972 44.8259 19.0611 44.7619 18.4674C44.6978 17.8737 44.591 17.3437 44.4415 16.9196C44.3134 16.4955 44.1212 16.1563 43.8649 15.923C43.6514 15.6898 43.331 15.5838 42.968 15.5838Z" fill="white"></path> <path d="M114.19 13.6965C114.019 13.1028 113.87 12.5303 113.742 12.0214C113.635 11.4913 113.528 10.94 113.421 10.41H113.315C113.379 11.5125 113.421 12.6363 113.421 13.8237V29.9806H111.99V6.93262H113.87L117.799 21.6689C117.885 21.9657 117.97 22.3898 118.056 22.9199C118.162 23.4288 118.248 23.9164 118.29 24.3405H118.397C118.461 23.9164 118.547 23.4288 118.654 22.9199C118.76 22.3898 118.867 21.9657 118.953 21.6689L122.925 6.93262H124.74V30.0018H123.181V13.8237C123.181 13.2724 123.202 12.6999 123.224 12.1486C123.245 11.5761 123.288 10.9824 123.33 10.41H123.202C123.053 11.0461 122.903 11.6185 122.775 12.1274C122.668 12.6151 122.54 13.124 122.412 13.6117L118.931 26.4396H117.671L114.19 13.6965Z" fill="white"></path> <path d="M131.595 29.0904C132.343 29.0904 132.983 28.7724 133.517 28.1575C134.051 27.5426 134.478 26.7793 134.777 25.9099V21.4148H133.026C131.659 21.4148 130.655 21.7329 130.015 22.3902C129.374 23.0263 129.032 24.0652 129.032 25.4858C129.032 26.652 129.267 27.5426 129.716 28.1575C130.186 28.7724 130.826 29.0904 131.595 29.0904ZM135.226 30.0021C135.162 29.7901 135.076 29.5145 134.991 29.1964C134.927 28.8572 134.863 28.3907 134.82 27.8182C134.435 28.6027 133.944 29.1964 133.368 29.6629C132.791 30.1082 132.086 30.3414 131.253 30.3414C130.143 30.3414 129.246 29.9385 128.563 29.1116C127.879 28.2635 127.516 27.1185 127.516 25.6343C127.516 23.8956 127.986 22.581 128.904 21.6905C129.844 20.7787 131.189 20.3335 132.962 20.3335H134.756V18.2979C134.756 17.0469 134.521 16.1564 134.072 15.5839C133.624 15.0326 132.941 14.7358 132.022 14.7358C131.339 14.7358 130.677 14.9054 130.079 15.2235C129.481 15.5203 128.968 15.9444 128.584 16.5169L128.157 15.075C128.477 14.651 128.968 14.2693 129.609 13.9513C130.271 13.612 131.083 13.4424 132.022 13.4424C133.389 13.4424 134.435 13.824 135.14 14.6086C135.866 15.3507 136.251 16.5381 136.251 18.1495V27.0125C136.251 27.5638 136.293 28.1363 136.357 28.73C136.422 29.2812 136.507 29.7265 136.614 30.0234L135.226 30.0021Z" fill="white"></path> <path d="M144.323 29.0901C145.37 29.0901 146.203 28.4752 146.822 27.2454C147.441 25.9944 147.762 24.0862 147.762 21.4994C147.762 19.3578 147.484 17.6828 146.95 16.4954C146.416 15.308 145.669 14.7143 144.708 14.7143C144.345 14.7143 143.982 14.8203 143.64 15.0111C143.319 15.1808 142.999 15.414 142.7 15.7109C142.423 16.0077 142.166 16.3682 141.91 16.771C141.675 17.1527 141.462 17.5767 141.291 18.0008V27.097C141.611 27.7543 142.017 28.2632 142.487 28.5812C142.978 28.9205 143.576 29.0901 144.323 29.0901ZM144.216 30.2775C143.597 30.2775 143.021 30.1503 142.487 29.8959C141.995 29.6202 141.59 29.281 141.291 28.8569V35.027H139.774V13.7389H141.098L141.227 16.4106C141.59 15.626 142.081 14.9475 142.679 14.3538C143.277 13.7389 144.046 13.4209 144.943 13.4209C145.605 13.4209 146.224 13.6117 146.758 13.9934C147.292 14.375 147.762 14.9263 148.125 15.6472C148.488 16.3257 148.765 17.1739 148.979 18.1704C149.171 19.1458 149.278 20.2059 149.278 21.3933C149.278 24.383 148.808 26.6093 147.89 28.0936C146.95 29.5566 145.733 30.2775 144.216 30.2775Z" fill="white"></path> <path d="M153.741 30.0022H152.225V13.7393H153.741V21.3936L159.23 13.7393H160.725L155.321 21.2876L161.109 30.0022H159.422L153.741 21.5845V30.0022Z" fill="white"></path> <path d="M163.287 22.1142C163.33 24.3406 163.65 26.0581 164.227 27.2454C164.804 28.4116 165.701 28.9841 166.896 28.9841C167.43 28.9841 167.922 28.8993 168.327 28.7297C168.733 28.56 169.075 28.348 169.374 28.1148C169.694 27.8815 169.972 27.5847 170.228 27.2454L170.719 28.4752C170.463 28.8357 170.143 29.1537 169.779 29.4082C169.459 29.6414 169.053 29.8534 168.584 30.0231C168.114 30.2139 167.537 30.3199 166.896 30.3199C165.167 30.3199 163.885 29.5778 163.052 28.0936C162.219 26.6093 161.814 24.5314 161.814 21.8598C161.814 20.524 161.942 19.3366 162.177 18.3189C162.412 17.2587 162.732 16.3682 163.159 15.6472C163.586 14.9263 164.099 14.375 164.675 13.9934C165.252 13.6117 165.893 13.4209 166.597 13.4209C167.302 13.4209 167.943 13.6117 168.519 13.9722C169.075 14.3326 169.545 14.8839 169.908 15.626C170.271 16.347 170.527 17.2799 170.698 18.3613C170.847 19.4426 170.869 20.6936 170.741 22.1354H163.287V22.1142ZM166.576 14.6719C165.701 14.6719 164.953 15.202 164.334 16.2833C163.736 17.3435 163.394 18.8913 163.33 20.9269H169.267C169.395 18.7641 169.182 17.1739 168.626 16.1773C168.071 15.1808 167.388 14.6719 166.576 14.6719Z" fill="white"></path> <path d="M177.425 14.9903V29.981H175.887V14.9903H172.086V13.7393H181.184V14.9903H177.425Z" fill="white"></path> <path d="M98.6643 29.4716L93.4108 26.8636L95.3755 19.0396L86.1925 32.7369L79.6148 30.1289L81.5796 22.3049L75.0447 30.9558C75.2582 31.5495 75.5145 32.0796 75.8562 32.5672C76.326 33.2245 76.9026 33.797 77.5647 34.2635C79.5935 35.7265 82.4765 35.7265 88.264 35.7265H92.108C97.8955 35.7265 100.779 35.7265 102.807 34.2635C103.469 33.797 104.046 33.2245 104.516 32.5672C105.968 30.5953 105.989 27.7753 105.989 22.1988L98.6643 29.4716Z" fill="white"></path> <path d="M102.829 5.78773C100.8 4.32471 97.9169 4.32471 92.1294 4.32471H88.2854C82.4979 4.32471 79.6149 4.32471 77.5861 5.78773C76.924 6.25421 76.3474 6.82669 75.8776 7.484C74.4041 9.49831 74.4041 12.3608 74.4041 18.1068V21.9234C74.4041 21.987 74.4041 22.0294 74.4041 22.0931L82.9037 11.8519L88.1572 14.4599L86.8332 20.9905L96.6996 7.29317L103.277 9.90117L101.312 18.3825L106.011 14.3115C105.947 10.9825 105.669 8.98943 104.559 7.484C104.067 6.82669 103.491 6.25421 102.829 5.78773Z" fill="white"></path> <path d="M1634.08 21.1603L1630.1 30.0021H1627.22L1631.58 20.5454C1630.55 20.0365 1629.74 19.2732 1629.1 18.2979C1628.48 17.2801 1628.16 15.9231 1628.16 14.2056C1628.16 12.997 1628.33 11.9581 1628.67 11.0463C1629.04 10.1134 1629.53 9.35007 1630.13 8.75638C1630.74 8.16269 1631.47 7.69622 1632.3 7.39937C1633.14 7.10252 1633.99 6.9541 1634.91 6.9541H1638.65V30.0233H1636.15V21.1603H1634.08ZM1636.15 9.03202H1634.82C1634.33 9.03202 1633.84 9.13804 1633.37 9.32887C1632.9 9.4985 1632.47 9.79534 1632.11 10.1982C1631.75 10.5799 1631.45 11.1099 1631.19 11.7885C1630.98 12.4246 1630.87 13.2303 1630.87 14.2056C1630.87 15.1386 1630.98 15.9019 1631.17 16.538C1631.39 17.1529 1631.66 17.6618 1632.03 18.0434C1632.39 18.4251 1632.82 18.7007 1633.29 18.8916C1633.78 19.04 1634.31 19.1248 1634.85 19.1248H1636.17L1636.15 9.03202Z" fill="white"></path> <path d="M1663.74 33.1825H1661.48V29.9808H1654.45V33.1825H1652.19V27.9241H1653.19C1653.55 27.0548 1653.85 26.1218 1654.07 25.0829C1654.28 24.0227 1654.45 22.9625 1654.56 21.86C1654.68 20.7362 1654.77 19.6124 1654.79 18.4674C1654.83 17.3012 1654.86 16.1987 1654.86 15.1173V13.7391H1662.46V27.9241H1663.76V33.1825H1663.74ZM1674.74 28.8994C1674.23 29.3023 1673.63 29.6204 1672.94 29.8748C1672.28 30.108 1671.53 30.2353 1670.7 30.2353C1669.01 30.2353 1667.69 29.5992 1666.71 28.3058C1665.73 26.9912 1665.26 25.0829 1665.26 22.5597C1665.26 21.2451 1665.34 20.0365 1665.51 18.9551C1665.7 17.8525 1666 16.9196 1666.39 16.1139C1666.79 15.2869 1667.33 14.672 1667.95 14.2056C1668.57 13.7603 1669.31 13.5271 1670.19 13.5271C1670.85 13.5271 1671.47 13.6755 1672.05 13.9511C1672.6 14.2056 1673.09 14.6296 1673.48 15.2445C1673.86 15.8382 1674.16 16.6227 1674.4 17.5981C1674.61 18.5522 1674.72 19.6972 1674.72 21.0754V22.4536H1667.9C1667.9 24.2983 1668.16 25.6978 1668.65 26.6519C1669.16 27.606 1669.93 28.0725 1670.96 28.0725C1671.66 28.0725 1672.3 27.9453 1672.84 27.7121C1673.39 27.4576 1673.84 27.2032 1674.16 26.9699L1674.74 28.8994ZM1650.71 13.7391V30.002H1648.19V22.7081H1644.43V30.002H1641.89V13.7391H1644.43V20.6514H1648.19V13.7391H1650.71ZM1679.84 21.9024V30.002H1677.3V13.7391H1679.84V21.2451L1683.77 13.7391H1686.33L1682.28 21.3935L1686.93 30.002H1684.18L1679.84 21.9024ZM1692.87 30.2141C1691.12 30.2141 1689.73 29.5355 1688.75 28.1573C1687.74 26.7579 1687.25 24.6588 1687.25 21.86C1687.25 20.5878 1687.38 19.4428 1687.62 18.4038C1687.87 17.3649 1688.23 16.4955 1688.73 15.7958C1689.22 15.0749 1689.84 14.5024 1690.54 14.1208C1691.27 13.7179 1692.12 13.5059 1693.08 13.5059C1693.81 13.5059 1694.41 13.5907 1694.88 13.7603C1695.33 13.9087 1695.75 14.0996 1696.12 14.3328L1695.75 16.7288C1695.41 16.4319 1695 16.1775 1694.51 15.9442C1694.07 15.711 1693.57 15.5838 1693.06 15.5838C1692.14 15.5838 1691.4 16.0927 1690.82 17.0892C1690.24 18.107 1689.94 19.6336 1689.94 21.7115C1689.94 23.747 1690.18 25.3373 1690.65 26.4611C1691.14 27.5636 1691.91 28.1149 1692.95 28.1149C1693.57 28.1149 1694.13 28.0089 1694.58 27.8181C1695.03 27.606 1695.41 27.3728 1695.71 27.1184L1696.29 28.9843C1695.86 29.3447 1695.37 29.6416 1694.83 29.896C1694.28 30.108 1693.64 30.2141 1692.87 30.2141ZM1659.94 15.7746H1657.12V16.0715C1657.12 16.9408 1657.1 17.8737 1657.06 18.9127C1657.03 19.9305 1656.97 20.9482 1656.86 22.0084C1656.76 23.0685 1656.61 24.1075 1656.41 25.1465C1656.22 26.1642 1655.94 27.0972 1655.6 27.9453H1659.96L1659.94 15.7746ZM1670.19 15.5838C1669.4 15.5838 1668.87 16.0291 1668.52 16.8984C1668.2 17.7677 1667.99 18.9127 1667.9 20.3757H1672.09C1672.09 19.6972 1672.05 19.0611 1671.98 18.4674C1671.92 17.8737 1671.81 17.3437 1671.66 16.9196C1671.53 16.4955 1671.34 16.1563 1671.09 15.923C1670.87 15.6898 1670.55 15.5838 1670.19 15.5838Z" fill="white"></path> <path d="M1741.41 13.6965C1741.24 13.1028 1741.09 12.5303 1740.96 12.0214C1740.86 11.4913 1740.75 10.94 1740.64 10.41H1740.54C1740.6 11.5125 1740.64 12.6363 1740.64 13.8237V29.9806H1739.21V6.93262H1741.09L1745.02 21.6689C1745.11 21.9657 1745.19 22.3898 1745.28 22.9199C1745.38 23.4288 1745.47 23.9164 1745.51 24.3405H1745.62C1745.68 23.9164 1745.77 23.4288 1745.87 22.9199C1745.98 22.3898 1746.09 21.9657 1746.17 21.6689L1750.15 6.93262H1751.96V30.0018H1750.4V13.8237C1750.4 13.2724 1750.42 12.6999 1750.44 12.1486C1750.47 11.5761 1750.51 10.9824 1750.55 10.41H1750.42C1750.27 11.0461 1750.12 11.6185 1750 12.1274C1749.89 12.6151 1749.76 13.124 1749.63 13.6117L1746.15 26.4396H1744.89L1741.41 13.6965Z" fill="white"></path> <path d="M1758.82 29.0904C1759.56 29.0904 1760.2 28.7724 1760.74 28.1575C1761.27 27.5426 1761.7 26.7793 1762 25.9099V21.4148H1760.25C1758.88 21.4148 1757.88 21.7329 1757.24 22.3902C1756.6 23.0263 1756.25 24.0652 1756.25 25.4858C1756.25 26.652 1756.49 27.5426 1756.94 28.1575C1757.41 28.7724 1758.05 29.0904 1758.82 29.0904ZM1762.45 30.0021C1762.38 29.7901 1762.3 29.5145 1762.21 29.1964C1762.15 28.8572 1762.08 28.3907 1762.04 27.8182C1761.66 28.6027 1761.17 29.1964 1760.59 29.6629C1760.01 30.1082 1759.31 30.3414 1758.47 30.3414C1757.36 30.3414 1756.47 29.9385 1755.78 29.1116C1755.1 28.2635 1754.74 27.1185 1754.74 25.6343C1754.74 23.8956 1755.21 22.581 1756.13 21.6905C1757.06 20.7787 1758.41 20.3335 1760.18 20.3335H1761.98V18.2979C1761.98 17.0469 1761.74 16.1564 1761.29 15.5839C1760.84 15.0326 1760.16 14.7358 1759.24 14.7358C1758.56 14.7358 1757.9 14.9054 1757.3 15.2235C1756.7 15.5203 1756.19 15.9444 1755.8 16.5169L1755.38 15.075C1755.7 14.651 1756.19 14.2693 1756.83 13.9513C1757.49 13.612 1758.3 13.4424 1759.24 13.4424C1760.61 13.4424 1761.66 13.824 1762.36 14.6086C1763.09 15.3507 1763.47 16.5381 1763.47 18.1495V27.0125C1763.47 27.5638 1763.51 28.1363 1763.58 28.73C1763.64 29.2812 1763.73 29.7265 1763.83 30.0234L1762.45 30.0021Z" fill="white"></path> <path d="M1771.54 29.0901C1772.59 29.0901 1773.42 28.4752 1774.04 27.2454C1774.66 25.9944 1774.98 24.0862 1774.98 21.4994C1774.98 19.3578 1774.7 17.6828 1774.17 16.4954C1773.64 15.308 1772.89 14.7143 1771.93 14.7143C1771.57 14.7143 1771.2 14.8203 1770.86 15.0111C1770.54 15.1808 1770.22 15.414 1769.92 15.7109C1769.64 16.0077 1769.39 16.3682 1769.13 16.771C1768.9 17.1527 1768.68 17.5767 1768.51 18.0008V27.097C1768.83 27.7543 1769.24 28.2632 1769.71 28.5812C1770.2 28.9205 1770.8 29.0901 1771.54 29.0901ZM1771.44 30.2775C1770.82 30.2775 1770.24 30.1503 1769.71 29.8959C1769.22 29.6202 1768.81 29.281 1768.51 28.8569V35.027H1767V13.7389H1768.32L1768.45 16.4106C1768.81 15.626 1769.3 14.9475 1769.9 14.3538C1770.5 13.7389 1771.27 13.4209 1772.16 13.4209C1772.83 13.4209 1773.44 13.6117 1773.98 13.9934C1774.51 14.375 1774.98 14.9263 1775.35 15.6472C1775.71 16.3257 1775.99 17.1739 1776.2 18.1704C1776.39 19.1458 1776.5 20.2059 1776.5 21.3933C1776.5 24.383 1776.03 26.6093 1775.11 28.0936C1774.17 29.5566 1772.95 30.2775 1771.44 30.2775Z" fill="white"></path> <path d="M1780.96 30.0022H1779.45V13.7393H1780.96V21.3936L1786.45 13.7393H1787.95L1782.54 21.2876L1788.33 30.0022H1786.64L1780.96 21.5845V30.0022Z" fill="white"></path> <path d="M1790.51 22.1142C1790.55 24.3406 1790.87 26.0581 1791.45 27.2454C1792.02 28.4116 1792.92 28.9841 1794.12 28.9841C1794.65 28.9841 1795.14 28.8993 1795.55 28.7297C1795.95 28.56 1796.3 28.348 1796.59 28.1148C1796.92 27.8815 1797.19 27.5847 1797.45 27.2454L1797.94 28.4752C1797.68 28.8357 1797.36 29.1537 1797 29.4082C1796.68 29.6414 1796.27 29.8534 1795.8 30.0231C1795.33 30.2139 1794.76 30.3199 1794.12 30.3199C1792.39 30.3199 1791.11 29.5778 1790.27 28.0936C1789.44 26.6093 1789.03 24.5314 1789.03 21.8598C1789.03 20.524 1789.16 19.3366 1789.4 18.3189C1789.63 17.2587 1789.95 16.3682 1790.38 15.6472C1790.81 14.9263 1791.32 14.375 1791.9 13.9934C1792.47 13.6117 1793.11 13.4209 1793.82 13.4209C1794.52 13.4209 1795.16 13.6117 1795.74 13.9722C1796.3 14.3326 1796.77 14.8839 1797.13 15.626C1797.49 16.347 1797.75 17.2799 1797.92 18.3613C1798.07 19.4426 1798.09 20.6936 1797.96 22.1354H1790.51V22.1142ZM1793.8 14.6719C1792.92 14.6719 1792.17 15.202 1791.55 16.2833C1790.96 17.3435 1790.62 18.8913 1790.55 20.9269H1796.49C1796.62 18.7641 1796.4 17.1739 1795.85 16.1773C1795.29 15.1808 1794.61 14.6719 1793.8 14.6719Z" fill="white"></path> <path d="M1804.65 14.9903V29.981H1803.11V14.9903H1799.31V13.7393H1808.4V14.9903H1804.65Z" fill="white"></path> <path d="M1725.89 29.4716L1720.63 26.8636L1722.6 19.0396L1713.41 32.7369L1706.84 30.1289L1708.8 22.3049L1702.27 30.9558C1702.48 31.5495 1702.74 32.0796 1703.08 32.5672C1703.55 33.2245 1704.12 33.797 1704.79 34.2635C1706.81 35.7265 1709.7 35.7265 1715.49 35.7265H1719.33C1725.12 35.7265 1728 35.7265 1730.03 34.2635C1730.69 33.797 1731.27 33.2245 1731.74 32.5672C1733.19 30.5953 1733.21 27.7753 1733.21 22.1988L1725.89 29.4716Z" fill="white"></path> <path d="M1730.05 5.78773C1728.02 4.32471 1725.14 4.32471 1719.35 4.32471H1715.51C1709.72 4.32471 1706.84 4.32471 1704.81 5.78773C1704.14 6.25421 1703.57 6.82669 1703.1 7.484C1701.62 9.49831 1701.62 12.3608 1701.62 18.1068V21.9234C1701.62 21.987 1701.62 22.0294 1701.62 22.0931L1710.12 11.8519L1715.38 14.4599L1714.05 20.9905L1723.92 7.29317L1730.5 9.90117L1728.53 18.3825L1733.23 14.3115C1733.17 10.9825 1732.89 8.98943 1731.78 7.484C1731.29 6.82669 1730.71 6.25421 1730.05 5.78773Z" fill="white"></path> <path d="M272.398 31.9291L267.184 12.803H270.604L274.611 27.4929L278.905 12.8018L282.094 12.803L286.403 27.5709L290.428 12.8066L293.849 12.8018L288.631 31.9257L284.666 31.9217L280.501 17.6386L276.331 31.9254L272.398 31.9291Z" fill="white"></path> <path d="M296.208 12.8125H299.464V31.9163H296.208V12.8125Z" fill="white"></path> <path d="M306.426 28.9196H314.353V31.9163H303.237V12.8125H306.426V28.9196Z" fill="white"></path> <path d="M324.369 12.8345C327.041 12.8345 329.264 13.76 331.016 15.5888C332.79 17.4177 333.688 19.6873 333.688 22.3754C333.688 25.0416 332.79 27.3111 331.016 29.162C329.264 30.9909 327.041 31.9163 324.369 31.9163H316.711V12.8125H324.369V12.8345ZM324.369 28.9417C326.21 28.9417 327.715 28.3247 328.838 27.0908C330.005 25.8569 330.589 24.2704 330.589 22.3974C330.589 20.4805 330.005 18.9381 328.838 17.7042C327.692 16.4702 326.188 15.8532 324.369 15.8532H319.922V28.9417H324.369Z" fill="white"></path> <path d="M350.868 26.4589C350.868 28.0241 350.307 29.3248 349.162 30.361C348.016 31.3972 346.669 31.9262 345.007 31.9262H336.675V12.8125H344.4C345.995 12.8125 347.342 13.3416 348.443 14.3337C349.566 15.3477 350.105 16.6044 350.105 18.1035C350.105 19.779 349.431 21.0576 348.129 22.0056C349.835 22.8875 350.868 24.4747 350.868 26.4589ZM339.886 15.7667V20.7931H344.423C345.838 20.7931 346.916 19.6908 346.916 18.2799C346.916 16.8689 345.838 15.7667 344.423 15.7667H339.886ZM345.029 28.9721C346.511 28.9721 347.679 27.8036 347.679 26.3046C347.679 24.8054 346.511 23.637 345.029 23.637H339.886V28.9941H345.029V28.9721Z" fill="white"></path> <path d="M357.088 28.928H365.712V31.9262H353.9V12.8125H365.578V15.8107H357.088V20.771H364.881V23.7472H357.088V28.928Z" fill="white"></path> <path d="M379.681 31.9262L375.548 24.9597H371.775V31.9262H368.587V12.8125H376.379C378.131 12.8125 379.613 13.4077 380.803 14.6202C382.016 15.7887 382.645 17.2437 382.645 18.9633C382.645 21.3883 381.095 23.6149 378.782 24.4968L383.206 31.9262H379.681ZM371.775 15.7666V22.1599H376.357C378.063 22.1599 379.411 20.749 379.411 18.9633C379.411 17.1996 378.041 15.7666 376.357 15.7666H371.775Z" fill="white"></path> <path d="M396.725 31.9264L392.616 24.9563H388.843V31.9264H385.654V12.8027H393.446C395.198 12.8027 396.68 13.3983 397.871 14.6115C399.083 15.7805 399.712 17.2362 399.712 18.9567C399.712 21.383 398.163 23.6108 395.85 24.4931L400.273 31.9264H396.725ZM388.843 15.7584V22.155H393.424C395.131 22.155 396.478 20.7433 396.478 18.9567C396.478 17.1922 395.109 15.7584 393.424 15.7584H388.843Z" fill="white"></path> <path d="M402.609 12.8042H405.798V31.9257H402.609V12.8042Z" fill="white"></path> <path d="M412.76 28.928H421.383V31.9262H409.57V12.8125H421.248V15.8107H412.76V20.771H420.552V23.7472H412.76V28.928Z" fill="white"></path> <path d="M423.606 27.5755L426.369 25.9891C427.154 28.1484 428.749 29.2061 431.197 29.2061C433.622 29.2061 434.812 28.1925 434.812 26.6942C434.812 25.901 434.475 25.3281 433.847 24.9314C433.218 24.5128 432.05 24.05 430.389 23.5653C428.524 23.0144 427.604 22.6619 426.301 21.8246C425.044 20.9432 424.414 19.6872 424.414 17.9686C424.414 16.2719 425.021 14.9499 426.256 13.9583C427.469 12.9447 428.951 12.46 430.68 12.46C433.802 12.46 436.205 14.0464 437.462 16.6685L434.767 18.1889C433.959 16.4262 432.589 15.5227 430.68 15.5227C428.816 15.5227 427.626 16.4482 427.626 17.9024C427.626 19.3127 428.569 19.9737 431.556 20.8771C432.297 21.1195 432.836 21.2958 433.173 21.4279C433.532 21.5382 434.003 21.7365 434.61 21.9788C435.239 22.2212 435.733 22.5077 436.025 22.75C437.058 23.5433 438.158 24.8433 438.023 26.6722C438.023 28.3908 437.395 29.779 436.115 30.7926C434.857 31.8062 433.195 32.2909 431.13 32.2909C427.357 32.2689 424.617 30.5061 423.606 27.5755Z" fill="white"></path> <path d="M1899.62 31.9291L1894.4 12.803H1897.83L1901.83 27.4929L1906.13 12.8018L1909.32 12.803L1913.62 27.5709L1917.65 12.8066L1921.07 12.8018L1915.85 31.9257L1911.89 31.9217L1907.72 17.6386L1903.55 31.9254L1899.62 31.9291Z" fill="white"></path> <path d="M1923.43 12.8125H1926.68V31.9163H1923.43V12.8125Z" fill="white"></path> <path d="M1933.65 28.9196H1941.57V31.9163H1930.46V12.8125H1933.65V28.9196Z" fill="white"></path> <path d="M1951.59 12.8345C1954.26 12.8345 1956.49 13.76 1958.24 15.5888C1960.01 17.4177 1960.91 19.6873 1960.91 22.3754C1960.91 25.0416 1960.01 27.3111 1958.24 29.162C1956.49 30.9909 1954.26 31.9163 1951.59 31.9163H1943.93V12.8125H1951.59V12.8345ZM1951.59 28.9417C1953.43 28.9417 1954.94 28.3247 1956.06 27.0908C1957.23 25.8569 1957.81 24.2704 1957.81 22.3974C1957.81 20.4805 1957.23 18.9381 1956.06 17.7042C1954.91 16.4702 1953.41 15.8532 1951.59 15.8532H1947.14V28.9417H1951.59Z" fill="white"></path> <path d="M1978.09 26.4589C1978.09 28.0241 1977.53 29.3248 1976.38 30.361C1975.24 31.3972 1973.89 31.9262 1972.23 31.9262H1963.9V12.8125H1971.62C1973.22 12.8125 1974.56 13.3416 1975.66 14.3337C1976.79 15.3477 1977.33 16.6044 1977.33 18.1035C1977.33 19.779 1976.65 21.0576 1975.35 22.0056C1977.06 22.8875 1978.09 24.4747 1978.09 26.4589ZM1967.11 15.7667V20.7931H1971.64C1973.06 20.7931 1974.14 19.6908 1974.14 18.2799C1974.14 16.8689 1973.06 15.7667 1971.64 15.7667H1967.11ZM1972.25 28.9721C1973.73 28.9721 1974.9 27.8036 1974.9 26.3046C1974.9 24.8054 1973.73 23.637 1972.25 23.637H1967.11V28.9941H1972.25V28.9721Z" fill="white"></path> <path d="M1984.31 28.928H1992.93V31.9262H1981.12V12.8125H1992.8V15.8107H1984.31V20.771H1992.1V23.7472H1984.31V28.928Z" fill="white"></path> <path d="M2006.9 31.9262L2002.77 24.9597H1999V31.9262H1995.81V12.8125H2003.6C2005.35 12.8125 2006.83 13.4077 2008.02 14.6202C2009.24 15.7887 2009.87 17.2437 2009.87 18.9633C2009.87 21.3883 2008.32 23.6149 2006 24.4968L2010.43 31.9262H2006.9ZM1999 15.7666V22.1599H2003.58C2005.28 22.1599 2006.63 20.749 2006.63 18.9633C2006.63 17.1996 2005.26 15.7666 2003.58 15.7666H1999Z" fill="white"></path> <path d="M2023.95 31.9264L2019.84 24.9563H2016.06V31.9264H2012.88V12.8027H2020.67C2022.42 12.8027 2023.9 13.3983 2025.09 14.6115C2026.3 15.7805 2026.93 17.2362 2026.93 18.9567C2026.93 21.383 2025.38 23.6108 2023.07 24.4931L2027.49 31.9264H2023.95ZM2016.06 15.7584V22.155H2020.65C2022.35 22.155 2023.7 20.7433 2023.7 18.9567C2023.7 17.1922 2022.33 15.7584 2020.65 15.7584H2016.06Z" fill="white"></path> <path d="M2029.83 12.8042H2033.02V31.9257H2029.83V12.8042Z" fill="white"></path> <path d="M2039.98 28.928H2048.6V31.9262H2036.79V12.8125H2048.47V15.8107H2039.98V20.771H2047.77V23.7472H2039.98V28.928Z" fill="white"></path> <path d="M2050.83 27.5755L2053.59 25.9891C2054.38 28.1484 2055.97 29.2061 2058.42 29.2061C2060.84 29.2061 2062.03 28.1925 2062.03 26.6942C2062.03 25.901 2061.7 25.3281 2061.07 24.9314C2060.44 24.5128 2059.27 24.05 2057.61 23.5653C2055.75 23.0144 2054.82 22.6619 2053.52 21.8246C2052.26 20.9432 2051.64 19.6872 2051.64 17.9686C2051.64 16.2719 2052.24 14.9499 2053.48 13.9583C2054.69 12.9447 2056.17 12.46 2057.9 12.46C2061.02 12.46 2063.43 14.0464 2064.68 16.6685L2061.99 18.1889C2061.18 16.4262 2059.81 15.5227 2057.9 15.5227C2056.04 15.5227 2054.85 16.4482 2054.85 17.9024C2054.85 19.3127 2055.79 19.9737 2058.78 20.8771C2059.52 21.1195 2060.06 21.2958 2060.39 21.4279C2060.75 21.5382 2061.22 21.7365 2061.83 21.9788C2062.46 22.2212 2062.95 22.5077 2063.25 22.75C2064.28 23.5433 2065.38 24.8433 2065.24 26.6722C2065.24 28.3908 2064.62 29.779 2063.34 30.7926C2062.08 31.8062 2060.42 32.2909 2058.35 32.2909C2054.58 32.2689 2051.84 30.5061 2050.83 27.5755Z" fill="white"></path> <path d="M2604.58 3.85547C2605.05 4.46429 2605.45 5.12596 2605.76 5.82716L2596.79 12.4917L2593.04 10.1236V7.27445L2596.79 9.64254L2604.58 3.85547V3.85547Z" fill="white"></path> <path d="M2589.21 9.92373C2589.21 9.79572 2589.22 9.66875 2589.22 9.54178L2586.95 9.42822C2586.88 10.8138 2587.1 12.1989 2587.59 13.4932C2588.09 14.7875 2588.85 15.962 2589.82 16.9403L2591.43 15.3175C2590.73 14.6107 2590.17 13.7702 2589.79 12.8445C2589.41 11.9188 2589.21 10.9262 2589.21 9.92373V9.92373Z" fill="white"></path> <path d="M2596.79 2.29249C2596.91 2.29249 2597.04 2.29662 2597.17 2.30282L2597.28 0.0131763C2595.9 -0.0583926 2594.53 0.162175 2593.25 0.660611C2591.96 1.15905 2590.79 1.92425 2589.82 2.90671L2591.43 4.53052C2592.14 3.82021 2592.97 3.25691 2593.89 2.87288C2594.81 2.48884 2595.79 2.29162 2596.79 2.29249V2.29249Z" fill="white"></path> <path d="M2596.79 17.5539C2596.66 17.5539 2596.54 17.5508 2596.41 17.5436L2596.3 19.8332C2597.67 19.9048 2599.04 19.6842 2600.33 19.1858C2601.61 18.6873 2602.78 17.9221 2603.75 16.9397L2602.14 15.3169C2601.44 16.0268 2600.6 16.5897 2599.69 16.9736C2598.77 17.3574 2597.78 17.5546 2596.79 17.5539V17.5539Z" fill="white"></path> <path d="M2601.06 3.62388L2602.97 2.20137C2601.22 0.773422 2599.04 -0.00356092 2596.79 0.000504151V2.29221C2598.31 2.29023 2599.8 2.7545 2601.06 3.62388V3.62388Z" fill="white"></path> <path d="M2606.64 9.92215C2606.64 9.31516 2606.58 8.72159 2606.48 8.14453L2604.36 9.71776L2604.36 9.92112C2604.36 12.1612 2603.4 14.1794 2601.87 15.5771L2603.4 17.2804C2604.42 16.3522 2605.23 15.2174 2605.79 13.9496C2606.35 12.6819 2606.64 11.3096 2606.64 9.92215V9.92215Z" fill="white"></path> <path d="M2596.79 17.5532C2595.73 17.5538 2594.68 17.3305 2593.72 16.8975C2592.75 16.4645 2591.88 15.8316 2591.17 15.0396L2589.48 16.5797C2590.41 17.6098 2591.54 18.4327 2592.79 18.9953C2594.05 19.5579 2595.41 19.8477 2596.79 19.8459V17.5542V17.5532Z" fill="white"></path> <path d="M2591.71 4.26872L2590.18 2.56543C2589.16 3.49354 2588.34 4.62837 2587.78 5.89612C2587.22 7.16387 2586.94 8.53613 2586.94 9.92366H2589.21C2589.21 7.68357 2590.18 5.66543 2591.71 4.26872Z" fill="white"></path> <path d="M2643.53 5.82475L2646.16 3.87061H2637.36V15.5996H2646.16V13.6486H2639.87V10.6446H2645.24V8.69042H2639.87V5.82475H2643.53V5.82475ZM2630.71 8.44473H2627.65V5.82372H2632.54L2635.17 3.86958H2625.14V15.5986H2630.39C2633.33 15.5986 2635.02 14.2566 2635.02 11.9133C2635.02 9.67626 2633.49 8.44266 2630.71 8.44266V8.44473ZM2630.27 13.6486H2627.66V10.3978H2630.28C2631.87 10.3978 2632.61 10.9419 2632.61 12.0247C2632.61 13.1283 2631.82 13.6486 2630.28 13.6486H2630.27ZM2653.3 3.87061H2648.5V15.5996H2651.02V12.2766H2653.3C2656.36 12.2766 2658.26 10.6559 2658.26 8.06794C2658.26 5.47997 2656.36 3.87061 2653.3 3.87061V3.87061ZM2653.24 10.3256H2651.02V5.82475H2653.24C2654.85 5.82475 2655.74 6.62375 2655.74 8.0762C2655.74 9.52658 2654.85 10.3266 2653.24 10.3266V10.3256ZM2620.83 13.0601C2620.18 13.4194 2619.43 13.6073 2618.66 13.6073C2616.39 13.6073 2614.75 11.9773 2614.75 9.73407C2614.75 7.49088 2616.39 5.86088 2618.66 5.86088C2619.51 5.86088 2620.28 6.10451 2620.94 6.58246L2622.74 5.2446L2622.63 5.14137C2621.57 4.20817 2620.17 3.7168 2618.56 3.7168C2616.82 3.7168 2615.23 4.30934 2614.1 5.38396C2612.97 6.46581 2612.34 7.98845 2612.34 9.6711C2612.34 11.361 2612.97 12.9043 2614.1 14.0212C2615.23 15.1392 2616.81 15.7555 2618.54 15.7555C2620.35 15.7555 2621.94 15.1185 2623.01 13.9603C2622.18 13.3471 2621.38 12.7535 2621.38 12.7535L2620.83 13.0601H2620.83Z" fill="white"></path> <path d="M2623.64 24.0499L2619.89 30.2788H2618.85L2615.03 24.1366V32.8585H2612.95V21.1398H2615.58L2619.43 27.5174L2623.25 21.1398H2625.71V32.8585H2623.64V24.0499ZM2636 27.7827H2630.65V30.9291H2636.8V32.8544H2628.57V21.1367H2636.61V23.0609H2630.65V25.8574H2636V27.7827ZM2647 23.062H2641.18V32.8544H2639.1V21.1367H2647V23.0609L2647 23.062ZM2657.68 32.8544H2655.47L2654.36 30.0754H2649.03L2647.93 32.8544H2645.82L2650.54 21.1367H2652.9L2657.68 32.8533L2657.68 32.8544ZM2653.59 28.1502L2651.68 23.3448L2649.77 28.1502H2653.59ZM2673.44 24.0488L2669.7 30.2777H2668.65L2664.83 24.1355V32.8564H2662.75V21.1398H2665.38L2669.24 27.5163L2673.06 21.1398H2675.52V32.8564H2673.44V24.0488V24.0488ZM2688.84 32.8544H2686.64L2685.52 30.0754H2680.19L2679.09 32.8544H2676.98L2681.7 21.1367H2684.06L2688.84 32.8533L2688.84 32.8544ZM2684.76 28.1502L2682.85 23.3448L2680.94 28.1502H2684.76H2684.76ZM2692.4 29.2062V32.8585H2690.32V21.1398H2694.19C2696.03 21.1398 2697.37 21.4722 2698.19 22.135C2699.02 22.7977 2699.43 23.7908 2699.43 25.1049C2699.43 26.4778 2698.99 27.505 2698.1 28.1853C2697.21 28.8655 2695.91 29.2072 2694.19 29.2072H2692.4V29.2062ZM2692.4 23.0609V27.2789H2694.35C2695.32 27.2789 2696.05 27.1086 2696.54 26.77C2697.03 26.4283 2697.27 25.8574 2697.27 25.0533C2697.27 24.3296 2697.04 23.8145 2696.59 23.5131C2696.13 23.2116 2695.4 23.0609 2694.38 23.0609H2692.4ZM2703.63 32.8544H2701.55V21.1367H2703.63V26.0577H2705.38L2709.11 21.1367H2711.64L2707.2 26.7111L2712.36 32.8533H2709.7L2705.48 27.7827H2703.63V32.8544ZM2721.26 27.7827H2715.91V30.9291H2722.06V32.8544H2713.84V21.1367H2721.88V23.0609H2715.91V25.8574H2721.26V27.7827V27.7827ZM2733.01 23.062H2729.09V32.8544H2727.01V23.0609H2723.15V21.1367H2733.01V23.0609H2733.01V23.062Z" fill="white"></path> <path d="M977.361 3.85547C977.829 4.46429 978.225 5.12596 978.542 5.82716L969.567 12.4917L965.817 10.1236V7.27445L969.567 9.64254L977.361 3.85547V3.85547Z" fill="white"></path> <path d="M961.991 9.92373C961.991 9.79572 961.994 9.66875 962.001 9.54178L959.728 9.42822C959.658 10.8138 959.877 12.1989 960.372 13.4932C960.867 14.7875 961.626 15.962 962.601 16.9403L964.212 15.3175C963.508 14.6107 962.949 13.7702 962.568 12.8445C962.187 11.9188 961.991 10.9262 961.991 9.92373V9.92373Z" fill="white"></path> <path d="M969.566 2.29249C969.693 2.29249 969.818 2.29662 969.944 2.30282L970.057 0.0131763C968.683 -0.0583926 967.309 0.162175 966.025 0.660611C964.74 1.15905 963.574 1.92425 962.601 2.90671L964.212 4.53052C964.914 3.82021 965.749 3.25691 966.668 2.87288C967.587 2.48884 968.571 2.29162 969.566 2.29249V2.29249Z" fill="white"></path> <path d="M969.567 17.5539C969.44 17.5539 969.314 17.5508 969.189 17.5436L969.075 19.8332C970.449 19.9048 971.823 19.6842 973.108 19.1858C974.392 18.6873 975.559 17.9221 976.532 16.9397L974.921 15.3169C974.218 16.0268 973.383 16.5897 972.464 16.9736C971.546 17.3574 970.561 17.5546 969.567 17.5539V17.5539Z" fill="white"></path> <path d="M973.837 3.62388L975.752 2.20137C974.001 0.773422 971.817 -0.00356092 969.566 0.000504151V2.29221C971.09 2.29023 972.579 2.7545 973.837 3.62388V3.62388Z" fill="white"></path> <path d="M979.416 9.92215C979.416 9.31516 979.361 8.72159 979.257 8.14453L977.138 9.71776L977.141 9.92112C977.141 12.1612 976.177 14.1794 974.647 15.5771L976.175 17.2804C977.196 16.3522 978.013 15.2174 978.571 13.9496C979.129 12.6819 979.417 11.3096 979.416 9.92215V9.92215Z" fill="white"></path> <path d="M969.567 17.5532C968.509 17.5538 967.463 17.3305 966.496 16.8975C965.529 16.4645 964.663 15.8316 963.953 15.0396L962.263 16.5797C963.187 17.6098 964.314 18.4327 965.572 18.9953C966.83 19.5579 968.191 19.8477 969.567 19.8459V17.5542V17.5532Z" fill="white"></path> <path d="M964.486 4.26872L962.957 2.56543C961.936 3.49354 961.119 4.62837 960.561 5.89612C960.003 7.16387 959.715 8.53613 959.716 9.92366H961.991C961.991 7.68357 962.955 5.66543 964.486 4.26872Z" fill="white"></path> <path d="M1016.31 5.82475L1018.94 3.87061H1010.14V15.5996H1018.94V13.6486H1012.65V10.6446H1018.02V8.69042H1012.65V5.82475H1016.31V5.82475ZM1003.49 8.44473H1000.43V5.82372H1005.31L1007.95 3.86958H997.918V15.5986H1003.17C1006.11 15.5986 1007.79 14.2566 1007.79 11.9133C1007.79 9.67626 1006.27 8.44266 1003.49 8.44266V8.44473ZM1003.05 13.6486H1000.43V10.3978H1003.05C1004.65 10.3978 1005.39 10.9419 1005.39 12.0247C1005.39 13.1283 1004.6 13.6486 1003.05 13.6486H1003.05ZM1026.08 3.87061H1021.28V15.5996H1023.79V12.2766H1026.08C1029.14 12.2766 1031.04 10.6559 1031.04 8.06794C1031.04 5.47997 1029.13 3.87061 1026.08 3.87061V3.87061ZM1026.02 10.3256H1023.79V5.82475H1026.02C1027.63 5.82475 1028.52 6.62375 1028.52 8.0762C1028.52 9.52658 1027.63 10.3266 1026.02 10.3266V10.3256ZM993.606 13.0601C992.962 13.4194 992.212 13.6073 991.437 13.6073C989.172 13.6073 987.526 11.9773 987.526 9.73407C987.526 7.49088 989.169 5.86088 991.437 5.86088C992.293 5.86088 993.063 6.10451 993.721 6.58246L995.523 5.2446L995.405 5.14137C994.353 4.20817 992.948 3.7168 991.34 3.7168C989.595 3.7168 988.011 4.30934 986.883 5.38396C985.748 6.46581 985.12 7.98845 985.12 9.6711C985.12 11.361 985.744 12.9043 986.877 14.0212C988.011 15.1392 989.592 15.7555 991.322 15.7555C993.131 15.7555 994.716 15.1185 995.787 13.9603C994.959 13.3471 994.162 12.7535 994.162 12.7535L993.607 13.0601H993.606Z" fill="white"></path> <path d="M996.415 24.0499L992.673 30.2788H991.627L987.806 24.1366V32.8585H985.728V21.1398H988.355L992.21 27.5174L996.032 21.1398H998.492V32.8585H996.415V24.0499ZM1008.78 27.7827H1003.43V30.9291H1009.58V32.8544H1001.35V21.1367H1009.39V23.0609H1003.43V25.8574H1008.78V27.7827ZM1019.77 23.062H1013.96V32.8544H1011.88V21.1367H1019.78V23.0609L1019.77 23.062ZM1030.46 32.8544H1028.25L1027.14 30.0754H1021.8L1020.71 32.8544H1018.6L1023.32 21.1367H1025.67L1030.46 32.8533L1030.46 32.8544ZM1026.37 28.1502L1024.46 23.3448L1022.55 28.1502H1026.37ZM1046.22 24.0488L1042.48 30.2777H1041.43L1037.61 24.1355V32.8564H1035.53V21.1398H1038.16L1042.01 27.5163L1045.84 21.1398H1048.3V32.8564H1046.22V24.0488V24.0488ZM1061.62 32.8544H1059.41L1058.3 30.0754H1052.97L1051.87 32.8544H1049.76L1054.48 21.1367H1056.84L1061.62 32.8533L1061.62 32.8544ZM1057.54 28.1502L1055.63 23.3448L1053.71 28.1502H1057.54H1057.54ZM1065.18 29.2062V32.8585H1063.1V21.1398H1066.97C1068.81 21.1398 1070.15 21.4722 1070.97 22.135C1071.8 22.7977 1072.21 23.7908 1072.21 25.1049C1072.21 26.4778 1071.77 27.505 1070.88 28.1853C1069.99 28.8655 1068.69 29.2072 1066.97 29.2072H1065.18V29.2062ZM1065.18 23.0609V27.2789H1067.13C1068.1 27.2789 1068.83 27.1086 1069.32 26.77C1069.81 26.4283 1070.05 25.8574 1070.05 25.0533C1070.05 24.3296 1069.82 23.8145 1069.37 23.5131C1068.91 23.2116 1068.18 23.0609 1067.16 23.0609H1065.18ZM1076.41 32.8544H1074.33V21.1367H1076.41V26.0577H1078.15L1081.89 21.1367H1084.42L1079.98 26.7111L1085.13 32.8533H1082.48L1078.26 27.7827H1076.41V32.8544ZM1094.04 27.7827H1088.69V30.9291H1094.84V32.8544H1086.62V21.1367H1094.66V23.0609H1088.69V25.8574H1094.04V27.7827V27.7827ZM1105.79 23.062H1101.87V32.8544H1099.79V23.0609H1095.93V21.1367H1105.79V23.0609H1105.79V23.062Z" fill="white"></path> <path d="M534.863 25.1877C537.268 24.8904 539.21 23.0026 539.516 20.6646C539.964 17.2348 536.984 14.337 533.456 14.773C531.051 15.0702 529.11 16.958 528.804 19.296C528.355 22.7259 531.336 25.6237 534.863 25.1877ZM535.193 10.1856C539.931 10.6419 543.764 14.3685 544.234 18.9762C544.868 25.2021 539.53 30.3916 533.127 29.775C528.388 29.3187 524.555 25.5922 524.086 20.9848C523.451 14.7587 528.789 9.56914 535.193 10.1856ZM549.667 10.5751H564.489C565.051 10.5751 565.371 11.2014 565.031 11.6372L554.777 24.7905H562.811C564.276 24.7905 565.429 26.086 565.125 27.5623C564.902 28.6447 563.858 29.3841 562.722 29.3841H546.626C546.068 29.3841 545.751 28.7638 546.088 28.3319L556.35 15.1688H549.755C548.62 15.1688 547.576 14.4295 547.353 13.3469C547.049 11.8706 548.202 10.5751 549.667 10.5751ZM613.988 10.6275C615.517 10.3146 616.864 11.4402 616.864 12.8718V28.7217C616.864 29.2747 616.207 29.5832 615.762 29.2395L602.976 19.3771V27.0914C602.976 28.523 601.629 29.6484 600.1 29.3357C599.003 29.1114 598.251 28.1192 598.251 27.0303V11.2376C598.251 10.6846 598.908 10.3759 599.353 10.7196L612.14 20.5824L612.14 12.9329C612.14 11.8438 612.892 10.8518 613.988 10.6275ZM580.697 10.1358C588.525 10.1358 594.871 14.5423 594.871 19.9777C594.871 25.4131 588.525 29.8196 580.697 29.8196C572.869 29.8196 566.523 25.4131 566.523 19.9777C566.523 14.5423 572.869 10.1358 580.697 10.1358ZM580.697 14.7294C575.289 14.7294 571.248 17.5002 571.248 19.9777C571.248 22.4551 575.289 25.2259 580.697 25.2259C586.105 25.2259 590.146 22.4551 590.146 19.9777C590.146 17.5004 586.105 14.7294 580.697 14.7294Z" fill="white"></path> <path d="M2162.08 25.1877C2164.49 24.8904 2166.43 23.0026 2166.74 20.6646C2167.18 17.2348 2164.2 14.337 2160.68 14.773C2158.27 15.0702 2156.33 16.958 2156.03 19.296C2155.58 22.7259 2158.56 25.6237 2162.08 25.1877ZM2162.41 10.1856C2167.15 10.6419 2170.99 14.3685 2171.45 18.9762C2172.09 25.2021 2166.75 30.3916 2160.35 29.775C2155.61 29.3187 2151.78 25.5922 2151.31 20.9848C2150.67 14.7587 2156.01 9.56914 2162.41 10.1856ZM2176.89 10.5751H2191.71C2192.27 10.5751 2192.59 11.2014 2192.25 11.6372L2182 24.7905H2190.03C2191.5 24.7905 2192.65 26.086 2192.35 27.5623C2192.12 28.6447 2191.08 29.3841 2189.94 29.3841H2173.85C2173.29 29.3841 2172.97 28.7638 2173.31 28.3319L2183.57 15.1688H2176.98C2175.84 15.1688 2174.8 14.4295 2174.57 13.3469C2174.27 11.8706 2175.42 10.5751 2176.89 10.5751ZM2241.21 10.6275C2242.74 10.3146 2244.09 11.4402 2244.09 12.8718V28.7217C2244.09 29.2747 2243.43 29.5832 2242.98 29.2395L2230.2 19.3771V27.0914C2230.2 28.523 2228.85 29.6484 2227.32 29.3357C2226.22 29.1114 2225.47 28.1192 2225.47 27.0303V11.2376C2225.47 10.6846 2226.13 10.3759 2226.57 10.7196L2239.36 20.5824L2239.36 12.9329C2239.36 11.8438 2240.11 10.8518 2241.21 10.6275ZM2207.92 10.1358C2215.75 10.1358 2222.09 14.5423 2222.09 19.9777C2222.09 25.4131 2215.75 29.8196 2207.92 29.8196C2200.09 29.8196 2193.74 25.4131 2193.74 19.9777C2193.74 14.5423 2200.09 10.1358 2207.92 10.1358ZM2207.92 14.7294C2202.51 14.7294 2198.47 17.5002 2198.47 19.9777C2198.47 22.4551 2202.51 25.2259 2207.92 25.2259C2213.33 25.2259 2217.37 22.4551 2217.37 19.9777C2217.37 17.5004 2213.33 14.7294 2207.92 14.7294Z" fill="white"></path> </svg> 