<?xml version="1.0" encoding="UTF-8"?> <svg xmlns="http://www.w3.org/2000/svg" width="18" height="18" viewBox="0 0 18 18" fill="none"> <path fill-rule="evenodd" clip-rule="evenodd" d="M9 18C13.9706 18 18 13.9706 18 9C18 4.02944 13.9706 0 9 0C4.02944 0 0 4.02944 0 9C0 13.9706 4.02944 18 9 18ZM10.876 3.25488C10.7061 3.08496 10.498 3 10.2519 3C10.0059 3 9.79785 3.08496 9.62793 3.25488C9.458 3.4248 9.37304 3.63281 9.37304 3.87891C9.37304 4.11914 9.458 4.32715 9.62793 4.50293C9.80371 4.67285 10.0117 4.75781 10.2519 4.75781C10.4922 4.75781 10.6973 4.67285 10.8672 4.50293C11.043 4.32715 11.1309 4.11914 11.1309 3.87891C11.1309 3.63281 11.0459 3.4248 10.876 3.25488ZM8.62597 12.6504L10.3662 6.48926L7.33398 6.98145V7.32422C7.73828 7.25977 8.00488 7.22754 8.13379 7.22754C8.29199 7.22754 8.41504 7.26855 8.50293 7.35059C8.59668 7.43262 8.64355 7.53809 8.64355 7.66699C8.64355 7.83105 8.5498 8.23535 8.3623 8.87988L7.21972 12.8174C7.07324 13.3213 7 13.6816 7 13.8984C7 14.1152 7.07617 14.2969 7.22851 14.4434C7.38086 14.584 7.57715 14.6543 7.81738 14.6543C8.18066 14.6543 8.56152 14.499 8.95996 14.1885C9.49902 13.7725 9.96777 13.2598 10.3662 12.6504L10.0586 12.4482C9.71875 12.9346 9.38183 13.3096 9.04785 13.5732C8.9248 13.667 8.81933 13.7139 8.73144 13.7139C8.65527 13.7139 8.58789 13.6846 8.52929 13.626C8.47656 13.5674 8.45019 13.4912 8.45019 13.3975C8.45019 13.3154 8.50879 13.0664 8.62597 12.6504Z" fill="#C4C4C4"></path> </svg> 