<?xml version="1.0" encoding="UTF-8"?> <!-- Generator: Adobe Illustrator 25.2.0, SVG Export Plug-In . SVG Version: 6.00 Build 0) --> <svg xmlns="http://www.w3.org/2000/svg" xmlns:xlink="http://www.w3.org/1999/xlink" id="Layer_1" x="0px" y="0px" viewBox="0 0 213 213" style="enable-background:new 0 0 213 213;" xml:space="preserve"> <style type="text/css"> .st0{fill:#7D2670;} </style> <path class="st0" d="M166.5,100.2c-6.2,0-11.8-3.2-15.1-8.1c-3.3,4.9-8.9,8.1-15.1,8.1s-11.7-3.2-15-8.2c-3.3,4.9-8.9,8.1-15.1,8.1 S94.5,97,91.2,92c-3.3,4.9-8.9,8.1-15.1,8.1S64.3,97,61.1,92c-3.3,4.9-8.9,8.1-15.1,8.1c-10,0-18.1-8.1-18.1-18.1 c0-0.6,0-1.2,0.1-1.6c0.1-0.7,0.3-1.3,0.8-1.8l20.9-22c0.6-0.6,1.4-0.9,2.2-0.9H161c0.8,0,1.6,0.4,2.2,1l20.6,22.4 c0.5,0.5,0.7,1.2,0.8,1.9v0.2c0,0.3,0,0.5,0,0.8C184.6,92,176.5,100.2,166.5,100.2z M151.2,82.2h0.6c1.4,0,2.7,1,2.9,2.4 c1.2,5.6,6.1,9.6,11.8,9.6c6.5,0,11.9-5.2,12.1-11.7l-18.9-20.6H53.2L33.9,82c0,0,0,0,0,0.1c0,6.7,5.4,12.1,12.1,12.1 c5.7,0,10.7-4,11.8-9.6c0.3-1.4,1.5-2.4,2.9-2.4h0.6c1.4,0,2.6,1,2.9,2.4c1.2,5.6,6.1,9.6,11.8,9.6c5.7,0,10.7-4,11.8-9.6 c0.3-1.4,1.5-2.4,2.9-2.4h0.6c1.4,0,2.6,1,2.9,2.4c1.2,5.6,6.1,9.6,11.8,9.6s10.7-4,11.8-9.6c0.3-1.4,1.5-2.4,2.9-2.4h0.6 c1.4,0,2.7,1,2.9,2.4c1.2,5.6,6.1,9.6,11.8,9.6s10.7-4,11.8-9.6C148.5,83.2,149.7,82.2,151.2,82.2z"></path> <path class="st0" d="M161,51.6H51.9c-1.7,0-3-1.3-3-3v-3.3c0-4.9,4-8.9,8.9-8.9H155c4.9,0,8.9,4,8.9,8.9v3.3 C164,50.3,162.6,51.6,161,51.6z M54.9,45.6H158v-0.3c0-1.6-1.3-2.9-2.9-2.9H57.8c-1.6,0-2.9,1.3-2.9,2.9 C54.9,45.3,54.9,45.6,54.9,45.6z"></path> <path class="st0" d="M156.6,180.2H56.3c-4.1,0-7.4-3.3-7.4-7.4v-68.1c0-1.7,1.3-3,3-3h10.4c1.7,0,3,1.3,3,3v30.4h82.2v-30.4 c0-1.7,1.3-3,3-3H161c1.7,0,3,1.3,3,3v68.1C164,176.9,160.7,180.2,156.6,180.2z M54.9,107.7v65.1c0,0.8,0.6,1.4,1.4,1.4h100.3 c0.8,0,1.4-0.6,1.4-1.4v-65.1h-4.4v30.4c0,1.7-1.3,3-3,3H62.3c-1.7,0-3-1.3-3-3v-30.4C59.3,107.7,54.9,107.7,54.9,107.7z"></path> <path class="st0" d="M106.5,213C47.8,213,0,165.2,0,106.5S47.8,0,106.5,0S213,47.8,213,106.5S165.2,213,106.5,213z M106.5,6 C51.1,6,6,51.1,6,106.5S51.1,207,106.5,207S207,161.9,207,106.5S161.9,6,106.5,6z"></path> </svg> 