<?xml version="1.0" encoding="UTF-8"?> <!-- Generator: Adobe Illustrator 25.2.0, SVG Export Plug-In . SVG Version: 6.00 Build 0) --> <svg xmlns="http://www.w3.org/2000/svg" xmlns:xlink="http://www.w3.org/1999/xlink" id="Layer_1" x="0px" y="0px" viewBox="0 0 213 213" style="enable-background:new 0 0 213 213;" xml:space="preserve"> <style type="text/css"> .st0{fill:#7D2670;} </style> <path class="st0" d="M106.8,213.3c-58.7,0-106.5-47.8-106.5-106.5S48.1,0.3,106.8,0.3s106.5,47.8,106.5,106.5 S165.5,213.3,106.8,213.3z M106.8,6.3C51.4,6.3,6.3,51.4,6.3,106.8c0,55.4,45.1,100.5,100.5,100.5c55.4,0,100.5-45.1,100.5-100.5 C207.3,51.4,162.2,6.3,106.8,6.3z"></path> <path class="st0" d="M106.3,82.4c-13.3,0-24.1-10.8-24.1-24.1S93,34.1,106.3,34.1c13.3,0,24.1,10.8,24.1,24.1S119.6,82.4,106.3,82.4 z M106.3,40.1c-10,0-18.1,8.1-18.1,18.1s8.1,18.1,18.1,18.1s18.1-8.1,18.1-18.1S116.3,40.1,106.3,40.1z"></path> <path class="st0" d="M106.8,152.7c-4.2,0-7.6-3.4-7.6-7.6s3.4-7.6,7.6-7.6c4.2,0,7.6,3.4,7.6,7.6S111,152.7,106.8,152.7z M106.8,143.6c-0.9,0-1.6,0.7-1.6,1.6s0.7,1.6,1.6,1.6c0.9,0,1.6-0.7,1.6-1.6S107.7,143.6,106.8,143.6z"></path> <path class="st0" d="M149.1,110.8h-4.6c-6.2-15.3-21-25.4-37.6-25.4c-16.7,0-31.7,10.1-37.9,25.4h-4.6c-6.6,0-12,5.4-12,12v44.8 c0,6.6,5.4,12,12,12h84.6c6.6,0,12-5.4,12-12v-44.8C161.1,116.2,155.7,110.8,149.1,110.8z M106.9,91.4c13.3,0,25.2,7.6,31,19.4H75.7 C81.4,99,93.5,91.4,106.9,91.4z M155.1,167.5c0,3.3-2.7,6-6,6H64.5c-3.3,0-6-2.7-6-6v-44.8c0-3.3,2.7-6,6-6h6.6h71.3h6.7 c3.3,0,6,2.7,6,6V167.5z"></path> </svg> 