<?xml version="1.0" encoding="UTF-8"?> <svg xmlns="http://www.w3.org/2000/svg" width="41" height="40" viewBox="0 0 41 40" fill="none"> <path d="M20.1197 0C14.6194 0 9.55326 2.1712 5.9346 5.78985C2.31594 9.40851 0 14.4746 0 19.975C0 25.4754 2.1712 30.5415 5.9346 34.1601C9.55326 37.7788 14.6194 39.95 20.1197 39.95C25.6201 39.95 30.6862 37.7788 34.3049 34.1601C37.9235 30.5415 40.2395 25.4754 40.2395 19.975C40.0947 8.97428 31.1205 0 20.1197 0ZM20.1197 4.0529C24.6069 4.0529 28.3703 7.67156 28.3703 12.3034C28.3703 16.7906 24.7516 20.554 20.1197 20.554C15.6326 20.554 11.8692 16.9353 11.8692 12.3034C11.8692 7.67156 15.6326 4.0529 20.1197 4.0529ZM28.0808 31.8442C29.094 32.7127 29.094 34.3049 28.0808 35.3181C27.2123 36.1866 25.6201 36.1866 24.6069 35.3181L20.1197 30.6862L15.6326 35.1734C15.1984 35.6076 14.4746 35.8971 13.8957 35.8971C13.3167 35.8971 12.5929 35.6076 12.1587 35.1734C11.2902 34.3049 11.2902 32.7127 12.1587 31.6995L16.7906 27.0676C15.0536 26.6333 13.4614 26.0543 12.0139 25.0411C10.856 24.3174 10.5665 22.8699 11.2902 21.712C12.0139 20.554 13.4614 20.2645 14.6194 20.9882C17.9486 23.1594 22.2909 23.1594 25.6201 20.9882C26.7781 20.2645 28.2255 20.554 28.9493 21.712C29.673 22.8699 29.3835 24.3174 28.2255 25.0411C26.7781 25.9096 25.1859 26.6333 23.4489 27.0676C23.4489 27.2123 28.0808 31.8442 28.0808 31.8442Z" fill="white"></path> <path d="M20.1198 15.6325C22.0015 15.6325 23.5937 14.0403 23.5937 12.3034C23.5937 10.4217 22.0015 8.82947 20.1198 8.82947C18.2381 8.82947 16.6458 10.4217 16.6458 12.3034C16.6458 14.1851 18.2381 15.6325 20.1198 15.6325Z" fill="white"></path> </svg> 