<?xml version="1.0" encoding="UTF-8"?> <!-- Generator: Adobe Illustrator 25.2.0, SVG Export Plug-In . SVG Version: 6.00 Build 0) --> <svg xmlns="http://www.w3.org/2000/svg" xmlns:xlink="http://www.w3.org/1999/xlink" id="Layer_1" x="0px" y="0px" viewBox="0 0 213 213" style="enable-background:new 0 0 213 213;" xml:space="preserve"> <style type="text/css"> .st0{fill:#7D2670;} </style> <path class="st0" d="M106.8,213.3c-58.7,0-106.5-47.8-106.5-106.5S48.1,0.3,106.8,0.3s106.5,47.8,106.5,106.5 S165.5,213.3,106.8,213.3z M106.8,6.3C51.4,6.3,6.3,51.4,6.3,106.8c0,55.4,45.1,100.5,100.5,100.5c55.4,0,100.5-45.1,100.5-100.5 C207.3,51.4,162.2,6.3,106.8,6.3z"></path> <path class="st0" d="M131.1,129.4l-2.6-36.6c-0.3-3.9-3.5-6.9-7.4-6.9h-0.4v-7.4c0-7.6-6.2-13.8-13.8-13.8 c-7.6,0-13.8,6.2-13.8,13.8v7.4h-0.4c-3.9,0-7.1,3-7.4,6.9l-2.6,36.6c-0.1,2,0.6,4.1,2,5.6c1.4,1.5,3.4,2.4,5.4,2.4h33.7 c2,0,4-0.9,5.4-2.4C130.5,133.4,131.2,131.4,131.1,129.4z M99,78.5c0-4.3,3.5-7.8,7.8-7.8c4.3,0,7.8,3.5,7.8,7.8v7.4H99V78.5z M124.7,130.8c-0.2,0.2-0.5,0.4-1,0.4H90c-0.5,0-0.9-0.3-1-0.4c-0.2-0.2-0.4-0.5-0.4-1.1l2.6-36.6c0.1-0.7,0.7-1.3,1.4-1.3h28.5 c0.7,0,1.3,0.6,1.4,1.3l2.6,36.6C125.1,130.3,124.9,130.7,124.7,130.8z"></path> <path class="st0" d="M168.7,49.9H45c-3.9,0-7.2,3.2-7.2,7.2v90.4c0,3.9,3.2,7.2,7.2,7.2h44.2v5.6h-2.9c-9.7,0-17.5,7.9-17.5,17.5 c0,1.7,1.3,3,3,3h70c1.7,0,3-1.3,3-3c0-9.7-7.9-17.5-17.5-17.5h-2.9v-5.6h44.2c3.9,0,7.1-3.2,7.1-7.2V57.1 C175.8,53.1,172.6,49.9,168.7,49.9z M138.5,174.8H75.2c1.3-4.9,5.8-8.5,11.1-8.5h5.9h29.2h5.9C132.6,166.3,137.1,169.9,138.5,174.8z M118.4,160.3H95.2v-5.6h23.2V160.3z M169.8,147.5c0,0.6-0.5,1.2-1.1,1.2h-47.2H92.2H45c-0.6,0-1.2-0.5-1.2-1.2V57.1 c0-0.6,0.5-1.2,1.2-1.2h123.6c0.6,0,1.1,0.5,1.1,1.2V147.5z"></path> </svg> 