<?xml version="1.0" encoding="UTF-8"?> <svg xmlns="http://www.w3.org/2000/svg" width="40" height="40" viewBox="0 0 40 40" fill="none"> <path d="M20 0C9 0 0 9 0 20C0 31 9 40 20 40C31 40 40 31 40 20C40 9 31 0 20 0ZM28.1429 26.1429C25 29.7143 19.8571 30.4286 15.8571 28.1429L10 30.4286C9.57143 30.5714 9.14286 30.1429 9.42857 29.7143L12.1429 24.2857C10 20.5714 10.5714 15.7143 13.8571 12.4286C17.7143 8.42857 24.2857 8.57143 28.1429 12.8571C31.5714 16.5714 31.5714 22.4286 28.1429 26.1429ZM26.1429 23C26.1429 23.1429 26 23.1429 26 23.2857C25.8571 23.4286 25.7143 23.8571 25.2857 24C25.1429 24.1429 24.7143 24.1429 24.5714 24.2857H24.4286C22.7143 24.2857 21.2857 23.7143 19.7143 22.7143C18.4286 21.8571 17.5714 20.7143 16.8571 19.1429C16.5714 18.2857 16.1429 17.2857 16 16.4286C16 16.1429 16 15.7143 16 15.4286C16 15.2857 16 14.8571 16.1429 14.7143C16.2857 14.5714 16.7143 14.4286 16.8571 14C17.4286 13.4286 18.1429 13.4286 18.7143 14C18.8571 14.1429 19 14.5714 19.2857 14.7143C19.4286 15.2857 19.4286 15.5714 19.5714 16C19.5714 16.5714 19.5714 16.8571 19.2857 17.1429C19.1429 17.2857 19 17.4286 19 17.4286C19 17.4286 19 17.4286 19 17.5714C19.5714 19.4286 20.7143 20.5714 22.5714 21.1429H22.7143C22.8571 21 22.8571 21 23 20.8571C23.2857 20.5714 23.8571 20.2857 24.2857 20.5714C24.5714 20.7143 25.1429 20.7143 25.4286 20.8571C26 21.2857 26.5714 22.4286 26.1429 23Z" fill="white"></path> </svg> 