<?xml version="1.0" encoding="UTF-8"?> <svg xmlns="http://www.w3.org/2000/svg" width="40" height="40" viewBox="0 0 40 40" fill="none"> <path d="M20 0C14.5324 0 9.4964 2.17391 5.89928 5.7971C2.30216 9.42029 0 14.4928 0 20C0 25.5072 2.15827 30.5797 5.89928 34.2029C9.4964 37.8261 14.5324 40 20 40C25.4676 40 30.5036 37.8261 34.1007 34.2029C37.6978 30.5797 40 25.5072 40 20C39.8561 8.98551 30.9353 0 20 0ZM30.6475 24.058C32.8058 26.087 33.3813 27.1014 33.3813 27.2464C34.2446 28.8406 32.3741 28.8406 32.3741 28.8406H28.6331C28.6331 28.8406 27.7698 28.9855 26.7626 28.2609C25.3237 27.2464 24.0288 24.7826 23.0216 25.2174C22.0144 25.5072 22.0144 27.8261 22.0144 27.8261C22.0144 27.8261 22.0144 28.2609 21.7266 28.5507C21.4389 28.8406 21.0072 28.8406 21.0072 28.8406H19.4245C19.4245 28.8406 15.8273 29.1304 12.518 25.6522C9.06475 22.029 5.89928 14.6377 5.89928 14.6377C5.89928 14.6377 5.7554 14.2029 5.89928 13.913C6.18705 13.6232 6.76259 13.6232 6.76259 13.6232H10.6475C10.6475 13.6232 11.0791 13.6232 11.223 13.913C11.5108 14.058 11.5108 14.3478 11.5108 14.3478C11.5108 14.3478 12.0863 15.942 12.9496 17.3913C14.5324 20.2899 15.3957 20.8696 15.9712 20.5797C16.8345 20.1449 16.5468 16.5217 16.5468 16.5217C16.5468 16.5217 16.5468 15.2174 16.1151 14.6377C15.8273 14.2029 15.1079 14.058 14.8201 14.058C14.5324 14.058 14.964 13.4783 15.3957 13.3333C16.1151 13.0435 17.4101 12.8986 18.8489 13.0435C20 13.0435 20.2878 13.1884 20.7194 13.1884C22.0144 13.4783 21.5827 14.7826 21.5827 17.8261C21.5827 18.8406 21.4388 20.1449 22.1583 20.5797C22.446 20.7246 23.1655 20.5797 25.036 17.3913C25.8993 15.942 26.6187 14.058 26.6187 14.058C26.6187 14.058 26.7626 13.7681 27.0504 13.6232C27.3381 13.4783 27.6259 13.4783 27.6259 13.4783H31.7986C31.7986 13.4783 33.0935 13.3333 33.2374 13.913C33.3813 14.4928 32.8058 15.942 31.0791 18.1159C28.6331 22.1739 28.3453 21.8841 30.6475 24.058Z" fill="white"></path> </svg> 