<?xml version="1.0" encoding="UTF-8"?> <svg xmlns="http://www.w3.org/2000/svg" width="40" height="40" viewBox="0 0 40 40" fill="none"> <path d="M20 16.087C17.8261 16.087 16.087 17.8261 16.087 20C16.087 22.1739 17.8261 23.913 20 23.913C22.1739 23.913 23.913 22.1739 23.913 20C23.913 17.8261 22.1739 16.087 20 16.087ZM20 16.087C17.8261 16.087 16.087 17.8261 16.087 20C16.087 22.1739 17.8261 23.913 20 23.913C22.1739 23.913 23.913 22.1739 23.913 20C23.913 17.8261 22.1739 16.087 20 16.087ZM26.6667 9.56522H13.3333C11.1594 9.56522 9.42029 11.3043 9.42029 13.4783V26.8116C9.42029 28.9855 11.1594 30.7246 13.3333 30.7246H26.6667C28.8406 30.7246 30.5797 28.9855 30.5797 26.8116V13.4783C30.4348 11.3043 28.6957 9.56522 26.6667 9.56522ZM20 26.9565C16.2319 26.9565 13.0435 23.913 13.0435 20C13.0435 16.2319 16.087 13.0435 20 13.0435C23.7681 13.0435 26.9565 16.087 26.9565 20C26.9565 23.7681 23.7681 26.9565 20 26.9565ZM27.1014 14.4928C26.2319 14.4928 25.5072 13.7681 25.5072 12.8986C25.5072 12.029 26.2319 11.3043 27.1014 11.3043C27.971 11.3043 28.6957 12.029 28.6957 12.8986C28.6957 13.7681 27.971 14.4928 27.1014 14.4928ZM20 16.087C17.8261 16.087 16.087 17.8261 16.087 20C16.087 22.1739 17.8261 23.913 20 23.913C22.1739 23.913 23.913 22.1739 23.913 20C23.913 17.8261 22.1739 16.087 20 16.087ZM26.6667 9.56522H13.3333C11.1594 9.56522 9.42029 11.3043 9.42029 13.4783V26.8116C9.42029 28.9855 11.1594 30.7246 13.3333 30.7246H26.6667C28.8406 30.7246 30.5797 28.9855 30.5797 26.8116V13.4783C30.4348 11.3043 28.6957 9.56522 26.6667 9.56522ZM20 26.9565C16.2319 26.9565 13.0435 23.913 13.0435 20C13.0435 16.2319 16.087 13.0435 20 13.0435C23.7681 13.0435 26.9565 16.087 26.9565 20C26.9565 23.7681 23.7681 26.9565 20 26.9565ZM27.1014 14.4928C26.2319 14.4928 25.5072 13.7681 25.5072 12.8986C25.5072 12.029 26.2319 11.3043 27.1014 11.3043C27.971 11.3043 28.6957 12.029 28.6957 12.8986C28.6957 13.7681 27.971 14.4928 27.1014 14.4928ZM20 16.087C17.8261 16.087 16.087 17.8261 16.087 20C16.087 22.1739 17.8261 23.913 20 23.913C22.1739 23.913 23.913 22.1739 23.913 20C23.913 17.8261 22.1739 16.087 20 16.087ZM0 20C0 31.0145 8.98551 40 20 40C31.0145 40 40 31.0145 40 20C40 8.98551 31.0145 0 20 0C8.98551 0 0 8.98551 0 20ZM33.3333 26.6667C33.3333 30.4348 30.2899 33.4783 26.5217 33.4783H13.1884C9.42029 33.4783 6.37681 30.4348 6.37681 26.6667V13.3333C6.37681 9.56522 9.42029 6.52174 13.1884 6.52174H26.5217C30.2899 6.52174 33.3333 9.56522 33.3333 13.3333V26.6667ZM26.6667 9.56522H13.3333C11.1594 9.56522 9.42029 11.3043 9.42029 13.4783V26.8116C9.42029 28.9855 11.1594 30.7246 13.3333 30.7246H26.6667C28.8406 30.7246 30.5797 28.9855 30.5797 26.8116V13.4783C30.4348 11.3043 28.6957 9.56522 26.6667 9.56522ZM20 26.9565C16.2319 26.9565 13.0435 23.913 13.0435 20C13.0435 16.2319 16.087 13.0435 20 13.0435C23.7681 13.0435 26.9565 16.087 26.9565 20C26.9565 23.7681 23.7681 26.9565 20 26.9565ZM27.1014 14.4928C26.2319 14.4928 25.5072 13.7681 25.5072 12.8986C25.5072 12.029 26.2319 11.3043 27.1014 11.3043C27.971 11.3043 28.6957 12.029 28.6957 12.8986C28.6957 13.7681 27.971 14.4928 27.1014 14.4928ZM20 16.087C17.8261 16.087 16.087 17.8261 16.087 20C16.087 22.1739 17.8261 23.913 20 23.913C22.1739 23.913 23.913 22.1739 23.913 20C23.913 17.8261 22.1739 16.087 20 16.087ZM20 16.087C17.8261 16.087 16.087 17.8261 16.087 20C16.087 22.1739 17.8261 23.913 20 23.913C22.1739 23.913 23.913 22.1739 23.913 20C23.913 17.8261 22.1739 16.087 20 16.087ZM20 16.087C17.8261 16.087 16.087 17.8261 16.087 20C16.087 22.1739 17.8261 23.913 20 23.913C22.1739 23.913 23.913 22.1739 23.913 20C23.913 17.8261 22.1739 16.087 20 16.087ZM26.6667 9.56522H13.3333C11.1594 9.56522 9.42029 11.3043 9.42029 13.4783V26.8116C9.42029 28.9855 11.1594 30.7246 13.3333 30.7246H26.6667C28.8406 30.7246 30.5797 28.9855 30.5797 26.8116V13.4783C30.4348 11.3043 28.6957 9.56522 26.6667 9.56522ZM20 26.9565C16.2319 26.9565 13.0435 23.913 13.0435 20C13.0435 16.2319 16.087 13.0435 20 13.0435C23.7681 13.0435 26.9565 16.087 26.9565 20C26.9565 23.7681 23.7681 26.9565 20 26.9565ZM27.1014 14.4928C26.2319 14.4928 25.5072 13.7681 25.5072 12.8986C25.5072 12.029 26.2319 11.3043 27.1014 11.3043C27.971 11.3043 28.6957 12.029 28.6957 12.8986C28.6957 13.7681 27.971 14.4928 27.1014 14.4928ZM20 16.087C17.8261 16.087 16.087 17.8261 16.087 20C16.087 22.1739 17.8261 23.913 20 23.913C22.1739 23.913 23.913 22.1739 23.913 20C23.913 17.8261 22.1739 16.087 20 16.087ZM20 16.087C17.8261 16.087 16.087 17.8261 16.087 20C16.087 22.1739 17.8261 23.913 20 23.913C22.1739 23.913 23.913 22.1739 23.913 20C23.913 17.8261 22.1739 16.087 20 16.087ZM20 16.087C17.8261 16.087 16.087 17.8261 16.087 20C16.087 22.1739 17.8261 23.913 20 23.913C22.1739 23.913 23.913 22.1739 23.913 20C23.913 17.8261 22.1739 16.087 20 16.087ZM26.6667 9.56522H13.3333C11.1594 9.56522 9.42029 11.3043 9.42029 13.4783V26.8116C9.42029 28.9855 11.1594 30.7246 13.3333 30.7246H26.6667C28.8406 30.7246 30.5797 28.9855 30.5797 26.8116V13.4783C30.4348 11.3043 28.6957 9.56522 26.6667 9.56522ZM20 26.9565C16.2319 26.9565 13.0435 23.913 13.0435 20C13.0435 16.2319 16.087 13.0435 20 13.0435C23.7681 13.0435 26.9565 16.087 26.9565 20C26.9565 23.7681 23.7681 26.9565 20 26.9565ZM27.1014 14.4928C26.2319 14.4928 25.5072 13.7681 25.5072 12.8986C25.5072 12.029 26.2319 11.3043 27.1014 11.3043C27.971 11.3043 28.6957 12.029 28.6957 12.8986C28.6957 13.7681 27.971 14.4928 27.1014 14.4928ZM20 16.087C17.8261 16.087 16.087 17.8261 16.087 20C16.087 22.1739 17.8261 23.913 20 23.913C22.1739 23.913 23.913 22.1739 23.913 20C23.913 17.8261 22.1739 16.087 20 16.087Z" fill="white"></path> </svg> 