<?xml version="1.0" encoding="UTF-8"?> <svg xmlns="http://www.w3.org/2000/svg" width="509" height="1022" viewBox="0 0 509 1022" fill="none"> <g clip-path="url(#clip0)"> <path fill-rule="evenodd" clip-rule="evenodd" d="M-1.64746 1021.17L508.94 510.587L-1.64746 0V1021.17Z" fill="#BA3D94"></path> <path d="M305.293 306.941L305.293 510.587L407.116 408.764L305.293 306.941Z" fill="#ED218C"></path> <path d="M305.293 510.587V306.94L203.47 408.764L305.293 510.587Z" fill="#7D2670"></path> <path fill-rule="evenodd" clip-rule="evenodd" d="M188.621 801.208L174.479 787.066L276.302 685.243L290.444 699.385L188.621 801.208ZM159.63 772.217L145.488 758.075L247.311 656.252L261.453 670.394L159.63 772.217ZM116.496 729.084L130.638 743.226L232.462 641.402L218.32 627.26L116.496 729.084Z" fill="#7D2670"></path> <path d="M407.117 612.411L305.293 510.587L406.941 510.411L407.117 612.411Z" fill="#7D2670"></path> <rect x="50.7349" y="866.969" width="101.823" height="101.823" transform="rotate(90 50.7349 866.969)" fill="#7D2670"></rect> <path fill-rule="evenodd" clip-rule="evenodd" d="M203.696 815.785L101.912 714C74.412 742.998 74.2474 788.16 101.892 815.804C129.537 843.449 174.699 843.285 203.696 815.785Z" fill="#7D2670"></path> <path fill-rule="evenodd" clip-rule="evenodd" d="M-0.000178468 815.912L101.785 917.697C129.284 888.699 129.449 843.537 101.804 815.892C74.1592 788.248 28.9974 788.412 -0.000178468 815.912Z" fill="#7D2670"></path> <circle cx="228.926" cy="561.499" r="18" transform="rotate(-135 228.926 561.499)" fill="#7D2670"></circle> <circle cx="254.382" cy="536.043" r="18" transform="rotate(-135 254.382 536.043)" fill="#7D2670"></circle> <circle cx="203.47" cy="536.043" r="18" transform="rotate(-135 203.47 536.043)" fill="#7D2670"></circle> <circle cx="228.926" cy="510.588" r="18" transform="rotate(-135 228.926 510.588)" fill="#7D2670"></circle> <circle cx="178.015" cy="510.588" r="18" transform="rotate(-135 178.015 510.588)" fill="#7D2670"></circle> <circle cx="203.47" cy="485.132" r="18" transform="rotate(-135 203.47 485.132)" fill="#7D2670"></circle> <circle cx="152.559" cy="485.132" r="18" transform="rotate(-135 152.559 485.132)" fill="#7D2670"></circle> <circle cx="178.015" cy="459.676" r="18" transform="rotate(-135 178.015 459.676)" fill="#7D2670"></circle> <path fill-rule="evenodd" clip-rule="evenodd" d="M0.823606 816.647L102.647 714.823L0.823606 613L-101 714.823L0.823606 816.647ZM25.5723 739.572V688.66L-25.3394 688.66L-25.3394 739.572L25.5723 739.572Z" fill="#7D2670"></path> <path fill-rule="evenodd" clip-rule="evenodd" d="M101.647 510.587L-0.176758 408.764L-102 510.587L-0.176758 612.41L101.647 510.587ZM-42.6032 553.013C-19.1717 576.445 18.8182 576.445 42.2497 553.013C65.6811 529.582 65.6811 491.592 42.2496 468.161C18.8182 444.729 -19.1717 444.729 -42.6032 468.161C-66.0346 491.592 -66.0346 529.582 -42.6032 553.013Z" fill="#2978A1"></path> <path fill-rule="evenodd" clip-rule="evenodd" d="M50.436 256.05C78.5537 284.168 124.142 284.168 152.259 256.05C180.377 227.932 180.377 182.344 152.259 154.227C124.142 126.109 78.5537 126.109 50.436 154.227C22.3182 182.344 22.3182 227.932 50.436 256.05ZM75.8918 230.594C89.9507 244.653 112.745 244.653 126.803 230.594C140.862 216.535 140.862 193.741 126.803 179.682C112.745 165.624 89.9507 165.624 75.8918 179.682C61.8329 193.741 61.8329 216.535 75.8918 230.594Z" fill="#2978A1"></path> <path fill-rule="evenodd" clip-rule="evenodd" d="M-15.0259 393.915L-29.168 379.773L72.6554 277.95L86.7975 292.092L-15.0259 393.915ZM-44.0173 364.924L-58.1594 350.782L43.664 248.958L57.8061 263.1L-44.0173 364.924ZM-87.1508 321.79L-73.0086 335.932L28.8148 234.109L14.6726 219.967L-87.1508 321.79Z" fill="#7D2670"></path> <path fill-rule="evenodd" clip-rule="evenodd" d="M101.647 103.294L-0.176758 1.4707L-51.4396 52.7335L-102 103.294L-51.0884 154.206L-0.176758 205.117L50.3838 154.557L101.647 103.294ZM50.3838 154.557L-51.0884 154.206L-51.4396 52.7335L50.0327 53.0846L50.3838 154.557Z" fill="#7D2670"></path> <rect x="203.47" y="205.117" width="72" height="72" transform="rotate(45 203.47 205.117)" fill="#7D2670"></rect> <rect x="203.47" y="306.94" width="72" height="72" transform="rotate(45 203.47 306.94)" fill="#7D2670"></rect> <path fill-rule="evenodd" clip-rule="evenodd" d="M254.382 561.499C226.264 589.617 226.264 635.205 254.382 663.323C282.499 691.441 328.087 691.441 356.205 663.323C384.323 635.205 384.323 589.617 356.205 561.499C328.087 533.382 282.499 533.382 254.382 561.499ZM279.837 586.955C265.779 601.014 265.779 623.808 279.837 637.867C293.896 651.926 316.69 651.926 330.749 637.867C344.808 623.808 344.808 601.014 330.749 586.955C316.69 572.896 293.896 572.896 279.837 586.955Z" fill="#7D2670"></path> <path fill-rule="evenodd" clip-rule="evenodd" d="M101.646 510.587L203.47 408.764L101.646 306.94L-0.177006 408.764L101.646 510.587ZM59.2199 366.337C35.7885 389.769 35.7885 427.759 59.2199 451.19C82.6514 474.622 120.641 474.622 144.073 451.19C167.504 427.759 167.504 389.769 144.073 366.337C120.641 342.906 82.6514 342.906 59.2199 366.337Z" fill="#7D2670"></path> <rect x="50.7349" y="561.499" width="101.823" height="101.823" fill="#7D2670"></rect> <circle r="36" transform="matrix(0.707107 0.707107 0.707107 -0.707107 101.647 612.411)" fill="#ED218C"></circle> </g> <defs> <clipPath id="clip0"> <rect width="509" height="1022" fill="white"></rect> </clipPath> </defs> </svg> 