<?xml version="1.0" encoding="UTF-8"?> <svg xmlns="http://www.w3.org/2000/svg" width="40" height="40" viewBox="0 0 40 40" fill="none"> <path d="M20 0C9 0 0 9 0 20C0 30.8571 8.71429 39.5714 19.4286 40V25.2857H14.8571C14.4286 25.2857 14.1429 25 14.1429 24.5714V19.5714C14.1429 19.1429 14.4286 18.8571 14.8571 18.8571H19.4286V13.5714C19.4286 9.71429 22.5714 6.57143 26.4286 6.57143H31.1429C31.5714 6.57143 31.8571 6.85714 31.8571 7.28571V11.5714C31.8571 12 31.5714 12.2857 31.1429 12.2857H27.8571C26.5714 12.2857 25.5714 13.2857 25.5714 14.5714V19H31C31.4286 19 31.7143 19.4286 31.7143 19.7143L31 24.7143C31 25 30.7143 25.2857 30.2857 25.2857H25.7143V39.2857C34 36.8571 40 29.1429 40 20.1429C40 9 31 0 20 0Z" fill="white"></path> </svg> 