<?xml version="1.0" encoding="UTF-8"?> <!-- Generator: Adobe Illustrator 25.2.0, SVG Export Plug-In . SVG Version: 6.00 Build 0) --> <svg xmlns="http://www.w3.org/2000/svg" xmlns:xlink="http://www.w3.org/1999/xlink" id="Layer_1" x="0px" y="0px" viewBox="0 0 213 213" style="enable-background:new 0 0 213 213;" xml:space="preserve"> <style type="text/css"> .st0{fill:#7D2670;} </style> <path class="st0" d="M106.8,213.3c-58.7,0-106.5-47.8-106.5-106.5S48.1,0.3,106.8,0.3s106.5,47.8,106.5,106.5 S165.5,213.3,106.8,213.3z M106.8,6.3C51.4,6.3,6.3,51.4,6.3,106.8c0,55.4,45.1,100.5,100.5,100.5c55.4,0,100.5-45.1,100.5-100.5 C207.3,51.4,162.2,6.3,106.8,6.3z"></path> <path class="st0" d="M101,109.5H37.4c-1.7,0-3,1.3-3,3v13.4c0,1.7,1.3,3,3,3h1.9v28.5c0,1.7,1.3,3,3,3h53.8c1.7,0,3-1.3,3-3v-28.5 h1.9c1.7,0,3-1.3,3-3v-13.4C104,110.8,102.7,109.5,101,109.5z M40.4,115.5H98v7.4h-1.9H42.3h-1.9V115.5z M93.1,154.4H45.3v-25.5 h47.8V154.4z"></path> <path class="st0" d="M176.3,109.5h-63.7c-1.7,0-3,1.3-3,3v13.4c0,1.7,1.3,3,3,3h1.9v28.5c0,1.7,1.3,3,3,3h53.8c1.7,0,3-1.3,3-3 v-28.5h1.9c1.7,0,3-1.3,3-3v-13.4C179.3,110.8,178,109.5,176.3,109.5z M115.6,115.5h57.7v7.4h-1.9h-53.8h-1.9V115.5z M168.3,154.4 h-47.8v-25.5h47.8V154.4z"></path> <path class="st0" d="M138.7,53.3H75c-1.7,0-3,1.3-3,3v13.4c0,1.7,1.3,3,3,3h1.9v28.5c0,1.7,1.3,3,3,3h53.8c1.7,0,3-1.3,3-3V72.7h1.9 c1.7,0,3-1.3,3-3V56.3C141.7,54.6,140.3,53.3,138.7,53.3z M78,59.3h57.7v7.4h-1.9H79.9H78V59.3z M130.7,98.2H82.9V72.7h47.8V98.2z"></path> </svg> 