<?xml version="1.0" encoding="UTF-8"?> <!-- Generator: Adobe Illustrator 25.2.0, SVG Export Plug-In . SVG Version: 6.00 Build 0) --> <svg xmlns="http://www.w3.org/2000/svg" xmlns:xlink="http://www.w3.org/1999/xlink" id="Layer_1" x="0px" y="0px" viewBox="0 0 1680 140" style="enable-background:new 0 0 1680 140;" xml:space="preserve"> <style type="text/css"> .st0{fill:#BA3D94;} .st1{fill:#7D2670;} .st2{fill-rule:evenodd;clip-rule:evenodd;fill:#7D2670;} .st3{fill:#ED218C;} .st4{fill-rule:evenodd;clip-rule:evenodd;fill:#2978A1;} </style> <rect y="0" class="st0" width="1680" height="140"></rect> <circle class="st1" cx="70" cy="70" r="70"></circle> <path class="st2" d="M1474.3,140h25.8c15.4-11,28.9-24.5,39.9-39.9V74.3C1525.2,102.2,1502.2,125.2,1474.3,140z M1441,140 c47.6-13.9,85.1-51.4,99-99V0l-7.8,0c0,73-59.2,132.2-132.2,132.2l0,0v7.8H1441z M1518.6,0c0,65.5-53.1,118.6-118.6,118.6l0,0V105 l0,0c58,0,105-47,105-105L1518.6,0z M1400,91.4c50.5,0,91.4-40.9,91.4-91.4l-13.6,0c0,43-34.8,77.8-77.8,77.8V91.4z M1464.2,0 c0,35.4-28.7,64.2-64.2,64.2V50.6l0,0c27.9,0,50.6-22.6,50.6-50.6c0,0,0,0,0,0L1464.2,0z M1400,36.9L1400,36.9 c20.4,0,36.9-16.5,36.9-36.9l-13.6,0c0,12.9-10.4,23.3-23.3,23.3l0,0V36.9z"></path> <path class="st2" d="M1120,140h140V0l-70,0l-70,0v69.5V140z M1120,69.5L1190,0l70,69.5l-70,69.5L1120,69.5z"></path> <path class="st2" d="M140,70l70,70l70-70L210,0L140,70z M210,105c-19.3,0-35-15.7-35-35c0-19.3,15.7-35,35-35s35,15.7,35,35 C245,89.3,229.3,105,210,105z"></path> <circle class="st3" cx="1277.5" cy="52.5" r="17.5"></circle> <circle class="st3" cx="1277.5" cy="87.5" r="17.5"></circle> <circle class="st3" cx="1312.5" cy="52.5" r="17.5"></circle> <circle class="st3" cx="1312.5" cy="87.5" r="17.5"></circle> <circle class="st3" cx="1347.5" cy="52.5" r="17.5"></circle> <circle class="st3" cx="1347.5" cy="87.5" r="17.5"></circle> <circle class="st3" cx="1382.5" cy="52.5" r="17.5"></circle> <circle class="st3" cx="1382.5" cy="87.5" r="17.5"></circle> <path class="st2" d="M700,140V0L560,0v140H700z M612.5,105c-9.6,0-17.5,7.8-17.5,17.5c0-9.6-7.8-17.5-17.5-17.5 c9.6,0,17.5-7.8,17.5-17.5C595,97.2,602.8,105,612.5,105z M560,87.5c0,9.7,7.8,17.5,17.5,17.5c-9.7,0-17.5,7.8-17.5,17.5 c0,9.7,7.8,17.5,17.5,17.5c9.7,0,17.5-7.8,17.5-17.5c0,9.7,7.8,17.5,17.5,17.5c9.7,0,17.5-7.8,17.5-17.5c0-9.7-7.8-17.5-17.5-17.5 c9.7,0,17.5-7.8,17.5-17.5c0-9.6-7.8-17.4-17.4-17.5c9.6-0.1,17.4-7.9,17.4-17.5c0-9.7-7.8-17.5-17.5-17.5 c-9.7,0-17.5,7.8-17.5,17.5c0-9.7-7.8-17.5-17.5-17.5c-9.7,0-17.5,7.8-17.5,17.5c0,9.6,7.8,17.4,17.4,17.5 C567.8,70.1,560,77.9,560,87.5z M612.4,70c-9.6,0.1-17.4,7.9-17.4,17.5c0-9.6-7.8-17.4-17.4-17.5c9.6-0.1,17.4-7.9,17.4-17.5 C595,62.1,602.8,69.9,612.4,70z M612.5,35c-9.7,0-17.5-7.8-17.5-17.5c0,9.7-7.8,17.5-17.5,17.5c-9.7,0-17.5-7.8-17.5-17.5 C560,7.8,567.8,0,577.5,0c9.7,0,17.5,7.8,17.5,17.5C595,7.8,602.8,0,612.5,0c9.7,0,17.5,7.8,17.5,17.5C630,27.2,622.2,35,612.5,35z"></path> <circle class="st3" cx="682.5" cy="17.5" r="17.5"></circle> <circle class="st3" cx="647.5" cy="17.5" r="17.5"></circle> <circle class="st3" cx="682.5" cy="52.5" r="17.5"></circle> <circle class="st3" cx="647.5" cy="52.5" r="17.5"></circle> <circle class="st3" cx="682.5" cy="87.5" r="17.5"></circle> <circle class="st3" cx="647.5" cy="87.5" r="17.5"></circle> <circle class="st3" cx="682.5" cy="122.5" r="17.5"></circle> <circle class="st3" cx="647.5" cy="122.5" r="17.5"></circle> <path class="st2" d="M560,119.6v-19.4H420v19.4H560z M560,20.4v19.4H420V20.4H560z M560,60.3v19.4H420V60.3H560z"></path> <path class="st4" d="M980,70c0,38.7,31.3,70,70,70c38.7,0,70-31.3,70-70c0-38.7-31.3-70-70-70C1011.3,0,980,31.3,980,70z M1015,70 c0,19.3,15.7,35,35,35s35-15.7,35-35s-15.7-35-35-35S1015,50.7,1015,70z"></path> <path class="st2" d="M840,20.4v19.4h140V20.4H840z M840,79.7V60.3h140v19.4H840z M840,119.6v-19.4h140v19.4L840,119.6z"></path> <path class="st1" d="M1540,140V0l70,70L1540,140z"></path> <path class="st1" d="M1680,0v140l-70-70L1680,0z"></path> <rect x="720.6" y="20.5" transform="matrix(0.7071 -0.7071 0.7071 0.7071 176.0549 565.0341)" class="st1" width="99" height="99"></rect> <rect x="350" y="0" class="st1" width="70" height="70"></rect> <rect x="280" y="70" class="st1" width="70" height="70"></rect> </svg> 