<?xml version="1.0" encoding="UTF-8"?> <svg xmlns="http://www.w3.org/2000/svg" width="42" height="42" viewBox="0 0 42 42" fill="none"> <g opacity="0.7"> <path d="M21 42C9.40656 42 0 32.5635 0 21C0 9.43652 9.40656 0 21 0C32.5934 0 42 9.40656 42 21C42 32.5934 32.5635 42 21 42ZM21 1.79743C10.4251 1.79743 1.79743 10.4251 1.79743 21C1.79743 31.5749 10.4251 40.2026 21 40.2026C31.5749 40.2026 40.2026 31.5749 40.2026 21C40.2026 10.4251 31.5749 1.79743 21 1.79743Z" fill="white"></path> <path d="M21 20.2511C17.1056 20.2511 13.9301 17.0756 13.9301 13.1812C13.9301 9.28673 17.1056 6.11127 21 6.11127C24.8945 6.11127 28.0699 9.28673 28.0699 13.1812C28.0699 17.0756 24.8945 20.2511 21 20.2511ZM21 7.9087C18.0942 7.9087 15.7275 10.2753 15.7275 13.1812C15.7275 16.087 18.0942 18.4536 21 18.4536C23.9059 18.4536 26.2725 16.087 26.2725 13.1812C26.2725 10.2753 23.9059 7.9087 21 7.9087Z" fill="white"></path> <path d="M30.1969 33.3723C30.0171 33.3723 14.0799 33.3723 11.8031 33.3723C10.3053 33.3723 8.92726 32.5934 8.23824 31.3352C7.54922 30.107 7.66905 28.6391 8.50785 27.3209C10.6947 23.9058 14.739 22.2582 20.8203 22.2582C20.9401 22.2582 21.0899 22.2582 21.2097 22.2582C27.291 22.2582 31.3352 23.9058 33.5221 27.3209C34.3609 28.6391 34.4508 30.077 33.7917 31.3352C33.0728 32.5934 31.7247 33.3723 30.1969 33.3723ZM17.5849 31.5749C23.0371 31.5749 30.1969 31.5749 30.1969 31.5749C31.0357 31.5749 31.8146 31.1255 32.174 30.4665C32.5335 29.8074 32.4437 29.0585 31.9643 28.3095C30.077 25.3737 26.602 24.0556 21 24.0556C15.3681 24.0257 11.8631 25.3737 10.0057 28.3095C9.5264 29.0585 9.46649 29.8373 9.79601 30.4665C10.1555 31.1255 10.9344 31.5749 11.7732 31.5749C12.5521 31.5749 14.8588 31.5749 17.5849 31.5749Z" fill="white"></path> </g> </svg> 