<?xml version="1.0" encoding="UTF-8"?> <svg xmlns="http://www.w3.org/2000/svg" width="42" height="42" viewBox="0 0 42 42" fill="none"> <g opacity="0.7"> <path d="M21 42C9.40656 42 0 32.5635 0 21C0 9.43652 9.40656 0 21 0C32.5934 0 42 9.40656 42 21C42 32.5934 32.5635 42 21 42ZM21 1.79743C10.4251 1.79743 1.79743 10.4251 1.79743 21C1.79743 31.5749 10.4251 40.2026 21 40.2026C31.5749 40.2026 40.2026 31.5749 40.2026 21C40.2026 10.4251 31.5749 1.79743 21 1.79743Z" fill="white"></path> <path d="M19.5321 36.1883C18.3638 36.1883 17.3153 35.7689 16.5663 34.99C15.0086 33.3424 14.8887 30.4365 16.2967 27.0214C16.5364 26.4223 16.8659 25.6733 17.2554 24.7746C18.4536 21.9586 21.2996 15.398 20.97 14.1997C20.8802 13.9601 20.7903 13.9301 20.6705 13.9001C19.8017 13.7504 17.9144 14.8887 16.9558 16.117C16.6562 16.5064 16.087 16.5663 15.6976 16.2668C15.3081 15.9672 15.2482 15.398 15.5478 15.0086C16.6562 13.6006 19.1427 11.8331 21 12.1327C21.8388 12.2825 22.4379 12.8217 22.7076 13.6305C23.1869 15.0984 21.8088 18.7832 18.933 25.4636C18.5435 26.3324 18.214 27.1113 18.0043 27.6805C16.9258 30.3167 16.8959 32.6534 17.9144 33.7318C18.5735 34.4508 19.7118 34.5706 21.0599 34.0913C23.6962 33.1626 25.1041 31.4551 25.1341 31.4551C25.4337 31.0656 26.0029 31.0057 26.3923 31.3352C26.7817 31.6348 26.8417 32.204 26.5121 32.5934C26.4522 32.6833 24.7746 34.7204 21.6591 35.7989C20.8802 36.0685 20.1912 36.1883 19.5321 36.1883Z" fill="white"></path> <path d="M23.2768 11.8331C21.5393 11.8331 20.1013 10.4251 20.1013 8.65764C20.1013 6.89017 21.5093 5.48218 23.2768 5.48218C25.0443 5.48218 26.4522 6.89017 26.4522 8.65764C26.4522 10.4251 25.0143 11.8331 23.2768 11.8331ZM23.2768 7.27961C22.5279 7.27961 21.8988 7.87875 21.8988 8.65764C21.8988 9.43653 22.4979 10.0357 23.2768 10.0357C24.0557 10.0357 24.6548 9.43653 24.6548 8.65764C24.6548 7.87875 24.0257 7.27961 23.2768 7.27961Z" fill="white"></path> </g> </svg> 