<?xml version="1.0" encoding="UTF-8"?> <svg xmlns="http://www.w3.org/2000/svg" width="509" height="1018" viewBox="0 0 509 1018" fill="none"> <g clip-path="url(#clip0)"> <path d="M509 -0.116874L-0.116699 509L509 1018.12V-0.116874Z" fill="#BA3D94"></path> <path d="M203.53 509L101.707 610.824L101.707 509L203.53 509Z" fill="#7D2670"></path> <path d="M-0.116823 509L101.707 407.177V509L-0.116823 509Z" fill="#2978A1"></path> <path d="M407.176 712.647L305.353 610.823L407 610.647L407.176 712.647Z" fill="#7D2670"></path> <path fill-rule="evenodd" clip-rule="evenodd" d="M149.476 359.407L130.736 378.147C127.559 397.359 127.559 416.994 130.736 436.206L149.476 454.947C139.979 423.86 139.979 390.494 149.476 359.407ZM173.733 335.15C149.226 379.885 149.226 434.468 173.733 479.203L203.53 509L209.187 503.343C156.075 450.232 156.075 364.122 209.187 311.01L203.53 305.353L173.733 335.15ZM219.086 320.91C171.442 368.554 171.442 445.8 219.086 493.444L228.985 483.544C186.809 441.368 186.809 372.986 228.986 330.809L219.086 320.91ZM238.885 340.709C202.176 377.418 202.176 436.936 238.885 473.645L248.784 463.745C217.543 432.503 217.543 381.85 248.784 350.608L238.885 340.709ZM258.684 360.508C232.909 386.282 232.909 428.071 258.684 453.846L268.583 443.946C248.276 423.639 248.276 390.714 268.583 370.407L258.684 360.508ZM278.483 380.307C263.643 395.147 263.643 419.207 278.483 434.047L288.382 424.147C279.01 414.775 279.01 399.579 288.382 390.206L278.483 380.307Z" fill="#7D2670"></path> <path fill-rule="evenodd" clip-rule="evenodd" d="M116.556 595.974L130.698 581.832L232.521 683.655L218.379 697.798L116.556 595.974ZM145.547 566.983L159.689 552.841L261.513 654.664L247.37 668.806L145.547 566.983ZM188.681 523.849L174.538 537.991L276.362 639.815L290.504 625.673L188.681 523.849Z" fill="#7D2670"></path> <path fill-rule="evenodd" clip-rule="evenodd" d="M305.353 407.177L407.176 305.353C378.179 277.854 333.008 277.698 305.353 305.353C277.698 333.009 277.854 378.179 305.353 407.177Z" fill="#7D2670"></path> <path fill-rule="evenodd" clip-rule="evenodd" d="M407.177 712.647L305.353 814.47C334.351 841.969 379.521 842.126 407.177 814.47C434.832 786.815 434.676 741.645 407.177 712.647Z" fill="#ED218C"></path> <path fill-rule="evenodd" clip-rule="evenodd" d="M407.177 916.294L509 814.47C480.002 786.971 434.832 786.815 407.177 814.47C379.522 842.125 379.678 887.296 407.177 916.294Z" fill="#7D2670"></path> <path fill-rule="evenodd" clip-rule="evenodd" d="M407.176 101.706L305.353 203.53L356.616 254.793L407.176 305.353L458.088 254.441L509 203.53L458.439 152.969L407.176 101.706ZM458.439 152.969L458.088 254.441L356.616 254.793L356.967 153.32L458.439 152.969Z" fill="#7D2670"></path> <rect x="305.353" y="407.177" width="72" height="72" transform="rotate(-45 305.353 407.177)" fill="#7D2670"></rect> <rect x="407.176" y="407.177" width="72" height="72" transform="rotate(-45 407.176 407.177)" fill="#7D2670"></rect> <rect x="305.353" y="407.177" width="144" height="144" transform="rotate(45 305.353 407.177)" fill="#ED218C"></rect> <path fill-rule="evenodd" clip-rule="evenodd" d="M254.441 559.912C282.559 588.03 328.147 588.03 356.265 559.912C384.383 531.794 384.382 486.206 356.265 458.088C328.147 429.971 282.559 429.971 254.441 458.088C226.324 486.206 226.324 531.794 254.441 559.912ZM279.897 534.456C293.956 548.515 316.75 548.515 330.809 534.456C344.868 520.397 344.868 497.603 330.809 483.544C316.75 469.485 293.956 469.485 279.897 483.544C265.838 497.603 265.838 520.397 279.897 534.456Z" fill="#7D2670"></path> <path fill-rule="evenodd" clip-rule="evenodd" d="M556.77 862.24L538.03 843.5C518.818 840.323 499.182 840.323 479.97 843.5L461.23 862.24C492.317 852.743 525.683 852.743 556.77 862.24ZM581.026 886.497C536.292 861.991 481.708 861.991 436.974 886.497L407.177 916.294L412.833 921.951C465.945 868.839 552.055 868.839 605.167 921.951L610.823 916.294L581.026 886.497ZM595.267 931.85C547.623 884.206 470.377 884.206 422.733 931.85L432.632 941.75C474.809 899.573 543.191 899.573 585.368 941.75L595.267 931.85ZM575.468 951.649C538.759 914.94 479.241 914.94 442.532 951.649L452.431 961.549C483.673 930.307 534.327 930.307 565.569 961.549L575.468 951.649ZM555.669 971.448C529.894 945.674 488.106 945.674 462.331 971.448L472.23 981.348C492.538 961.04 525.462 961.04 545.77 981.348L555.669 971.448ZM535.87 991.247C521.03 976.407 496.97 976.407 482.13 991.247L492.029 1001.15C501.402 991.774 516.598 991.774 525.971 1001.15L535.87 991.247Z" fill="#7D2670"></path> <path fill-rule="evenodd" clip-rule="evenodd" d="M458.088 254.442L458.088 356.265L559.912 356.265L559.912 254.442L458.088 254.442ZM483.544 279.898C497.603 265.839 520.397 265.839 534.456 279.898C548.515 293.957 548.515 316.75 534.456 330.809C520.397 344.868 497.603 344.868 483.544 330.809C469.485 316.75 469.485 293.957 483.544 279.898Z" fill="#7D2670"></path> <path fill-rule="evenodd" clip-rule="evenodd" d="M523.849 422.026L537.991 436.168L436.168 537.991L422.026 523.849L523.849 422.026ZM552.84 451.017L566.983 465.159L465.159 566.983L451.017 552.841L552.84 451.017ZM595.974 494.151L581.832 480.009L480.009 581.832L494.151 595.974L595.974 494.151Z" fill="#7D2670"></path> <path fill-rule="evenodd" clip-rule="evenodd" d="M509 610.823L407.177 712.646L509 814.47L610.823 712.646L509 610.823ZM484.251 687.898V738.809H535.163V687.898H484.251Z" fill="#7D2670"></path> <rect x="280.604" y="738.81" width="50.9117" height="50.9117" transform="rotate(-90 280.604 738.81)" fill="#7D2670"></rect> <path fill-rule="evenodd" clip-rule="evenodd" d="M559.912 152.618C588.03 124.5 588.03 78.9126 559.912 50.7949C531.794 22.6771 486.206 22.6771 458.088 50.7949C429.971 78.9126 429.971 124.5 458.088 152.618C486.206 180.736 531.794 180.736 559.912 152.618ZM534.456 127.162C548.515 113.104 548.515 90.3096 534.456 76.2507C520.397 62.1918 497.603 62.1918 483.544 76.2507C469.485 90.3096 469.485 113.104 483.544 127.162C497.603 141.221 520.397 141.221 534.456 127.162Z" fill="#2978A1"></path> </g> <defs> <clipPath id="clip0"> <rect width="509" height="1018" fill="white"></rect> </clipPath> </defs> </svg> 