<?xml version="1.0" encoding="UTF-8"?> <svg xmlns="http://www.w3.org/2000/svg" width="131" height="125" viewBox="0 0 131 125" fill="none"> <path fill-rule="evenodd" clip-rule="evenodd" d="M65.1874 21.3383C68.9391 21.3383 72.0656 24.3866 72.0656 28.2166C72.0656 32.0466 69.0173 35.0949 65.1874 35.0949C61.3574 35.0949 58.3091 32.0466 58.3091 28.2166C58.3091 24.3866 61.4356 21.3383 65.1874 21.3383Z" fill="white"></path> <path opacity="0.95" fill-rule="evenodd" clip-rule="evenodd" d="M46.8192 26.497C50.4147 26.497 53.3067 29.389 53.3067 32.9845C53.3067 36.5799 50.4147 39.5501 46.8192 39.5501C43.2237 39.5501 40.3317 36.6581 40.3317 32.9845C40.3317 29.4672 43.2237 26.497 46.8192 26.497Z" fill="white"></path> <path opacity="0.88" fill-rule="evenodd" clip-rule="evenodd" d="M33.7661 39.3938C37.1271 39.3938 39.9409 42.1295 39.9409 45.5686C39.9409 49.0078 37.2053 51.7434 33.7661 51.7434C30.327 51.7434 27.5913 49.0078 27.5913 45.5686C27.5913 42.1295 30.327 39.3938 33.7661 39.3938Z" fill="white"></path> <path opacity="0.84" fill-rule="evenodd" clip-rule="evenodd" d="M28.2166 56.1987C31.4212 56.1987 34.0006 58.778 34.0006 61.9827C34.0006 65.1873 31.4212 67.7667 28.2166 67.7667C25.0119 67.7667 22.4326 65.1873 22.4326 61.9827C22.4326 58.778 25.0119 56.1987 28.2166 56.1987Z" fill="white"></path> <path opacity="0.8" fill-rule="evenodd" clip-rule="evenodd" d="M30.4833 73.0817C33.4535 73.0817 35.8765 75.5048 35.8765 78.5531C35.8765 81.5233 33.4535 84.0245 30.4833 84.0245C27.435 84.0245 25.0119 81.6014 25.0119 78.5531C25.0119 75.5048 27.435 73.0817 30.4833 73.0817Z" fill="white"></path> <path opacity="0.77" fill-rule="evenodd" clip-rule="evenodd" d="M39.2375 86.8383C42.0513 86.8383 44.318 89.105 44.318 91.9188C44.318 94.7327 42.0513 96.9994 39.2375 96.9994C36.4236 96.9994 34.1569 94.7327 34.1569 91.9188C34.1569 89.105 36.4236 86.8383 39.2375 86.8383Z" fill="white"></path> <path opacity="0.73" fill-rule="evenodd" clip-rule="evenodd" d="M51.9779 95.4362C54.5573 95.4362 56.6677 97.5465 56.6677 100.204C56.6677 102.783 54.5573 104.972 51.9779 104.972C49.3204 104.972 47.2882 102.862 47.2882 100.204C47.2882 97.4684 49.3986 95.4362 51.9779 95.4362Z" fill="white"></path> <path opacity="0.69" fill-rule="evenodd" clip-rule="evenodd" d="M66.4379 98.1718C68.861 98.1718 70.815 100.126 70.815 102.549C70.815 104.972 68.861 106.926 66.4379 106.926C64.0149 106.926 62.0609 104.972 62.0609 102.549C62.0609 100.126 64.0149 98.1718 66.4379 98.1718Z" fill="white"></path> <path opacity="0.65" fill-rule="evenodd" clip-rule="evenodd" d="M79.96 95.4362C82.2267 95.4362 84.0245 97.2339 84.0245 99.5006C84.0245 101.689 82.2267 103.487 79.96 103.487C77.7715 103.487 75.9737 101.689 75.9737 99.5006C75.9737 97.2339 77.7715 95.4362 79.96 95.4362Z" fill="white"></path> <path opacity="0.61" fill-rule="evenodd" clip-rule="evenodd" d="M90.9809 88.4797C93.0131 88.4797 94.6545 90.1211 94.6545 92.1533C94.6545 94.1856 93.0131 95.827 90.9809 95.827C88.9487 95.827 87.3073 94.1856 87.3073 92.1533C87.3073 90.1211 88.9487 88.4797 90.9809 88.4797Z" fill="white"></path> <path opacity="0.58" fill-rule="evenodd" clip-rule="evenodd" d="M98.4063 78.7094C100.204 78.7094 101.689 80.1945 101.689 82.0704C101.689 83.8681 100.204 85.3532 98.4063 85.3532C96.5304 85.3532 95.0453 83.8681 95.0453 82.0704C95.1235 80.1945 96.6086 78.7094 98.4063 78.7094Z" fill="white"></path> <path opacity="0.54" fill-rule="evenodd" clip-rule="evenodd" d="M101.924 67.8449C103.565 67.8449 104.894 69.1736 104.894 70.815C104.894 72.4564 103.565 73.7852 101.924 73.7852C100.282 73.7852 98.9535 72.4564 98.9535 70.815C98.9535 69.1736 100.282 67.8449 101.924 67.8449Z" fill="white"></path> <path opacity="0.5" fill-rule="evenodd" clip-rule="evenodd" d="M101.924 57.0585C103.331 57.0585 104.503 58.2309 104.503 59.6378C104.503 61.0447 103.331 62.2172 101.924 62.2172C100.517 62.2172 99.3443 61.0447 99.3443 59.6378C99.2661 58.2309 100.439 57.0585 101.924 57.0585Z" fill="white"></path> <path d="M66.2035 71.3622H61.0447L58.1527 60.185C58.0746 59.7942 57.8401 58.9344 57.6056 57.6838C57.3711 56.4332 57.2148 55.5734 57.1366 55.1826C57.0585 55.7297 56.9021 56.5895 56.6677 57.7619C56.4332 58.9344 56.2768 59.716 56.1205 60.2631L53.2285 71.4403H48.0698L42.8329 50.0239H47.2882L50.0239 61.6701C50.4928 63.7804 50.8836 65.6563 51.04 67.2196C51.1181 66.6724 51.1963 65.8127 51.4308 64.6402C51.6653 63.4678 51.8216 62.608 52.0561 61.9045L55.1826 49.9457H59.4815L62.608 61.9045C62.7643 62.4517 62.9206 63.2333 63.077 64.3276C63.3114 65.4218 63.4678 66.3598 63.5459 67.1414C63.6241 66.3598 63.7804 65.4218 64.0149 64.3276C64.2494 63.1551 64.4057 62.2954 64.562 61.5919L67.2196 50.0239H71.6748L66.2035 71.3622ZM74.3323 50.0239H80.9761C84.0245 50.0239 86.213 50.4928 87.5418 51.3526C88.8705 52.2124 89.574 53.6193 89.574 55.4171C89.574 56.7458 89.2613 57.7619 88.7142 58.5436C88.0889 59.3252 87.3073 59.8723 86.2912 60.0286V60.185C87.6199 60.4976 88.636 61.0448 89.2613 61.9045C89.8866 62.6862 90.1211 63.7804 90.1211 65.1874C90.1211 67.1414 89.4177 68.6265 88.0107 69.7208C86.6038 70.815 84.6498 71.3622 82.3049 71.3622H74.3323V50.0239ZM78.8657 58.4654H81.5233C82.7739 58.4654 83.6336 58.3091 84.1808 57.9183C84.7279 57.5275 84.9624 56.9022 84.9624 56.0424C84.9624 55.1826 84.6498 54.6354 84.1026 54.2446C83.4773 53.932 82.5394 53.6975 81.2888 53.6975H78.8657V58.4654ZM78.8657 62.0609V67.6104H81.8359C83.0865 67.6104 84.0245 67.3759 84.5716 66.9069C85.1969 66.438 85.4314 65.7345 85.4314 64.7184C85.4314 62.9207 84.1808 62.0609 81.6796 62.0609H78.8657Z" fill="white"></path> <path d="M57.2148 85.8222H54.7918V80.9761H50.3365V85.8222H47.9135V74.5668H50.3365V78.9439H54.7918V74.5668H57.2148V85.8222ZM66.5161 85.8222H60.0286V74.5668H66.5161V76.5209H62.4517V79.0221H66.2816V80.9761H62.4517V83.8681H66.5161V85.8222ZM68.9391 85.8222V74.5668H71.3622V83.8681H75.9737V85.8222H68.9391ZM80.1945 79.8037H80.9761C81.7578 79.8037 82.3049 79.6474 82.6175 79.3347C83.0083 79.0221 83.1647 78.6313 83.1647 78.0841C83.1647 77.537 83.0084 77.1462 82.6957 76.8335C82.3831 76.599 81.9141 76.4427 81.2888 76.4427H80.1945V79.8037ZM85.5877 78.006C85.5877 79.2566 85.1969 80.1163 84.4153 80.8198C83.6336 81.4451 82.5394 81.7578 81.2106 81.7578H80.1945V85.744H77.7715V74.5668H81.3669C82.7739 74.5668 83.79 74.8795 84.4934 75.4266C85.1969 75.9737 85.5877 76.9117 85.5877 78.006Z" fill="white"></path> <path d="M97.6247 48.7733H97.9374C98.1718 48.7733 98.25 48.6951 98.4063 48.6169C98.4845 48.5388 98.5626 48.3824 98.5626 48.3043C98.5626 48.148 98.4845 47.9916 98.4063 47.9135C98.3282 47.8353 98.1718 47.8353 97.9374 47.8353H97.6247V48.7733ZM99.0316 48.2261C99.0316 48.3824 98.9535 48.5388 98.8753 48.6951C98.7971 48.8514 98.6408 48.9296 98.4845 49.0077L99.2661 50.3365H98.719L98.0155 49.1641H97.5465V50.3365H97.0776V47.3663H97.9374C98.3282 47.3663 98.5626 47.4445 98.7971 47.6008C98.9535 47.679 99.0316 47.9135 99.0316 48.2261ZM95.4362 48.8514C95.4362 48.3824 95.5143 47.9916 95.7488 47.6008C95.9833 47.21 96.2959 46.8974 96.6868 46.6629C97.0776 46.4284 97.5465 46.3502 98.0155 46.3502C98.4845 46.3502 98.8753 46.4284 99.2661 46.6629C99.6569 46.8974 99.9696 47.21 100.204 47.6008C100.439 47.9916 100.517 48.4606 100.517 48.8514C100.517 49.3204 100.439 49.7112 100.204 50.102C99.9696 50.4928 99.6569 50.8055 99.2661 51.04C98.8753 51.2744 98.4063 51.4308 97.9374 51.4308C97.4684 51.4308 97.0776 51.2744 96.6086 51.04C96.2178 50.8055 95.9051 50.4928 95.6706 50.102C95.5925 49.7112 95.4362 49.3204 95.4362 48.8514ZM95.827 48.8514C95.827 49.2422 95.9051 49.633 96.1396 49.9457C96.3741 50.2583 96.6086 50.571 96.9212 50.7273C97.2339 50.9618 97.6247 51.04 98.0155 51.04C98.4063 51.04 98.7971 50.9618 99.1098 50.7273C99.4224 50.4928 99.7351 50.2583 99.8914 49.9457C100.126 49.633 100.204 49.2422 100.204 48.8514C100.204 48.4606 100.126 48.0698 99.8914 47.7571C99.6569 47.4445 99.4224 47.1318 99.1098 46.9755C98.7971 46.741 98.4063 46.6629 98.0155 46.6629C97.6247 46.6629 97.2339 46.741 96.9212 46.9755C96.6086 47.21 96.2959 47.4445 96.1396 47.7571C95.9051 48.0698 95.827 48.4606 95.827 48.8514Z" fill="white"></path> </svg> 