<?xml version="1.0" encoding="UTF-8"?> <!-- Generator: Adobe Illustrator 25.2.0, SVG Export Plug-In . SVG Version: 6.00 Build 0) --> <svg xmlns="http://www.w3.org/2000/svg" xmlns:xlink="http://www.w3.org/1999/xlink" id="Layer_1" x="0px" y="0px" viewBox="0 0 213 213" style="enable-background:new 0 0 213 213;" xml:space="preserve"> <style type="text/css"> .st0{fill:#7D2670;} </style> <path class="st0" d="M106.8,213.3c-58.7,0-106.5-47.8-106.5-106.5S48.1,0.3,106.8,0.3s106.5,47.8,106.5,106.5 S165.5,213.3,106.8,213.3z M106.8,6.3C51.4,6.3,6.3,51.4,6.3,106.8c0,55.4,45.1,100.5,100.5,100.5c55.4,0,100.5-45.1,100.5-100.5 C207.3,51.4,162.2,6.3,106.8,6.3z"></path> <path class="st0" d="M166.5,115.1C166.5,115.1,166.5,115,166.5,115.1l-2.7-80c-0.1-1.6-1.4-2.9-3-2.9h-11.5c-1.6,0-2.9,1.3-3,2.9 l-3,77.1h-4.9l-2.6-77c-0.1-1.6-1.4-2.9-3-2.9h-11.5c-1.6,0-2.9,1.3-3,2.9l-3,77.1h-5.2V96.8c0-1.2-0.7-2.3-1.9-2.8 c-1.1-0.5-2.4-0.2-3.3,0.7l-17.1,17.1v-15c0-1.2-0.7-2.3-1.9-2.8c-1.1-0.5-2.4-0.2-3.3,0.6l-17.1,17.1v-15c0-1.2-0.7-2.3-1.9-2.8 c-1.1-0.5-2.4-0.2-3.3,0.6l-17.7,17.7c-1,0.5-1.7,1.5-1.7,2.7v49.7c0,1.7,1.3,3,3,3h119.5c1.7,0,3-1.3,3-3L166.5,115.1 C166.5,115.1,166.5,115.1,166.5,115.1z M152.2,38.2h5.8l2.5,73.9h-11.1L152.2,38.2z M124.2,38.2h5.8l2.5,73.9h-11.1L124.2,38.2z M104.1,104.1v8.1h-8.1L104.1,104.1z M81.9,104.1v8.1h-8.1L81.9,104.1z M59.7,104.1v8.1h-8.1L59.7,104.1z M160.5,161.9H47.1v-43.7 h15.6h3.9h18.3h3.9h18.3h11.1h17.3h10.7h14.3V161.9z"></path> </svg> 