<?xml version="1.0" encoding="UTF-8"?> <svg xmlns="http://www.w3.org/2000/svg" width="42" height="42" viewBox="0 0 42 42" fill="none"> <g opacity="0.7" clip-path="url(#clip0)"> <path d="M21.1198 42.1199C9.55633 42.1199 0.119812 32.7133 0.119812 21.1199C0.119812 9.52644 9.55633 0.119873 21.1198 0.119873C32.6833 0.119873 42.1198 9.52644 42.1198 21.1199C42.1198 32.7133 32.6833 42.1199 21.1198 42.1199ZM21.1198 1.91731C10.5449 1.91731 1.91724 10.545 1.91724 21.1199C1.91724 31.6948 10.5449 40.3225 21.1198 40.3225C31.6947 40.3225 40.3224 31.6948 40.3224 21.1199C40.3224 10.545 31.6947 1.91731 21.1198 1.91731Z" fill="white"></path> <path d="M12.612 15.6377C10.6049 15.6377 8.95721 13.99 8.95721 11.9829C8.95721 9.97577 10.6049 8.32812 12.612 8.32812C14.6191 8.32812 16.2668 9.97577 16.2668 11.9829C16.2668 13.99 14.6191 15.6377 12.612 15.6377ZM12.612 10.1256C11.5934 10.1256 10.7546 10.9644 10.7546 11.9829C10.7546 13.0014 11.5934 13.8403 12.612 13.8403C13.6305 13.8403 14.4693 13.0014 14.4693 11.9829C14.4693 10.9644 13.6305 10.1256 12.612 10.1256Z" fill="white"></path> <path d="M29.6576 20.2511H21.0898C19.0827 20.2511 17.465 18.6334 17.465 16.6263V11.9529C17.465 9.94581 19.0827 8.32812 21.0898 8.32812H29.6576C31.6647 8.32812 33.2824 9.94581 33.2824 11.9529V16.6263C33.2824 18.6334 31.6647 20.2511 29.6576 20.2511ZM21.0898 10.1256C20.1013 10.1256 19.2625 10.9344 19.2625 11.9529V16.6263C19.2625 17.6149 20.0713 18.4537 21.0898 18.4537H29.6576C30.6462 18.4537 31.485 17.6448 31.485 16.6263V11.9529C31.485 10.9644 30.6762 10.1256 29.6576 10.1256H21.0898Z" fill="white"></path> <path d="M12.612 29.2982C10.6049 29.2982 8.95721 27.6506 8.95721 25.6434C8.95721 23.6363 10.6049 21.9886 12.612 21.9886C14.6191 21.9886 16.2668 23.6363 16.2668 25.6434C16.2668 27.6506 14.6191 29.2982 12.612 29.2982ZM12.612 23.7861C11.5934 23.7861 10.7546 24.6249 10.7546 25.6434C10.7546 26.662 11.5934 27.5008 12.612 27.5008C13.6305 27.5008 14.4693 26.662 14.4693 25.6434C14.4693 24.6249 13.6305 23.7861 12.612 23.7861Z" fill="white"></path> <path d="M29.6576 33.9116H21.0898C19.0827 33.9116 17.465 32.2939 17.465 30.2868V25.6135C17.465 23.6063 19.0827 21.9886 21.0898 21.9886H29.6576C31.6647 21.9886 33.2824 23.6063 33.2824 25.6135V30.2868C33.2824 32.2939 31.6647 33.9116 29.6576 33.9116ZM21.0898 23.7861C20.1013 23.7861 19.2625 24.5949 19.2625 25.6135V30.2868C19.2625 31.2754 20.0713 32.1142 21.0898 32.1142H29.6576C30.6462 32.1142 31.485 31.3053 31.485 30.2868V25.6135C31.485 24.6249 30.6762 23.7861 29.6576 23.7861H21.0898Z" fill="white"></path> </g> <defs> <clipPath id="clip0"> <rect width="42" height="42" fill="white"></rect> </clipPath> </defs> </svg> 