<?xml version="1.0" encoding="UTF-8"?> <svg xmlns="http://www.w3.org/2000/svg" width="43" height="42" viewBox="0 0 43 42" fill="none"> <g opacity="0.7" clip-path="url(#clip0)"> <path d="M33.4096 32.8631H7.56383C7.04324 32.8631 6.64514 32.4737 6.64514 31.9644C6.64514 31.4551 7.04324 31.0657 7.56383 31.0657H33.4096C33.9302 31.0657 34.3283 31.4551 34.3283 31.9644C34.3283 32.4737 33.9302 32.8631 33.4096 32.8631Z" fill="white"></path> <path d="M13.5047 28.7889H8.48253C7.96194 28.7889 7.56384 28.3994 7.56384 27.8902V18.903C7.56384 18.3937 7.96194 18.0043 8.48253 18.0043H13.5047C14.0253 18.0043 14.4234 18.3937 14.4234 18.903V27.8902C14.4234 28.3695 13.9947 28.7889 13.5047 28.7889ZM9.40122 26.9914H12.586V19.8017H9.40122V26.9914Z" fill="white"></path> <path d="M32.4297 28.7889H27.4075C26.8869 28.7889 26.4888 28.3994 26.4888 27.8902V8.20829C26.4888 7.69901 26.8869 7.30957 27.4075 7.30957H32.4297C32.9503 7.30957 33.3484 7.69901 33.3484 8.20829V27.8902C33.3484 28.3695 32.9503 28.7889 32.4297 28.7889ZM28.3262 26.9915H31.511V9.107H28.3262V26.9915Z" fill="white"></path> <path d="M22.9059 28.7888H17.8838C17.3632 28.7888 16.9651 28.3994 16.9651 27.8901V13.5107C16.9651 13.0014 17.3632 12.6119 17.8838 12.6119H22.9059C23.4265 12.6119 23.8246 13.0014 23.8246 13.5107V27.8901C23.8246 28.3694 23.3959 28.7888 22.9059 28.7888ZM18.8025 26.9914H21.9872V14.4094H18.8025V26.9914Z" fill="white"></path> <path d="M21.4667 42C9.6156 42 0 32.5635 0 21C0 9.43652 9.6156 0 21.4667 0C33.3177 0 42.9333 9.40656 42.9333 21C42.9333 32.5934 33.2871 42 21.4667 42ZM21.4667 1.79743C10.6568 1.79743 1.83738 10.4251 1.83738 21C1.83738 31.5749 10.6568 40.2026 21.4667 40.2026C32.2766 40.2026 41.096 31.5749 41.096 21C41.096 10.4251 32.2766 1.79743 21.4667 1.79743Z" fill="white"></path> </g> <defs> <clipPath id="clip0"> <rect width="42.9333" height="42" fill="white"></rect> </clipPath> </defs> </svg> 