<?xml version="1.0" encoding="UTF-8"?> <!-- Generator: Adobe Illustrator 25.2.0, SVG Export Plug-In . SVG Version: 6.00 Build 0) --> <svg xmlns="http://www.w3.org/2000/svg" xmlns:xlink="http://www.w3.org/1999/xlink" id="Layer_1" x="0px" y="0px" viewBox="0 0 308.9 309.1" style="enable-background:new 0 0 308.9 309.1;" xml:space="preserve"> <style type="text/css"> .st0{fill:#FFFFFF;} .st1{fill:#7D2670;} .st2{fill:#ED218C;} </style> <path class="st0" d="M154.4,0c85.3,0,154.4,69.2,154.4,154.5s-69.2,154.6-154.4,154.6S0,239.9,0,154.5S69.1,0,154.4,0L154.4,0z"></path> <path class="st1" d="M154.4,62.1c51,0,92.4,41.4,92.4,92.5c0,51.1-41.4,92.5-92.4,92.5c-51,0-92.4-41.4-92.4-92.5 C62,103.5,103.4,62.1,154.4,62.1L154.4,62.1z"></path> <path class="st2" d="M91.6,201.3c2.1,0,4-0.4,5.6-1.1c1.6-0.8,3-1.8,4.1-3.2l-4.6-4.1c-0.6,0.8-1.3,1.4-2.1,1.9 c-0.8,0.4-1.7,0.6-2.6,0.7c-1,0-1.9-0.2-2.7-0.7c-0.8-0.4-1.3-1.1-1.8-1.9c-0.4-0.8-0.6-1.7-0.6-2.9c0-1.1,0.2-2,0.6-2.9 c0.4-0.8,1-1.4,1.8-1.8c0.8-0.4,1.7-0.7,2.7-0.7c1,0,1.8,0.2,2.6,0.7c0.8,0.4,1.5,1,2.1,1.8l4.6-4.1c-1.1-1.4-2.4-2.5-4.1-3.2 c-1.6-0.7-3.5-1.1-5.6-1.1c-1.7,0-3.3,0.3-4.8,0.8c-1.5,0.5-2.7,1.3-3.8,2.3c-1.1,1-1.9,2.2-2.5,3.6c-0.6,1.4-0.9,2.9-0.9,4.5 c0,1.7,0.3,3.2,0.9,4.6c0.6,1.4,1.4,2.5,2.5,3.6c1.1,1,2.4,1.8,3.8,2.3C88.3,201,89.9,201.3,91.6,201.3L91.6,201.3z M125,179.3h-7.6 l-4.6,8h-2.2v-8h-7.3v21.5h7.3V193h2l4.1,7.8h8.2l-6.4-11.1L125,179.3z M127.1,200.8h6.9l7.4-11.2v11.2h7.1v-21.5h-6.8l-7.4,11.2 v-11.2h-7.1V200.8z M173.6,195.2v-15.9h-18.2l-0.3,6.6c-0.1,1.4-0.2,2.6-0.3,3.8c-0.2,1.1-0.4,2.1-0.6,3c-0.3,0.8-0.6,1.5-1.1,1.9 c-0.4,0.4-1,0.7-1.7,0.7h-0.6v9.9h6.7v-4.2h12.2v4.2h6.7v-9.9H173.6z M161.4,186.4l0.1-1.5h4.9v10.3h-6.6c0.4-0.6,0.6-1.4,0.9-2.2 c0.2-0.9,0.4-1.9,0.5-3C161.3,188.9,161.4,187.7,161.4,186.4L161.4,186.4z M200.3,179.3h-7.6l-4.6,8h-2.2v-8h-7.3v21.5h7.3V193h2 l4.1,7.8h8.2l-6.4-11.1L200.3,179.3z M219,200.8h7.5l-9.4-21.5H210l-9.4,21.5h7.4l1.5-3.8h8.2L219,200.8z M211.4,191.8l2.1-5.4 l2.1,5.4H211.4z"></path> <path class="st0" d="M107.8,150.1l7-6.4c1.8-1.6,3.2-3.1,4.3-4.5c1.1-1.4,2-2.7,2.5-3.9c0.6-1.2,1-2.5,1.2-3.6 c0.2-1.1,0.3-2.4,0.3-3.6c0-2.3-0.5-4.4-1.5-6.3c-1-1.8-2.3-3.5-4.1-4.8c-1.8-1.3-3.8-2.4-6.2-3.1c-2.4-0.7-5.1-1.1-8-1.1 c-3.5,0-6.6,0.5-9.4,1.4c-2.7,1-5.1,2.3-7.1,4c-2,1.7-3.5,3.6-4.7,5.9l12.4,6.2c0.5-1,1.1-1.8,1.8-2.5c0.8-0.7,1.6-1.2,2.5-1.5 c0.9-0.4,1.8-0.5,2.9-0.5c1.6,0,2.7,0.4,3.5,1c0.8,0.7,1.2,1.6,1.2,2.8c0,0.6-0.1,1.1-0.3,1.8c-0.2,0.6-0.6,1.3-1.1,2.2 c-0.6,0.8-1.4,1.7-2.5,2.7l-17.6,16.3v10.1h39.1v-12.8H107.8z M147.6,131.2h-2.5l0.3-4.8h18.9V114h-32.4l-2.4,29.6h14.1 c2,0,3.5,0.2,4.6,0.4c1.1,0.3,1.8,0.7,2.2,1.2c0.4,0.5,0.6,1.1,0.6,1.8c0,0.8-0.3,1.5-0.8,2.1c-0.6,0.6-1.3,1-2.3,1.3 c-1,0.3-2,0.4-3.3,0.4c-1.4,0-2.8-0.1-4.3-0.4c-1.5-0.3-2.9-0.6-4.4-1.1c-1.5-0.5-2.9-1.2-4.3-2l-5.6,12.1c1.8,1,3.7,1.8,5.8,2.5 c2.1,0.6,4.3,1.1,6.6,1.5c2.3,0.3,4.5,0.5,6.8,0.5c3.1,0,5.9-0.3,8.3-1c2.4-0.6,4.5-1.5,6.3-2.6c1.8-1.1,3.2-2.4,4.4-3.8 c1.1-1.5,2-3,2.5-4.7c0.6-1.7,0.8-3.4,0.8-5.1c0-2.2-0.4-4.2-1.1-6.1c-0.7-1.8-1.9-3.5-3.5-4.9c-1.6-1.4-3.6-2.5-6.2-3.3 C154.3,131.6,151.2,131.2,147.6,131.2L147.6,131.2z M182.9,140.5c1.8,0,3.6-0.3,5.2-0.9c1.6-0.6,2.9-1.5,4.1-2.6 c1.1-1.1,2.1-2.6,2.7-4.3c0.6-1.7,1-3.6,1-5.8s-0.3-4.1-1-5.8c-0.6-1.7-1.6-3.1-2.7-4.3c-1.2-1.2-2.5-2-4.1-2.7 c-1.6-0.6-3.3-0.9-5.2-0.9c-1.9,0-3.6,0.3-5.2,0.9c-1.6,0.6-2.9,1.5-4.1,2.7c-1.2,1.1-2.1,2.6-2.7,4.3c-0.7,1.7-1,3.6-1,5.8 c0,2.2,0.3,4.1,1,5.8c0.6,1.7,1.5,3.1,2.7,4.3c1.2,1.2,2.5,2,4.1,2.6C179.3,140.2,181,140.5,182.9,140.5L182.9,140.5z M178.2,162.9 H190l33.3-48.9h-11.8L178.2,162.9z M182.9,133c-0.5,0-1-0.1-1.5-0.5c-0.5-0.4-0.8-1-1.1-1.9c-0.3-0.9-0.4-2.1-0.4-3.6 c0-1.6,0.2-2.8,0.4-3.7c0.3-0.9,0.7-1.5,1.1-1.9c0.5-0.4,1-0.6,1.5-0.5c0.5,0,1,0.2,1.5,0.5c0.5,0.4,0.9,1,1.1,1.9 c0.3,0.9,0.4,2.1,0.4,3.7c0,1.5-0.1,2.7-0.4,3.6c-0.3,0.9-0.7,1.5-1.1,1.9C183.9,132.8,183.4,133,182.9,133L182.9,133z M218.7,163.5 c1.8,0,3.6-0.3,5.2-0.9c1.6-0.6,2.9-1.5,4.1-2.6c1.1-1.1,2.1-2.6,2.7-4.3c0.6-1.7,1-3.6,1-5.8s-0.3-4.1-1-5.8 c-0.6-1.7-1.6-3.1-2.7-4.3c-1.2-1.2-2.5-2-4.1-2.7c-1.6-0.6-3.3-0.9-5.2-0.9c-1.9,0-3.6,0.3-5.2,0.9c-1.6,0.6-2.9,1.5-4.1,2.7 c-1.2,1.1-2.1,2.6-2.7,4.3c-0.7,1.7-1,3.6-1,5.8c0,2.2,0.3,4.1,1,5.8c0.6,1.7,1.5,3.1,2.7,4.3c1.2,1.2,2.5,2,4.1,2.6 C215.1,163.2,216.8,163.5,218.7,163.5L218.7,163.5z M218.7,156c-0.5,0-1-0.1-1.5-0.5c-0.5-0.4-0.8-1-1.1-1.9 c-0.3-0.9-0.4-2.1-0.4-3.6c0-1.6,0.2-2.8,0.4-3.7c0.3-0.9,0.7-1.5,1.1-1.9s1-0.5,1.5-0.5c0.5,0,1,0.2,1.5,0.5c0.5,0.4,0.9,1,1.1,1.9 c0.3,0.9,0.4,2.1,0.4,3.7c0,1.5-0.2,2.7-0.4,3.6c-0.3,0.9-0.7,1.5-1.1,1.9C219.7,155.9,219.2,156,218.7,156L218.7,156z"></path> <path class="st1" d="M14.5,132.8l12.3,2.4l0.3-1.7l-10.8-2.1l1.5-7.7l10.8,2.1l0.3-1.7l-12.2-2.4L14.5,132.8z M20.2,109.4 c-0.2,0.7-0.4,1.3-0.4,1.9s0.1,1.3,0.3,1.8c0.2,0.6,0.5,1.1,0.9,1.7l-2.3-0.8l-0.5,1.5l16.1,5.6l0.6-1.6l-6.6-2.3 c0.6-0.1,1.2-0.4,1.7-0.7s0.9-0.8,1.3-1.3c0.4-0.5,0.7-1.1,0.9-1.7c0.3-0.8,0.4-1.7,0.4-2.5c0-0.8-0.2-1.6-0.6-2.3 c-0.3-0.7-0.8-1.3-1.5-1.9c-0.6-0.5-1.4-1-2.3-1.3c-0.9-0.3-1.8-0.4-2.6-0.4c-0.8,0-1.6,0.2-2.3,0.6c-0.7,0.3-1.3,0.8-1.8,1.4 C20.9,107.9,20.5,108.6,20.2,109.4L20.2,109.4z M30.8,113.2c-0.2,0.6-0.5,1.2-0.9,1.7c-0.4,0.4-0.9,0.8-1.4,1.1 c-0.5,0.3-1.1,0.4-1.8,0.4s-1.3-0.1-2-0.3c-0.7-0.3-1.3-0.6-1.8-1c-0.5-0.4-0.9-0.9-1.1-1.4c-0.3-0.5-0.4-1.1-0.5-1.7 c0-0.6,0.1-1.2,0.3-1.9c0.2-0.6,0.5-1.1,0.9-1.6c0.4-0.4,0.9-0.8,1.4-1.1c0.5-0.3,1.1-0.4,1.8-0.4s1.3,0.1,2,0.3 c0.7,0.3,1.3,0.6,1.8,1c0.5,0.4,0.9,0.9,1.1,1.4c0.3,0.5,0.4,1.1,0.5,1.7C31.1,112,31,112.6,30.8,113.2L30.8,113.2z M35.6,104.3 l0.6-1.4l-5.5-11.7l9,4.2l0.7-1.5l-11.3-5.3l-0.6,1.3l5.5,11.7l-9-4.2L24.3,99L35.6,104.3z M35.9,77L46,84.4l1-1.4l-8.9-6.4l4.6-6.3 l8.9,6.4l1-1.3L42.4,68L35.9,77z M59.2,67.7c0.6-0.6,1.1-1.4,1.4-2.1c0.3-0.8,0.5-1.6,0.4-2.4c0-0.8-0.2-1.6-0.5-2.3 c-0.4-0.8-0.9-1.5-1.5-2.1c-0.7-0.6-1.4-1.1-2.2-1.4c-0.8-0.3-1.5-0.4-2.4-0.4c-0.8,0-1.6,0.2-2.3,0.5c-0.8,0.3-1.5,0.8-2.1,1.5 c-0.6,0.6-1.1,1.4-1.4,2.1c-0.3,0.8-0.4,1.6-0.4,2.4c0,0.8,0.2,1.6,0.5,2.4c0.4,0.8,0.8,1.5,1.5,2.1c0.7,0.6,1.4,1.1,2.2,1.4 c0.8,0.3,1.5,0.4,2.4,0.4c0.8,0,1.6-0.2,2.4-0.5S58.6,68.3,59.2,67.7L59.2,67.7z M58.2,66.6c-0.5,0.5-1,0.8-1.5,1.1 c-0.6,0.3-1.1,0.4-1.7,0.4c-0.6,0-1.2-0.1-1.8-0.4c-0.6-0.3-1.1-0.6-1.7-1.1c-0.5-0.5-0.9-1.1-1.2-1.6c-0.3-0.6-0.4-1.2-0.4-1.8 c0-0.6,0.1-1.2,0.3-1.7s0.6-1.1,1-1.6c0.4-0.5,1-0.8,1.5-1.1c0.6-0.2,1.1-0.4,1.7-0.4s1.2,0.1,1.8,0.4c0.6,0.3,1.1,0.6,1.7,1.1 c0.5,0.5,0.9,1.1,1.2,1.6c0.3,0.6,0.4,1.2,0.4,1.8c0,0.6-0.1,1.2-0.3,1.7C58.9,65.6,58.6,66.2,58.2,66.6L58.2,66.6z M72.8,54.7 l1.5-1.3l-8.1-1.5l-0.1-7.8l-1.4,1.2l0.2,7l-2.2,1.8l-3.5-4.2L57.8,51l8,9.6l1.3-1.1l-3.6-4.3l2.2-1.8L72.8,54.7z M76.6,36.4 l2.2,11.4l-9.9-6l-1.4,1l11.7,7l0.3,1.3c0.1,0.6,0.1,1,0.1,1.4c0,0.4-0.1,0.7-0.3,1c-0.2,0.3-0.4,0.5-0.7,0.8 c-0.4,0.3-0.8,0.4-1.1,0.5c-0.4,0.1-0.8,0.1-1.3,0l0.1,1.5c0.5,0.1,1.1,0.1,1.6-0.1s1.1-0.4,1.5-0.7c0.5-0.3,0.9-0.7,1.2-1.2 c0.3-0.4,0.5-1,0.5-1.6c0.1-0.6,0-1.4-0.2-2.2l-2.9-15L76.6,36.4z M81.4,33.2l6,10.9l1.5-0.8l-5.3-9.6l6.8-3.8l5.3,9.6l1.5-0.8 l-6-10.9L81.4,33.2z M110.2,33.3l1.8-0.7l-7.2-4.1l2.4-7.4l-1.7,0.6l-2.1,6.7l-2.7,1l-2-5.1l-1.6,0.6l4.5,11.6l1.6-0.6l-2-5.2l2.6-1 L110.2,33.3z M123.5,22.7c-0.3-0.9-0.6-1.7-1.1-2.4c-0.5-0.7-1.1-1.2-1.7-1.6c-0.7-0.4-1.4-0.7-2.2-0.8c-0.8-0.1-1.6-0.1-2.5,0.2 c-0.9,0.2-1.6,0.6-2.2,1.1c-0.6,0.5-1.1,1.1-1.5,1.8c-0.4,0.7-0.6,1.4-0.7,2.3c-0.1,0.8,0,1.7,0.2,2.6c0.3,0.9,0.6,1.7,1.1,2.3 c0.5,0.7,1.1,1.2,1.8,1.6c0.7,0.4,1.5,0.6,2.3,0.8c0.9,0.1,1.8,0,2.7-0.3c0.6-0.2,1.2-0.4,1.8-0.7s1-0.7,1.4-1.1 c0.4-0.4,0.7-0.9,1-1.4l-1.2-0.8c-0.3,0.6-0.8,1.2-1.3,1.6c-0.6,0.4-1.2,0.7-2,0.9c-0.6,0.2-1.3,0.3-1.9,0.2 c-0.6-0.1-1.2-0.2-1.7-0.4c-0.5-0.3-1-0.6-1.4-1.1s-0.7-1-0.9-1.6l10.1-2.7c0-0.1-0.1-0.2-0.1-0.3C123.5,22.9,123.5,22.8,123.5,22.7 L123.5,22.7z M116.4,19.6c0.8-0.2,1.5-0.2,2.2-0.1c0.7,0.2,1.3,0.5,1.9,1s1,1.1,1.2,1.9l-8.5,2.3c-0.1-0.8-0.1-1.6,0.1-2.3 c0.2-0.7,0.6-1.3,1.1-1.8C114.9,20.1,115.6,19.8,116.4,19.6L116.4,19.6z M139.9,26.4c0.7-0.1,1.3-0.3,1.9-0.5c0.6-0.3,1.1-0.6,1.5-1 c0.4-0.4,0.8-0.9,1.1-1.5l-1.3-0.7c-0.3,0.4-0.5,0.8-0.9,1.1c-0.3,0.3-0.7,0.6-1.1,0.8c-0.4,0.2-0.9,0.3-1.4,0.4 c-0.7,0.1-1.3,0.1-1.9-0.1c-0.6-0.2-1.1-0.4-1.6-0.8c-0.4-0.4-0.8-0.8-1.1-1.4c-0.3-0.6-0.5-1.2-0.6-2c-0.1-0.7-0.1-1.4,0.1-2 c0.1-0.6,0.4-1.1,0.8-1.6c0.4-0.5,0.8-0.9,1.3-1.2c0.6-0.3,1.2-0.5,1.8-0.6c0.5-0.1,1-0.1,1.4,0c0.4,0.1,0.9,0.2,1.3,0.4 c0.4,0.2,0.8,0.5,1.1,0.9l1.1-1c-0.4-0.5-0.9-0.9-1.4-1.2c-0.5-0.3-1.1-0.5-1.7-0.6c-0.6-0.1-1.3-0.1-2-0.1 c-0.9,0.1-1.7,0.4-2.5,0.8c-0.7,0.4-1.3,0.9-1.8,1.5c-0.5,0.6-0.9,1.3-1.1,2.2c-0.2,0.8-0.3,1.7-0.2,2.6s0.4,1.7,0.8,2.5 c0.4,0.7,1,1.3,1.6,1.8c0.6,0.5,1.3,0.8,2.2,1.1C138.1,26.5,139,26.5,139.9,26.4L139.9,26.4z M153.2,25.6c0.9,0,1.8-0.2,2.5-0.5 c0.8-0.3,1.4-0.8,2-1.4c0.6-0.6,1-1.2,1.3-2c0.3-0.8,0.4-1.6,0.4-2.6c0-0.9-0.2-1.8-0.5-2.5c-0.3-0.8-0.8-1.4-1.4-2 c-0.6-0.6-1.2-1-2-1.3c-0.8-0.3-1.6-0.4-2.5-0.4c-0.9,0-1.7,0.2-2.5,0.5c-0.8,0.3-1.4,0.8-2,1.3c-0.6,0.6-1,1.2-1.3,2 c-0.3,0.8-0.4,1.6-0.4,2.5c0,0.9,0.2,1.8,0.5,2.5c0.3,0.8,0.8,1.4,1.4,2c0.6,0.6,1.3,1,2,1.3C151.5,25.4,152.3,25.6,153.2,25.6 L153.2,25.6z M153.2,24.1c-0.6,0-1.3-0.1-1.8-0.3c-0.6-0.2-1.1-0.6-1.5-1c-0.4-0.4-0.8-0.9-1-1.5c-0.2-0.6-0.4-1.3-0.4-2 c0-0.7,0.1-1.4,0.3-2s0.5-1.1,1-1.5c0.4-0.4,0.9-0.8,1.5-1c0.6-0.2,1.1-0.4,1.8-0.4c0.7,0,1.3,0.1,1.8,0.3c0.6,0.2,1.1,0.5,1.5,1 c0.4,0.4,0.8,1,1,1.5c0.2,0.6,0.4,1.2,0.4,2c0,0.8-0.1,1.4-0.3,2c-0.2,0.6-0.5,1.1-0.9,1.5c-0.4,0.4-0.9,0.8-1.5,1 C154.5,23.9,153.9,24,153.2,24.1L153.2,24.1z M164.7,13.3l-1.5,12.4l1.7,0.2l1.3-10.9l7.8,1l-1.3,10.9l1.7,0.2l1.5-12.4L164.7,13.3z M187.8,16.8c-0.7-0.1-1.3-0.2-2-0.1c-0.6,0.1-1.2,0.3-1.8,0.5c-0.6,0.3-1.1,0.6-1.5,1.1l0.5-2.4l-1.6-0.3l-3.6,16.7l1.7,0.4 l1.5-6.8c0.2,0.6,0.5,1.1,0.9,1.6c0.4,0.4,0.9,0.8,1.4,1.1c0.5,0.3,1.1,0.5,1.8,0.7c0.9,0.2,1.7,0.2,2.5,0.1 c0.8-0.1,1.5-0.4,2.2-0.9c0.7-0.4,1.2-1,1.7-1.7c0.5-0.7,0.8-1.5,1-2.4s0.2-1.8,0.1-2.6s-0.4-1.6-0.9-2.2c-0.4-0.7-1-1.2-1.7-1.7 S188.6,17,187.8,16.8L187.8,16.8z M185.3,27.7c-0.6-0.2-1.2-0.4-1.7-0.7c-0.5-0.4-0.9-0.8-1.2-1.3c-0.3-0.5-0.5-1.1-0.6-1.7 c-0.1-0.6-0.1-1.3,0.1-2c0.1-0.7,0.4-1.3,0.8-1.8c0.3-0.5,0.8-1,1.3-1.3c0.5-0.3,1-0.6,1.7-0.6c0.6-0.1,1.2-0.1,1.9,0 c0.6,0.1,1.2,0.4,1.7,0.7c0.5,0.3,0.9,0.8,1.2,1.3c0.3,0.5,0.5,1.1,0.6,1.7c0.1,0.6,0.1,1.3-0.1,2c-0.1,0.7-0.4,1.3-0.8,1.9 c-0.4,0.5-0.8,1-1.3,1.3c-0.5,0.3-1,0.6-1.6,0.7C186.6,27.9,186,27.8,185.3,27.7L185.3,27.7z M199.6,33.6c0.9,0.3,1.7,0.5,2.5,0.5 c0.8,0,1.6-0.2,2.4-0.5c0.7-0.3,1.4-0.8,2-1.4c0.6-0.6,1-1.4,1.3-2.2c0.3-0.9,0.5-1.7,0.5-2.5c0-0.8-0.2-1.6-0.5-2.4 c-0.3-0.7-0.8-1.4-1.4-1.9c-0.6-0.6-1.3-1-2.2-1.4c-0.8-0.3-1.7-0.5-2.5-0.4c-0.8,0-1.6,0.2-2.4,0.5c-0.7,0.3-1.4,0.8-2,1.4 c-0.6,0.6-1,1.3-1.4,2.2c-0.3,0.9-0.5,1.7-0.4,2.5c0,0.8,0.2,1.6,0.5,2.4c0.3,0.7,0.8,1.4,1.4,1.9C198,32.8,198.7,33.3,199.6,33.6 L199.6,33.6z M200.1,32.2c-0.6-0.3-1.1-0.6-1.6-1c-0.4-0.4-0.8-0.9-1-1.4c-0.2-0.6-0.3-1.1-0.3-1.8s0.1-1.3,0.4-2 c0.3-0.7,0.6-1.3,1-1.7c0.4-0.5,0.9-0.8,1.5-1.1c0.5-0.3,1.1-0.4,1.7-0.4c0.6,0,1.2,0.1,1.8,0.4c0.6,0.2,1.2,0.6,1.6,1 c0.4,0.4,0.8,0.9,1,1.4c0.2,0.6,0.3,1.1,0.3,1.8c0,0.6-0.1,1.3-0.4,2c-0.3,0.7-0.6,1.3-1,1.7c-0.4,0.4-0.9,0.8-1.5,1.1 c-0.5,0.3-1.1,0.4-1.7,0.4C201.3,32.6,200.7,32.4,200.1,32.2L200.1,32.2z M218.6,35.2c0.7,0.1,1.3,0,1.8-0.3c0.6-0.3,1-0.7,1.3-1.3 c0.3-0.6,0.4-1.2,0.3-1.8c-0.1-0.6-0.4-1.1-0.9-1.7c-0.5-0.5-1.1-1-2-1.4l-4.9-2.5l-5.7,11.1l5.1,2.6c1.4,0.7,2.7,1,3.6,0.9 c1-0.2,1.7-0.7,2.2-1.7c0.4-0.7,0.5-1.4,0.3-2.1C219.7,36.4,219.3,35.8,218.6,35.2L218.6,35.2z M215.1,28.1l3.3,1.7 c0.9,0.4,1.5,0.9,1.7,1.5c0.3,0.5,0.3,1.1,0,1.7c-0.3,0.6-0.8,1-1.4,1.1c-0.6,0.1-1.3-0.1-2.2-0.5l-3.3-1.7L215.1,28.1z M214.2,38.7 l-3.5-1.8l2-3.9l3.7,1.9c0.9,0.5,1.5,1,1.8,1.5s0.3,1.1-0.1,1.8c-0.4,0.6-0.8,1-1.5,1.1C215.9,39.4,215.1,39.2,214.2,38.7 L214.2,38.7z M225.5,47c0.8,0.5,1.6,0.8,2.4,0.9c0.8,0.2,1.6,0.1,2.4,0c0.8-0.2,1.5-0.5,2.2-1c0.7-0.5,1.3-1.1,1.8-1.9 c0.5-0.8,0.8-1.6,1-2.4c0.1-0.8,0.1-1.6-0.1-2.4c-0.2-0.8-0.5-1.5-1-2.2c-0.5-0.7-1.1-1.3-1.9-1.7s-1.6-0.8-2.4-1 c-0.8-0.1-1.6-0.1-2.4,0.1c-0.8,0.2-1.5,0.5-2.2,1c-0.7,0.5-1.3,1.1-1.7,1.9c-0.5,0.8-0.8,1.6-1,2.4c-0.1,0.8-0.1,1.6,0.1,2.4 s0.5,1.5,1,2.2C224.1,45.9,224.8,46.5,225.5,47L225.5,47z M226.3,45.7c-0.6-0.4-1-0.8-1.4-1.3c-0.4-0.5-0.6-1-0.7-1.6 c-0.1-0.6-0.1-1.2,0-1.8c0.1-0.6,0.4-1.3,0.8-1.9c0.4-0.6,0.8-1.1,1.4-1.5c0.5-0.4,1-0.6,1.6-0.8c0.6-0.1,1.2-0.2,1.8-0.1 c0.6,0.1,1.2,0.3,1.7,0.7c0.6,0.4,1,0.8,1.4,1.3c0.4,0.5,0.6,1,0.7,1.6c0.1,0.6,0.1,1.2,0,1.8c-0.1,0.6-0.4,1.3-0.8,1.9 c-0.4,0.6-0.8,1.1-1.3,1.5c-0.5,0.4-1.1,0.6-1.7,0.8c-0.6,0.1-1.1,0.2-1.8,0.1C227.5,46.3,226.9,46.1,226.3,45.7L226.3,45.7z M245.1,62.2l1.5,1.3l0.7-7.8l7.1-2l-1.4-1.2l-6.3,1.8l-2.1-1.7l3.5-4.2l-1.3-1.1l-3.5,4.2l-2.1-1.7l0.7-6.6l-1.4-1.2l-0.7,7.3 l-7.6,2l1.5,1.3l6.5-1.8l2.1,1.7l-3.6,4.3L240,58l3.6-4.3l2.1,1.7L245.1,62.2z M256.1,72.6l8.3-7.2l-6-6.9l-3.3,2.6 c-0.5,0.4-1.1,0.8-1.6,1.2c-0.5,0.4-1,0.7-1.5,1c-0.5,0.3-1,0.5-1.4,0.7c-0.4,0.2-0.9,0.3-1.2,0.2c-0.4,0-0.7-0.2-0.9-0.4l-0.5-0.5 l-3.4,2.9l1.1,1.2l2.3-2l7.3,8.4l-2.3,2l1,1.2l3.4-2.9L256.1,72.6z M256.1,62.2l2.2-1.7l3.9,4.5l-7.2,6.2l-5.1-5.9 c0.4,0.1,0.8,0,1.3-0.1c0.5-0.1,1-0.4,1.5-0.7c0.5-0.3,1.1-0.7,1.7-1.1C255,63.1,255.5,62.7,256.1,62.2L256.1,62.2z M269.6,83 c0.8-0.6,1.4-1.2,1.8-1.9c0.4-0.7,0.7-1.4,0.9-2.2c0.1-0.8,0.1-1.5-0.1-2.3c-0.2-0.8-0.5-1.5-1-2.2c-0.5-0.7-1.1-1.3-1.8-1.7 c-0.7-0.4-1.4-0.7-2.2-0.8c-0.8-0.1-1.6-0.1-2.4,0.2c-0.8,0.2-1.6,0.6-2.3,1.1c-0.8,0.6-1.3,1.2-1.8,1.9c-0.4,0.7-0.7,1.5-0.8,2.3 c-0.1,0.8-0.1,1.6,0.2,2.4c0.2,0.8,0.6,1.7,1.2,2.4c0.4,0.5,0.8,1,1.3,1.4c0.5,0.4,1,0.7,1.5,0.9c0.5,0.2,1.1,0.4,1.7,0.4l0.3-1.4 c-0.7-0.1-1.4-0.3-2-0.6c-0.6-0.4-1.1-0.9-1.6-1.5c-0.4-0.5-0.7-1.1-0.9-1.7s-0.2-1.1-0.2-1.7s0.2-1.1,0.5-1.7 c0.3-0.5,0.7-1,1.1-1.4l6.1,8.4c0.1-0.1,0.2-0.1,0.3-0.2C269.5,83.1,269.6,83,269.6,83L269.6,83z M270,75.2c0.5,0.7,0.8,1.4,0.9,2.1 c0.1,0.7,0,1.4-0.3,2.1c-0.3,0.7-0.7,1.3-1.3,1.8l-5.2-7.2c0.7-0.4,1.4-0.6,2.2-0.7c0.7-0.1,1.4,0.1,2.1,0.4 C268.9,74.1,269.5,74.6,270,75.2L270,75.2z M266.1,90.1l0.8,1.5l4.8-2.6l3.7,6.9l-4.8,2.6l0.8,1.5l11-5.9l-0.8-1.5l-4.9,2.6 l-3.7-6.9l4.9-2.6l-0.8-1.5L266.1,90.1z M273.3,104.4l0.6,1.4l12.3,4l-9.2,3.7l0.6,1.5l11.6-4.7l-0.6-1.4l-12.3-4l9.2-3.7l-0.6-1.6 L273.3,104.4z M292,121.1c-0.2-1-0.6-1.9-1.1-2.6c-0.5-0.7-1.1-1.2-1.8-1.5c-0.7-0.3-1.5-0.3-2.5-0.1c-1,0.2-1.7,0.7-2.2,1.3 c-0.5,0.6-0.8,1.5-0.8,2.5l-5-2.1l0.4,1.8l4.6,1.9l0.1,0.4l0.9,3.8l-4,0.9l0.3,1.5l12.2-2.8L292,121.1z M287,118.6 c0.6-0.2,1.2-0.1,1.7,0.1c0.5,0.2,0.9,0.5,1.2,1c0.3,0.5,0.6,1.1,0.7,1.9l0.8,3.6l-5.5,1.3l-0.8-3.7c-0.3-1.1-0.3-2,0.1-2.7 C285.4,119.3,286.1,118.8,287,118.6L287,118.6z"></path> <path class="st1" d="M33.4,200.3L22,205.3l0.7,1.5l10-4.5l3.2,7.2l-10,4.5l0.7,1.5l11.4-5.1L33.4,200.3z M31.2,224.4 c0.5,0.8,1,1.5,1.7,2c0.6,0.5,1.4,0.9,2.2,1.1c0.8,0.2,1.6,0.3,2.4,0.1c0.8-0.1,1.7-0.4,2.5-0.9c0.8-0.4,1.5-1,2-1.7 c0.5-0.6,0.9-1.4,1.1-2.1c0.2-0.8,0.2-1.6,0.1-2.4c-0.1-0.8-0.4-1.6-0.8-2.4c-0.5-0.8-1-1.4-1.7-1.9c-0.7-0.5-1.4-0.9-2.2-1.1 c-0.8-0.2-1.6-0.3-2.4-0.2c-0.8,0.1-1.7,0.4-2.5,0.9c-0.8,0.5-1.5,1-2,1.7c-0.5,0.7-0.9,1.4-1.1,2.2c-0.2,0.8-0.3,1.6-0.1,2.4 C30.5,222.8,30.8,223.7,31.2,224.4L31.2,224.4z M32.5,223.7c-0.3-0.6-0.5-1.2-0.6-1.8c-0.1-0.6,0-1.2,0.1-1.8 c0.2-0.6,0.4-1.1,0.8-1.6c0.4-0.5,0.9-0.9,1.6-1.3c0.6-0.4,1.3-0.6,1.9-0.7c0.6-0.1,1.2-0.1,1.8,0.1c0.6,0.1,1.1,0.4,1.6,0.8 c0.5,0.4,0.9,0.8,1.2,1.4c0.3,0.6,0.5,1.1,0.6,1.8c0.1,0.6,0.1,1.2-0.1,1.8c-0.2,0.6-0.4,1.1-0.8,1.6c-0.4,0.5-0.9,0.9-1.6,1.3 c-0.6,0.4-1.3,0.6-1.9,0.7c-0.6,0.1-1.3,0.1-1.8-0.1c-0.6-0.1-1.1-0.4-1.6-0.8C33.3,224.8,32.9,224.3,32.5,223.7L32.5,223.7z M39.3,237.2c0.4,0.6,0.9,1.1,1.4,1.5c0.5,0.4,1.1,0.7,1.6,0.9c0.6,0.2,1.2,0.3,1.8,0.3v-1.5c-0.5,0-1-0.1-1.4-0.3 c-0.4-0.1-0.8-0.4-1.2-0.6c-0.4-0.3-0.7-0.6-1-1c-0.4-0.6-0.7-1.1-0.8-1.8c-0.1-0.6-0.1-1.2,0-1.8c0.1-0.6,0.3-1.1,0.7-1.7 c0.4-0.5,0.8-1,1.5-1.4c0.6-0.4,1.2-0.7,1.8-0.8c0.6-0.2,1.2-0.2,1.8-0.1c0.6,0.1,1.1,0.3,1.7,0.7c0.5,0.3,1,0.8,1.4,1.3 c0.3,0.4,0.5,0.8,0.6,1.3c0.1,0.4,0.2,0.9,0.2,1.3c0,0.5-0.1,1-0.3,1.4l1.4,0.5c0.3-0.6,0.4-1.2,0.4-1.8c0-0.6-0.1-1.2-0.3-1.8 s-0.5-1.2-0.9-1.8c-0.5-0.8-1.1-1.4-1.8-1.8c-0.7-0.5-1.5-0.8-2.2-0.9c-0.8-0.1-1.6-0.1-2.4,0.1c-0.8,0.2-1.6,0.5-2.4,1.1 c-0.8,0.6-1.4,1.2-1.8,1.9c-0.4,0.7-0.7,1.5-0.9,2.2c-0.1,0.8-0.1,1.6,0.1,2.4C38.4,235.7,38.8,236.4,39.3,237.2L39.3,237.2z M54.7,236.4l-3.5,2.7c-0.5,0.4-1.1,0.8-1.6,1.1c-0.5,0.4-1,0.7-1.5,1c-0.5,0.3-1,0.5-1.4,0.6c-0.4,0.2-0.8,0.2-1.2,0.1 c-0.4,0-0.7-0.2-1-0.5c0-0.1-0.1-0.1-0.1-0.2c-0.1-0.1-0.1-0.2-0.2-0.3l-1.2,0.8c0.1,0.2,0.2,0.4,0.3,0.6c0.1,0.2,0.2,0.3,0.3,0.5 c0.3,0.4,0.7,0.7,1.2,0.8c0.4,0.1,1,0.1,1.5,0c0.5-0.1,1.1-0.4,1.7-0.7s1.3-0.7,1.9-1.1c0.7-0.4,1.3-1,2-1.5l2.5-1.8l3.8,4.6 l-8.4,7.1l1.1,1.3l9.5-8L54.7,236.4z M66.6,258c0.6-0.7,1.1-1.4,1.5-2.2c0.3-0.8,0.5-1.5,0.5-2.3c0-0.8-0.1-1.5-0.5-2.3 c-0.3-0.7-0.8-1.4-1.4-2c-0.6-0.6-1.3-1.1-2.1-1.3c-0.7-0.3-1.5-0.4-2.3-0.4c-0.8,0-1.5,0.2-2.3,0.6c-0.8,0.4-1.5,0.9-2.1,1.5 c-0.6,0.7-1.1,1.4-1.4,2.2c-0.3,0.8-0.5,1.6-0.4,2.4s0.2,1.6,0.6,2.4c0.3,0.8,0.9,1.5,1.6,2.2c0.5,0.4,1,0.8,1.5,1.1 c0.5,0.3,1.1,0.5,1.7,0.6c0.6,0.1,1.1,0.2,1.7,0.1l0.1-1.5c-0.7,0.1-1.4,0-2.1-0.3c-0.6-0.3-1.3-0.6-1.8-1.2c-0.5-0.5-0.9-1-1.1-1.5 c-0.3-0.6-0.4-1.1-0.5-1.7c-0.1-0.6,0-1.1,0.2-1.7c0.2-0.6,0.5-1.1,0.9-1.6l7.5,7.2c0.1-0.1,0.1-0.1,0.2-0.2 C66.5,258.1,66.6,258,66.6,258L66.6,258z M65.7,250.3c0.6,0.6,1,1.2,1.2,1.9c0.2,0.7,0.3,1.4,0.1,2.1c-0.1,0.7-0.5,1.4-1,2l-6.4-6.2 c0.6-0.5,1.3-0.9,2-1.1c0.7-0.2,1.4-0.2,2.1,0C64.4,249.3,65.1,249.7,65.7,250.3L65.7,250.3z M74.2,269.8l6.8-8.7l-7.3-5.7l-2.7,3.2 c-0.4,0.5-0.9,1-1.3,1.5c-0.4,0.5-0.9,0.9-1.3,1.3c-0.4,0.4-0.9,0.7-1.3,0.9c-0.4,0.3-0.8,0.4-1.1,0.4c-0.4,0.1-0.7,0-1-0.2 l-0.6-0.4l-2.7,3.5l1.2,1l1.9-2.4l8.8,6.9l-1.8,2.4l1.2,1l2.8-3.5L74.2,269.8z M72.2,259.6l1.8-2.1l4.7,3.7l-5.9,7.5l-6.1-4.8 c0.4,0,0.8-0.1,1.3-0.4c0.4-0.2,0.9-0.6,1.3-1c0.5-0.4,1-0.9,1.4-1.4S71.7,260.2,72.2,259.6L72.2,259.6z M91.7,267.5l-9.4,6.8 l1.2-11.5l-1.5-0.9l-1.4,13.6l-1.1,0.8c-0.4,0.3-0.9,0.6-1.3,0.7c-0.4,0.1-0.7,0.2-1,0.2c-0.3-0.1-0.7-0.2-1-0.3 c-0.4-0.2-0.7-0.5-1-0.8c-0.3-0.3-0.4-0.7-0.5-1.1l-1.3,0.7c0.1,0.5,0.4,1,0.8,1.4c0.4,0.4,0.8,0.8,1.3,1.1c0.5,0.3,1,0.5,1.6,0.6 c0.5,0.1,1.1,0,1.7-0.2c0.6-0.2,1.2-0.6,1.9-1.1l12.4-9L91.7,267.5z M104.2,273.5c-0.8-0.4-1.5-0.6-2.3-0.6c-0.7-0.1-1.5,0-2.2,0.2 c-0.7,0.2-1.3,0.5-1.9,1c-0.6,0.4-1.1,1-1.5,1.7l-2.6-1.2l2.3-4.9l-1.5-0.7l-5.3,11.3l1.5,0.7l2.3-5l2.6,1.2 c-0.3,0.8-0.4,1.6-0.4,2.4c0,0.8,0.2,1.5,0.4,2.2c0.3,0.7,0.7,1.3,1.2,1.9c0.5,0.5,1.2,1,1.9,1.3c0.8,0.4,1.6,0.6,2.4,0.6 c0.8,0.1,1.6-0.1,2.4-0.4c0.7-0.3,1.4-0.7,2-1.3c0.6-0.6,1.1-1.3,1.5-2.1c0.4-0.8,0.6-1.7,0.7-2.5c0.1-0.8-0.1-1.6-0.3-2.4 c-0.3-0.8-0.7-1.4-1.2-2C105.7,274.3,105,273.8,104.2,273.5L104.2,273.5z M99.5,283.6c-0.6-0.3-1.1-0.6-1.5-1.1 c-0.4-0.4-0.7-1-0.9-1.5c-0.2-0.6-0.3-1.1-0.2-1.8c0-0.6,0.2-1.3,0.5-2c0.3-0.6,0.7-1.2,1.1-1.7c0.4-0.4,1-0.8,1.5-1 c0.5-0.2,1.1-0.3,1.7-0.3c0.6,0,1.2,0.2,1.8,0.4c0.6,0.3,1.1,0.6,1.5,1.1c0.4,0.4,0.7,0.9,0.9,1.5c0.2,0.6,0.3,1.2,0.2,1.8 c-0.1,0.6-0.2,1.3-0.5,2c-0.3,0.7-0.7,1.2-1.2,1.7c-0.4,0.4-1,0.8-1.5,1c-0.5,0.2-1.1,0.3-1.7,0.3C100.6,284,100,283.9,99.5,283.6 L99.5,283.6z M124.9,291.8l3-10.6l-1.6-0.4l-3,10.6l-5.8-1.7l3-10.6l-1.6-0.4l-3,10.6l-5.9-1.7l3-10.6l-1.6-0.4l-3.4,12l16.9,4.8 L124,296l1.5,0.4l1.1-4L124.9,291.8z M129.3,294.3l1.5,0.2l9.4-8.9l-1.2,9.9l1.7,0.2l1.5-12.4l-1.5-0.2l-9.5,8.8l1.2-9.8l-1.7-0.2 L129.3,294.3z M151.8,281.9c0.7,0,1.3-0.1,1.8-0.3c0.5-0.2,1-0.5,1.3-1c0.3-0.4,0.5-1,0.5-1.7l-1.2,0c0,0.4-0.1,0.8-0.4,1.1 c-0.2,0.3-0.5,0.5-0.8,0.7c-0.4,0.1-0.8,0.2-1.2,0.2c-0.4,0-0.9-0.1-1.2-0.3c-0.3-0.2-0.6-0.4-0.8-0.7c-0.2-0.3-0.3-0.7-0.3-1.1 l-1.2-0.1c0,0.7,0.1,1.2,0.4,1.7c0.3,0.5,0.7,0.8,1.2,1.1C150.5,281.8,151.1,281.9,151.8,281.9L151.8,281.9z M145.7,296l1.5,0.1 l8.6-9.6l-0.3,9.9l1.7,0.1l0.4-12.5l-1.5,0l-8.7,9.6l0.3-9.9l-1.7-0.1L145.7,296z M178.7,281.7l-4.2,9.6l-6.4-8.3l-1.7,0.2l1.5,12.4 l1.5-0.2l-1.2-9.8l6,7.7l0.8-0.1l4-8.9l1.2,9.8l1.5-0.2l-1.5-12.4L178.7,281.7z M187.2,279.4c-0.6,0.2-1.2,0.4-1.8,0.7 c-0.6,0.3-1.1,0.6-1.5,1c-0.4,0.4-0.8,0.8-1.1,1.3l1.1,1c0.3-0.4,0.6-0.7,0.9-1.1c0.4-0.3,0.8-0.6,1.2-0.9c0.5-0.3,1-0.5,1.5-0.6 c1.1-0.3,2-0.3,2.8,0.1c0.7,0.4,1.3,1.1,1.5,2.1l0.2,0.7l-3.8,1.1c-0.9,0.3-1.6,0.6-2.1,0.9c-0.6,0.4-1,0.7-1.2,1.1 c-0.3,0.4-0.4,0.9-0.5,1.3c0,0.4,0,0.9,0.1,1.4c0.2,0.7,0.6,1.3,1.1,1.7c0.5,0.4,1.1,0.7,1.8,0.8c0.7,0.1,1.6,0,2.5-0.2 c1-0.3,1.8-0.7,2.4-1.3c0.6-0.6,1-1.2,1.2-1.9l0.5,1.8l1.6-0.4l-2.1-7.5c-0.3-1-0.8-1.8-1.3-2.4c-0.6-0.6-1.3-1-2.1-1.1 S188.3,279.1,187.2,279.4L187.2,279.4z M189.8,290.5c-0.6,0.2-1.2,0.2-1.7,0.2c-0.5,0-0.9-0.2-1.3-0.5c-0.3-0.3-0.6-0.6-0.7-1.1 c-0.1-0.4-0.1-0.8-0.1-1.2c0.1-0.4,0.4-0.7,0.8-1s1-0.6,1.8-0.8l3.8-1.1l0.6,2c-0.1,0.9-0.4,1.6-1,2.2 C191.4,289.8,190.7,290.2,189.8,290.5L189.8,290.5z M201.1,274.8c-0.6,0.3-1.2,0.6-1.7,1c-0.5,0.4-0.9,0.9-1.2,1.4 c-0.3,0.5-0.5,1.1-0.6,1.8l-0.9-2.3l-1.5,0.6l6.4,15.8l1.6-0.6l-2.6-6.4c0.5,0.4,1.1,0.6,1.7,0.8c0.6,0.2,1.2,0.2,1.8,0.2 c0.6-0.1,1.2-0.2,1.8-0.4c0.8-0.3,1.5-0.8,2.1-1.3c0.6-0.6,1-1.2,1.3-1.9c0.3-0.8,0.4-1.5,0.4-2.4c0-0.8-0.2-1.7-0.5-2.6 c-0.4-0.9-0.8-1.6-1.4-2.2c-0.6-0.6-1.2-1-2-1.3c-0.7-0.3-1.5-0.5-2.3-0.5C202.7,274.3,201.9,274.4,201.1,274.8L201.1,274.8z M205.2,285.2c-0.6,0.3-1.2,0.4-1.8,0.4c-0.6,0-1.2-0.1-1.7-0.4c-0.5-0.2-1-0.6-1.5-1c-0.4-0.5-0.8-1-1.1-1.7 c-0.3-0.7-0.4-1.3-0.4-2c0-0.6,0.1-1.2,0.3-1.8c0.2-0.6,0.6-1,1-1.5c0.4-0.4,1-0.8,1.6-1c0.6-0.2,1.2-0.4,1.8-0.4 c0.6,0,1.2,0.1,1.7,0.4c0.5,0.3,1,0.6,1.5,1.1c0.4,0.5,0.8,1,1.1,1.7s0.4,1.3,0.4,2s-0.1,1.2-0.3,1.8c-0.2,0.5-0.6,1-1,1.5 C206.3,284.6,205.8,284.9,205.2,285.2L205.2,285.2z M223,278.6l1.8-0.9l-7.6-3.3l1.6-7.6l-1.6,0.8l-1.4,6.9l-2.6,1.3l-2.5-4.9 l-1.5,0.8l5.7,11.1l1.5-0.8l-2.5-4.9l2.5-1.3L223,278.6z M232.8,265.1c-0.5-0.8-1.1-1.4-1.8-1.9c-0.7-0.5-1.4-0.8-2.1-1 c-0.8-0.2-1.5-0.2-2.3-0.1c-0.8,0.1-1.5,0.4-2.3,0.9c-0.8,0.5-1.3,1.1-1.8,1.7c-0.4,0.6-0.8,1.4-0.9,2.1c-0.2,0.8-0.2,1.6,0,2.4 s0.5,1.6,1,2.4c0.5,0.8,1.1,1.4,1.8,1.9c0.7,0.5,1.4,0.8,2.2,1c0.8,0.2,1.6,0.1,2.5,0s1.7-0.5,2.5-1c0.6-0.4,1-0.8,1.5-1.2 c0.4-0.4,0.7-1,1-1.5c0.3-0.5,0.4-1.1,0.5-1.7l-1.4-0.4c-0.1,0.7-0.4,1.4-0.8,1.9c-0.4,0.6-0.9,1.1-1.6,1.5 c-0.6,0.4-1.1,0.6-1.7,0.8c-0.6,0.1-1.2,0.2-1.8,0.1c-0.6-0.1-1.1-0.3-1.6-0.6c-0.5-0.3-1-0.7-1.3-1.3l8.7-5.7 c-0.1-0.1-0.1-0.1-0.1-0.2C232.9,265.3,232.9,265.2,232.8,265.1L232.8,265.1z M225.1,264.3c0.7-0.4,1.4-0.7,2.1-0.8 c0.7-0.1,1.4,0.1,2.1,0.4c0.7,0.3,1.3,0.8,1.8,1.4l-7.4,4.8c-0.4-0.7-0.6-1.5-0.6-2.2c0-0.7,0.2-1.4,0.5-2 C223.9,265.3,224.4,264.8,225.1,264.3L225.1,264.3z M238.1,252.8l-8.6,7l0.9,1.2l3.7-3l6.9,8.5l1.3-1.1l-6.9-8.5l3.7-3L238.1,252.8z M239.2,252l8.7,9l1.2-1.1l-7.6-7.9l5.6-5.4l7.6,7.9l1.2-1.2l-8.7-9L239.2,252z M250.5,241.1l3.3,3.1c0.5,0.4,1,0.9,1.4,1.3 c0.4,0.4,0.9,0.9,1.2,1.3c0.4,0.4,0.7,0.8,0.9,1.3c0.2,0.4,0.3,0.8,0.3,1.1c0,0.4-0.1,0.7-0.4,1c-0.1,0.1-0.1,0.1-0.2,0.2 c-0.1,0.1-0.2,0.1-0.3,0.2l1,1c0.2-0.1,0.4-0.3,0.5-0.4c0.2-0.1,0.3-0.3,0.4-0.4c0.3-0.4,0.5-0.8,0.6-1.3s-0.1-1-0.3-1.5 c-0.2-0.5-0.5-1.1-1-1.6c-0.4-0.6-0.9-1.1-1.5-1.7c-0.6-0.6-1.2-1.1-1.8-1.7l-2.2-2.1l3.8-4.6l8.4,7.1l1.1-1.3l-9.5-8L250.5,241.1z M270,225.7c-0.8-0.5-1.6-0.9-2.4-1.1c-0.8-0.2-1.6-0.3-2.4-0.1c-0.8,0.1-1.5,0.4-2.2,0.8c-0.7,0.4-1.3,1-1.8,1.7 c-0.5,0.7-0.8,1.5-1,2.3c-0.2,0.8-0.2,1.6,0,2.3c0.2,0.8,0.4,1.5,0.9,2.2c0.4,0.7,1.1,1.3,1.8,1.8s1.5,0.9,2.4,1.1 c0.8,0.2,1.6,0.2,2.4,0.1c0.8-0.2,1.5-0.5,2.2-1c0.7-0.5,1.4-1.1,1.9-1.9c0.4-0.5,0.7-1.1,0.9-1.7c0.2-0.6,0.3-1.1,0.4-1.7 c0-0.6,0-1.1-0.2-1.7l-1.5,0.2c0.2,0.7,0.2,1.4,0.1,2.1c-0.2,0.7-0.4,1.4-0.9,2c-0.4,0.6-0.8,1-1.3,1.4c-0.5,0.3-1,0.6-1.6,0.7 c-0.6,0.1-1.1,0.2-1.7,0.1c-0.6-0.1-1.1-0.3-1.7-0.6l6-8.6c-0.1-0.1-0.1-0.1-0.2-0.2C270.1,225.7,270,225.7,270,225.7L270,225.7z M262.5,227.8c0.5-0.7,1-1.2,1.7-1.5c0.7-0.3,1.3-0.5,2.1-0.4c0.7,0.1,1.5,0.3,2.2,0.7l-5.1,7.3c-0.6-0.5-1.1-1.1-1.4-1.8 c-0.3-0.7-0.4-1.4-0.3-2.1C261.7,229.2,262,228.5,262.5,227.8L262.5,227.8z M266.6,214.8c0.3-0.6,0.5-1.2,0.5-1.8 c0-0.6-0.1-1.1-0.4-1.6c-0.3-0.5-0.7-0.9-1.3-1.2l-0.5,1.1c0.4,0.2,0.6,0.4,0.8,0.8c0.2,0.3,0.3,0.7,0.3,1.1c0,0.4-0.1,0.8-0.3,1.2 c-0.2,0.4-0.5,0.7-0.8,1c-0.3,0.2-0.6,0.4-1,0.4c-0.4,0-0.8,0-1.1-0.2l-0.5,1.1c0.6,0.3,1.2,0.4,1.7,0.3s1-0.3,1.5-0.6 C265.9,215.9,266.3,215.4,266.6,214.8L266.6,214.8z M277,226.1l0.6-1.3l-5.3-11.8l8.9,4.3l0.8-1.5l-11.2-5.5l-0.6,1.3l5.3,11.8 l-8.9-4.3l-0.8,1.5L277,226.1z M286.3,206.5c0.3-0.7,0.4-1.3,0.4-2c0.1-0.6,0-1.3-0.2-1.8c-0.1-0.6-0.4-1.1-0.8-1.6l-1.2,0.9 c0.3,0.4,0.5,0.8,0.6,1.3s0.2,0.9,0.1,1.4c0,0.5-0.1,0.9-0.3,1.4c-0.3,0.6-0.6,1.2-1,1.6c-0.4,0.5-0.9,0.8-1.5,1.1 c-0.5,0.2-1.1,0.4-1.8,0.4s-1.3-0.1-2-0.4c-0.7-0.3-1.3-0.6-1.7-1c-0.5-0.4-0.8-0.9-1.1-1.5c-0.3-0.5-0.4-1.1-0.4-1.7 c0-0.6,0.1-1.3,0.4-1.9c0.2-0.5,0.4-0.9,0.7-1.2c0.3-0.4,0.6-0.7,1-1c0.4-0.3,0.8-0.4,1.3-0.6l-0.3-1.5c-0.6,0.1-1.2,0.4-1.7,0.7 c-0.5,0.3-1,0.8-1.3,1.3c-0.4,0.5-0.7,1.1-1,1.8c-0.3,0.9-0.5,1.7-0.5,2.5c0,0.8,0.1,1.7,0.5,2.4c0.3,0.7,0.8,1.4,1.4,2 c0.6,0.6,1.3,1,2.2,1.4s1.7,0.5,2.5,0.5c0.8,0,1.6-0.2,2.4-0.5c0.8-0.3,1.4-0.8,2-1.4S285.9,207.4,286.3,206.5L286.3,206.5z"></path> <path class="st1" d="M52.1,143.5l0.3-1.7l-5.4-1l1.5-7.7l5.4,1l0.3-1.7L42,130.1l-0.3,1.7l5.4,1.1l-1.5,7.7l-5.4-1l-0.3,1.7 L52.1,143.5z M44.5,119.8c-0.2,0.6-0.4,1.2-0.4,1.9c-0.1,0.6-0.1,1.2,0,1.8c0.1,0.6,0.2,1.1,0.4,1.7l1.5-0.3 c-0.2-0.4-0.3-0.9-0.4-1.4c-0.1-0.5-0.1-1,0-1.5c0.1-0.5,0.2-1,0.3-1.5c0.4-1.1,1-1.8,1.7-2.2c0.7-0.4,1.6-0.4,2.6,0l0.7,0.2 l-1.3,3.8c-0.3,0.8-0.4,1.6-0.5,2.2c0,0.6,0.1,1.2,0.3,1.7c0.2,0.4,0.4,0.8,0.8,1.1c0.4,0.3,0.8,0.5,1.2,0.7c0.7,0.2,1.3,0.3,2,0.1 c0.6-0.2,1.2-0.5,1.7-1.1c0.5-0.6,0.9-1.3,1.2-2.2c0.3-1,0.4-1.9,0.3-2.7c-0.1-0.8-0.4-1.5-0.9-2.1l1.8,0.6l0.5-1.5l-7.3-2.5 c-1-0.4-1.9-0.5-2.7-0.3s-1.5,0.5-2.1,1.1C45.3,117.9,44.8,118.7,44.5,119.8L44.5,119.8z M55,124c-0.2,0.6-0.5,1.1-0.8,1.5 c-0.3,0.4-0.7,0.6-1.1,0.8c-0.4,0.1-0.8,0.1-1.3-0.1c-0.4-0.1-0.7-0.4-1-0.6c-0.3-0.3-0.4-0.7-0.4-1.2s0.1-1.1,0.3-1.9l1.3-3.7 l1.9,0.7c0.6,0.6,1.1,1.3,1.3,2C55.4,122.3,55.3,123.1,55,124L55,124z M51.9,102l3.8,2.4c0.6,0.4,1.1,0.7,1.6,1.1 c0.5,0.4,1,0.7,1.5,1.1s0.8,0.7,1.1,1.1c0.3,0.4,0.5,0.7,0.5,1.1c0.1,0.3,0,0.7-0.2,1.1c-0.1,0.1-0.1,0.1-0.2,0.2 c-0.1,0.1-0.1,0.2-0.2,0.3l1.2,0.8c0.2-0.2,0.3-0.3,0.4-0.5c0.1-0.1,0.3-0.3,0.3-0.5c0.3-0.4,0.4-0.9,0.3-1.4 c-0.1-0.4-0.3-0.9-0.5-1.4c-0.3-0.5-0.7-1-1.2-1.4c-0.5-0.5-1.1-1-1.7-1.4c-0.6-0.4-1.3-0.9-2.1-1.4l-2.6-1.7l3-5.2l9.5,5.5l0.8-1.5 L56.4,94L51.9,102z M66.6,79.8c-0.5,0.6-0.9,1.3-1.1,2c-0.2,0.7-0.3,1.4-0.3,2.2s0.2,1.4,0.5,2.1c0.3,0.7,0.8,1.3,1.3,1.9l-1.8,2.2 L61,86.9l-1.1,1.3l9.7,7.9l1.1-1.3l-4.3-3.5l1.8-2.2c0.7,0.5,1.4,0.8,2.2,1c0.7,0.2,1.5,0.2,2.2,0.1c0.7-0.1,1.4-0.4,2.1-0.8 c0.7-0.4,1.3-0.9,1.8-1.5c0.6-0.7,1-1.4,1.2-2.2c0.3-0.8,0.3-1.6,0.2-2.4s-0.3-1.5-0.8-2.3c-0.4-0.7-1-1.4-1.7-2 c-0.7-0.6-1.5-1-2.3-1.2c-0.8-0.3-1.6-0.3-2.4-0.3c-0.8,0.1-1.5,0.3-2.2,0.7C67.8,78.6,67.1,79.1,66.6,79.8L66.6,79.8z M75.3,86.9 c-0.4,0.5-0.9,0.9-1.4,1.2s-1.1,0.4-1.7,0.5c-0.6,0.1-1.2,0-1.8-0.2c-0.6-0.2-1.2-0.5-1.8-1c-0.6-0.5-1-1-1.3-1.5 c-0.3-0.6-0.5-1.1-0.6-1.7c-0.1-0.6,0-1.2,0.1-1.7c0.2-0.6,0.4-1.1,0.9-1.6c0.4-0.5,0.9-0.9,1.4-1.2c0.5-0.3,1.1-0.4,1.7-0.5 c0.6,0,1.2,0,1.8,0.2c0.6,0.2,1.2,0.5,1.8,1c0.6,0.5,1,1,1.3,1.5c0.3,0.6,0.5,1.1,0.6,1.7c0.1,0.6,0.1,1.2-0.1,1.7 C76,85.8,75.7,86.4,75.3,86.9L75.3,86.9z M79.9,67.2c-0.6,0.5-1.1,1.1-1.4,1.7c-0.4,0.6-0.6,1.3-0.7,2c-0.1,0.7-0.1,1.4,0.1,2.1 c-0.6-0.8-1.1-1.5-1.4-2.2C76.2,70,76,69.3,76,68.7s0.1-1.3,0.4-2c0.3-0.7,0.7-1.4,1.3-2.1l3.2-4.3l-1.2-1l-3.5,4.6 c-0.6,0.9-1.1,1.8-1.4,2.6c-0.3,0.9-0.4,1.8-0.4,2.6c0.1,0.9,0.3,1.8,0.8,2.8c0.4,1,1.1,1.9,2,3c0.8,1,1.7,1.8,2.5,2.4 s1.8,1,2.6,1.2c0.9,0.2,1.8,0.2,2.6-0.1c0.9-0.3,1.7-0.7,2.5-1.4c0.7-0.6,1.3-1.3,1.7-2c0.4-0.7,0.6-1.5,0.7-2.2 c0.1-0.8,0-1.6-0.3-2.4c-0.3-0.8-0.7-1.5-1.3-2.2c-0.6-0.7-1.2-1.2-1.9-1.6c-0.7-0.4-1.4-0.6-2.2-0.7c-0.8-0.1-1.5,0-2.2,0.3 C81.3,66.3,80.6,66.7,79.9,67.2L79.9,67.2z M86.7,75.8c-0.5,0.4-1.1,0.7-1.6,0.9c-0.6,0.2-1.1,0.3-1.7,0.2c-0.6-0.1-1.1-0.2-1.7-0.5 c-0.5-0.3-1-0.7-1.5-1.3c-0.4-0.5-0.8-1.1-1-1.7c-0.2-0.6-0.3-1.1-0.2-1.7c0.1-0.6,0.2-1.1,0.5-1.7c0.3-0.5,0.7-1,1.2-1.4 c0.7-0.6,1.4-0.9,2.2-1.1c0.8-0.1,1.5-0.1,2.2,0.2c0.7,0.3,1.4,0.8,2,1.5c0.4,0.6,0.8,1.1,1,1.7c0.2,0.6,0.3,1.2,0.3,1.7 c-0.1,0.6-0.2,1.1-0.5,1.7C87.6,74.9,87.2,75.3,86.7,75.8L86.7,75.8z M99.5,67.9c0.8-0.5,1.4-1.1,1.9-1.7c0.5-0.7,0.8-1.4,1-2.2 c0.2-0.8,0.2-1.6,0.1-2.4c-0.2-0.8-0.5-1.6-1-2.4c-0.5-0.8-1.1-1.4-1.8-1.9c-0.7-0.5-1.4-0.8-2.2-1c-0.8-0.2-1.6-0.2-2.4-0.1 c-0.8,0.1-1.6,0.4-2.4,1c-0.8,0.5-1.4,1.1-1.9,1.7c-0.5,0.7-0.8,1.4-1,2.2c-0.2,0.8-0.2,1.6-0.1,2.4c0.1,0.8,0.4,1.6,0.9,2.4 c0.5,0.8,1.1,1.4,1.8,1.9c0.7,0.5,1.4,0.8,2.2,1c0.8,0.2,1.6,0.2,2.4,0C97.9,68.7,98.7,68.4,99.5,67.9L99.5,67.9z M98.7,66.7 c-0.6,0.3-1.1,0.6-1.8,0.7c-0.6,0.1-1.2,0.1-1.8-0.1c-0.6-0.1-1.1-0.4-1.7-0.8c-0.5-0.4-1-0.9-1.3-1.5c-0.4-0.6-0.6-1.2-0.8-1.9 c-0.1-0.6-0.1-1.2,0-1.8c0.1-0.6,0.4-1.1,0.7-1.6c0.3-0.5,0.8-0.9,1.4-1.3c0.6-0.4,1.1-0.6,1.7-0.7c0.6-0.1,1.2-0.1,1.8,0.1 c0.6,0.1,1.1,0.4,1.7,0.8c0.5,0.4,1,0.9,1.3,1.5c0.4,0.6,0.6,1.2,0.8,1.9c0.1,0.6,0.1,1.2,0,1.8c-0.1,0.6-0.4,1.1-0.7,1.6 C99.7,65.9,99.3,66.3,98.7,66.7L98.7,66.7z M114.2,46.3l-1.3,10.4l-8.5-6.1l-1.6,0.7l5.1,11.4l1.4-0.6l-4-9.1l8,5.6l0.7-0.3l1.2-9.7 l4,9l1.4-0.6l-5.1-11.4L114.2,46.3z M141.4,39.9l-3.8,9.8l-6.7-7.9l-1.7,0.3l2.2,12.3l1.5-0.3l-1.7-9.8l6.4,7.4l0.8-0.1l3.5-9.1 l1.7,9.7l1.5-0.3L143,39.6L141.4,39.9z M154.4,39.2c-0.7,0-1.3,0-1.9,0.2c-0.6,0.1-1.2,0.3-1.7,0.5c-0.5,0.3-1,0.5-1.4,0.9l0.7,1.3 c0.3-0.3,0.7-0.6,1.2-0.8c0.4-0.2,0.9-0.4,1.4-0.5c0.5-0.1,1-0.2,1.6-0.2c1.2,0,2,0.3,2.6,0.9c0.6,0.6,0.9,1.4,0.8,2.5v0.8l-4-0.1 c-0.9,0-1.7,0.1-2.3,0.2c-0.6,0.2-1.1,0.4-1.5,0.8c-0.4,0.3-0.7,0.7-0.8,1.1c-0.2,0.4-0.3,0.9-0.3,1.4c0,0.7,0.2,1.3,0.5,1.9 c0.3,0.5,0.9,1,1.5,1.3c0.7,0.3,1.5,0.5,2.4,0.5c1,0,1.9-0.2,2.7-0.5c0.7-0.3,1.3-0.8,1.7-1.5l0,1.9l1.6,0l0.1-7.7 c0-1.1-0.2-2-0.5-2.7c-0.4-0.7-1-1.3-1.7-1.6C156.4,39.4,155.5,39.2,154.4,39.2L154.4,39.2z M153.7,50.5c-0.7,0-1.2-0.1-1.7-0.3 c-0.5-0.2-0.8-0.4-1.1-0.8c-0.3-0.4-0.4-0.8-0.4-1.3c0-0.4,0.1-0.8,0.3-1.1c0.2-0.3,0.5-0.6,1-0.8c0.5-0.2,1.1-0.3,1.9-0.3l3.9,0.1 l-0.1,2c-0.3,0.8-0.8,1.4-1.5,1.8C155.4,50.4,154.6,50.5,153.7,50.5L153.7,50.5z M171.6,40.5c-0.7-0.1-1.3-0.1-2,0.1 c-0.6,0.1-1.2,0.3-1.7,0.6c-0.5,0.3-1,0.7-1.4,1.2l0.3-2.4l-1.6-0.2l-2.1,17l1.7,0.2l0.9-6.9c0.3,0.6,0.6,1.1,1.1,1.5 c0.4,0.4,0.9,0.8,1.5,1c0.6,0.3,1.2,0.4,1.8,0.5c0.9,0.1,1.7,0.1,2.5-0.1c0.8-0.2,1.5-0.6,2.1-1.1c0.6-0.5,1.1-1.1,1.5-1.8 c0.4-0.7,0.6-1.6,0.8-2.5c0.1-0.9,0.1-1.8-0.2-2.6c-0.2-0.8-0.6-1.5-1-2.2c-0.5-0.6-1.1-1.1-1.8-1.5 C173.3,40.9,172.5,40.6,171.6,40.5L171.6,40.5z M170.2,51.6c-0.6-0.1-1.3-0.3-1.8-0.6c-0.5-0.3-1-0.7-1.3-1.1 c-0.4-0.5-0.6-1-0.8-1.7c-0.1-0.6-0.2-1.3-0.1-2c0.1-0.7,0.3-1.3,0.6-1.9c0.3-0.6,0.7-1,1.1-1.4c0.5-0.4,1-0.6,1.6-0.8 c0.6-0.2,1.2-0.2,1.9-0.1c0.6,0.1,1.2,0.3,1.8,0.6c0.5,0.3,1,0.7,1.3,1.1c0.4,0.5,0.6,1,0.8,1.7s0.2,1.3,0.1,2s-0.3,1.4-0.6,1.9 c-0.3,0.6-0.7,1-1.2,1.4c-0.4,0.4-1,0.6-1.6,0.8C171.4,51.6,170.8,51.6,170.2,51.6L170.2,51.6z M188.5,57.5l1.9,0.5l-3.4-7.6 l6.3-4.6l-1.8-0.5l-5.7,4.2l-2.8-0.8l1.4-5.3l-1.6-0.4l-3.2,12l1.6,0.4l1.4-5.4l2.7,0.7L188.5,57.5z M205.4,58 c0.4-0.8,0.6-1.7,0.6-2.5c0.1-0.8-0.1-1.6-0.3-2.4c-0.3-0.7-0.7-1.4-1.2-2c-0.6-0.6-1.2-1-2-1.4c-0.8-0.4-1.6-0.5-2.4-0.6 s-1.6,0.1-2.3,0.4c-0.7,0.3-1.4,0.7-2,1.3c-0.6,0.6-1.1,1.3-1.5,2.1c-0.4,0.8-0.6,1.7-0.6,2.5c0,0.8,0.1,1.6,0.4,2.4 c0.3,0.8,0.8,1.5,1.4,2c0.6,0.6,1.3,1.1,2.2,1.5c0.6,0.3,1.2,0.4,1.8,0.6c0.6,0.1,1.2,0.1,1.8,0c0.6-0.1,1.1-0.2,1.7-0.5l-0.4-1.4 c-0.6,0.3-1.3,0.4-2,0.4c-0.7,0-1.4-0.2-2.1-0.5c-0.6-0.3-1.2-0.6-1.6-1c-0.4-0.4-0.8-0.9-1-1.4c-0.3-0.5-0.4-1.1-0.4-1.7 s0.1-1.2,0.3-1.8l9.5,4.3c0-0.1,0.1-0.2,0.1-0.3C205.3,58.1,205.4,58.1,205.4,58L205.4,58z M201.9,51.1c0.8,0.3,1.3,0.8,1.8,1.4 c0.4,0.6,0.7,1.2,0.8,2c0.1,0.7,0,1.5-0.3,2.3l-8.1-3.6c0.4-0.7,0.9-1.3,1.5-1.7c0.6-0.4,1.3-0.6,2-0.7 C200.4,50.6,201.1,50.8,201.9,51.1L201.9,51.1z M220,59.8l-9.4-5.9l-0.8,1.3l4,2.5L208,67l1.4,0.9l5.8-9.3l4,2.5L220,59.8z M223.6,62.1l-8,9.6l1.3,1.1l7.1-8.4l6,5l-7.1,8.4l1.3,1.1l8-9.6L223.6,62.1z M237.6,74.8l-3.5,2.7c-0.5,0.4-1.1,0.8-1.6,1.2 c-0.5,0.4-1,0.7-1.5,1c-0.5,0.3-0.9,0.5-1.4,0.7c-0.4,0.1-0.8,0.2-1.2,0.2c-0.4-0.1-0.7-0.2-1-0.5c-0.1-0.1-0.1-0.1-0.2-0.2 c-0.1-0.1-0.1-0.2-0.1-0.3l-1.2,0.8c0.1,0.2,0.2,0.4,0.3,0.6c0.1,0.2,0.2,0.3,0.3,0.4c0.4,0.4,0.8,0.7,1.2,0.8 c0.5,0.1,1,0.1,1.5-0.1c0.5-0.1,1.1-0.4,1.7-0.7c0.6-0.3,1.2-0.7,1.9-1.2c0.6-0.4,1.3-1,2-1.5l2.4-1.9l3.9,4.5l-8.3,7.2l1.1,1.3 l9.4-8.2L237.6,74.8z M248.4,99.3c0.8-0.5,1.4-1.1,1.9-1.8c0.5-0.7,0.8-1.4,1-2.2c0.2-0.8,0.2-1.5,0.1-2.3c-0.1-0.8-0.4-1.5-0.9-2.3 c-0.5-0.7-1.1-1.3-1.7-1.8c-0.6-0.4-1.4-0.8-2.1-0.9c-0.8-0.1-1.6-0.1-2.4,0s-1.6,0.5-2.4,1c-0.8,0.5-1.4,1.1-1.9,1.8 c-0.5,0.7-0.8,1.4-1,2.2c-0.2,0.8-0.1,1.6,0,2.4c0.2,0.8,0.5,1.7,1.1,2.5c0.3,0.6,0.8,1,1.2,1.5c0.4,0.4,1,0.8,1.5,1 c0.5,0.2,1.1,0.4,1.7,0.5l0.4-1.4c-0.7-0.1-1.4-0.3-1.9-0.8c-0.6-0.4-1.1-0.9-1.5-1.5c-0.4-0.6-0.6-1.2-0.8-1.8 c-0.1-0.6-0.2-1.2-0.1-1.7c0.1-0.6,0.3-1.1,0.6-1.6c0.3-0.5,0.7-1,1.3-1.4l5.7,8.8c0.1-0.1,0.1-0.1,0.2-0.1 C248.3,99.4,248.3,99.3,248.4,99.3L248.4,99.3z M249.2,91.5c0.4,0.7,0.7,1.4,0.8,2.1s-0.1,1.4-0.4,2.1c-0.3,0.7-0.8,1.3-1.4,1.8 l-4.8-7.4c0.7-0.4,1.5-0.6,2.2-0.6c0.7,0,1.4,0.1,2,0.5C248.2,90.4,248.7,90.9,249.2,91.5L249.2,91.5z M260.5,105.1 c0.3,0.6,0.7,1.1,1.1,1.5c0.4,0.4,0.9,0.6,1.5,0.7c0.5,0.1,1.1,0,1.7-0.3l-0.5-1.1c-0.4,0.2-0.8,0.2-1.1,0.2c-0.4-0.1-0.7-0.2-1-0.4 c-0.3-0.3-0.5-0.6-0.7-1c-0.2-0.4-0.3-0.8-0.3-1.2c0-0.4,0.1-0.7,0.3-1c0.2-0.3,0.5-0.5,0.9-0.7l-0.5-1.1c-0.6,0.3-1,0.7-1.3,1.1 c-0.3,0.5-0.4,1-0.4,1.6C260,103.9,260.2,104.5,260.5,105.1L260.5,105.1z M245.2,106l0.6,1.4l12.5,3.3l-9,4.2l0.7,1.5l11.3-5.3 l-0.6-1.3l-12.5-3.4l9-4.2l-0.7-1.5L245.2,106z M253,126.1c0.2,0.7,0.5,1.3,0.8,1.8c0.4,0.5,0.8,1,1.3,1.4c0.5,0.4,1,0.6,1.7,0.8 l0.5-1.4c-0.5-0.2-0.9-0.4-1.3-0.7c-0.3-0.3-0.6-0.6-0.9-1c-0.3-0.4-0.4-0.8-0.6-1.3c-0.2-0.7-0.3-1.3-0.2-1.9 c0.1-0.6,0.2-1.2,0.5-1.7c0.3-0.5,0.7-1,1.2-1.4c0.5-0.4,1.1-0.7,1.8-0.9c0.7-0.2,1.4-0.3,2-0.2c0.6,0.1,1.2,0.2,1.7,0.5 c0.5,0.3,1,0.7,1.3,1.2c0.4,0.5,0.7,1.1,0.9,1.7c0.1,0.5,0.2,0.9,0.2,1.4s-0.1,0.9-0.3,1.3c-0.2,0.4-0.4,0.9-0.7,1.3l1.2,1 c0.4-0.5,0.8-1,1-1.6c0.2-0.6,0.3-1.2,0.3-1.8c0-0.6-0.1-1.3-0.3-2c-0.3-0.9-0.6-1.7-1.1-2.4c-0.5-0.7-1.1-1.2-1.8-1.6 c-0.7-0.4-1.5-0.6-2.3-0.7c-0.8-0.1-1.7,0-2.6,0.3c-0.9,0.3-1.7,0.6-2.3,1.1c-0.7,0.5-1.2,1.1-1.6,1.8c-0.4,0.7-0.6,1.5-0.7,2.3 C252.6,124.4,252.7,125.2,253,126.1L253,126.1z M263.3,143.5c0.9-0.2,1.7-0.5,2.4-0.9c0.7-0.4,1.3-1,1.7-1.6 c0.4-0.6,0.8-1.3,0.9-2.1c0.2-0.8,0.2-1.6,0-2.5c-0.2-0.9-0.5-1.6-0.9-2.3c-0.4-0.7-1-1.2-1.7-1.7c-0.7-0.4-1.4-0.7-2.2-0.9 c-0.8-0.1-1.7-0.1-2.6,0c-0.9,0.2-1.7,0.5-2.4,1c-0.7,0.4-1.3,1-1.7,1.7c-0.4,0.7-0.8,1.5-0.9,2.3c-0.2,0.8-0.1,1.7,0,2.7 c0.1,0.6,0.3,1.3,0.6,1.8c0.3,0.6,0.6,1.1,1,1.5c0.4,0.4,0.9,0.8,1.4,1.1l0.9-1.1c-0.6-0.4-1.1-0.8-1.5-1.4c-0.4-0.6-0.7-1.3-0.8-2 c-0.1-0.7-0.1-1.3-0.1-1.9c0.1-0.6,0.3-1.1,0.6-1.7c0.3-0.5,0.7-0.9,1.1-1.3c0.5-0.3,1-0.6,1.7-0.8l2,10.3c0.1,0,0.2,0,0.3-0.1 C263.1,143.5,263.2,143.5,263.3,143.5L263.3,143.5z M266.9,136.6c0.2,0.8,0.1,1.5-0.1,2.2c-0.2,0.7-0.6,1.3-1.1,1.8 c-0.5,0.5-1.2,0.9-2,1.1l-1.7-8.7c0.8-0.1,1.6,0,2.2,0.3c0.7,0.3,1.3,0.7,1.7,1.2C266.4,135.1,266.7,135.8,266.9,136.6L266.9,136.6z "></path> <path class="st1" d="M58,217.7l1,1.4l4.5-3.2l4.5,6.4l-4.5,3.1l1,1.4l10.2-7.1l-1-1.4l-4.5,3.2l-4.5-6.4l4.5-3.2l-1-1.4L58,217.7z M79.7,224.9c-0.4-0.5-1-0.9-1.5-1.3s-1-0.6-1.6-0.9s-1.1-0.4-1.7-0.4l-0.4,1.4c0.4,0.1,0.9,0.1,1.4,0.3c0.4,0.2,0.9,0.4,1.3,0.7 c0.4,0.3,0.8,0.6,1.2,1c0.8,0.8,1.2,1.7,1.2,2.5c0,0.8-0.4,1.6-1.2,2.3l-0.6,0.5l-2.7-2.9c-0.6-0.6-1.2-1.1-1.7-1.5 c-0.6-0.3-1.1-0.5-1.6-0.6c-0.5-0.1-1,0-1.4,0.2s-0.8,0.4-1.1,0.8c-0.5,0.5-0.9,1-1,1.7c-0.1,0.6-0.1,1.3,0.2,2 c0.2,0.7,0.7,1.4,1.3,2.1c0.7,0.8,1.4,1.3,2.2,1.5c0.8,0.3,1.5,0.3,2.2,0.2l-1.4,1.3l1.1,1.2l5.6-5.3c0.8-0.7,1.3-1.5,1.6-2.3 c0.3-0.8,0.3-1.6,0-2.4C81,226.4,80.5,225.7,79.7,224.9L79.7,224.9z M71,232.2c-0.4-0.5-0.8-1-1-1.4c-0.2-0.5-0.2-0.9-0.1-1.3 c0.1-0.4,0.3-0.8,0.6-1.1c0.3-0.3,0.7-0.5,1-0.6c0.4-0.1,0.8,0,1.3,0.2c0.5,0.2,1,0.6,1.5,1.2l2.7,2.9l-1.5,1.4 c-0.8,0.3-1.6,0.4-2.4,0.2C72.4,233.3,71.7,232.9,71,232.2L71,232.2z M92,243.9c0.7,0.2,1.3,0.2,1.9,0s1.1-0.5,1.5-1.1 c0.4-0.5,0.6-1.1,0.6-1.7c0-0.6-0.2-1.2-0.6-1.8c-0.4-0.6-1-1.2-1.7-1.7l-4.5-3.2l-7.3,10.1l4.6,3.3c1.3,1,2.5,1.4,3.4,1.4 c1,0,1.8-0.4,2.4-1.3c0.5-0.6,0.7-1.3,0.7-2C92.9,245.2,92.6,244.6,92,243.9L92,243.9z M89.7,236.4l3.1,2.2c0.8,0.6,1.3,1.1,1.5,1.7 c0.2,0.6,0.1,1.1-0.3,1.7s-0.9,0.8-1.6,0.8c-0.6,0-1.3-0.3-2.1-0.9l-3-2.2L89.7,236.4z M87.1,246.6l-3.2-2.3l2.5-3.5l3.4,2.4 c0.8,0.6,1.4,1.2,1.6,1.8c0.2,0.6,0.1,1.2-0.4,1.8c-0.4,0.6-1,0.9-1.6,0.8C88.7,247.6,87.9,247.3,87.1,246.6L87.1,246.6z M107.7,246.4l-9.5-5.7l-0.8,1.3l4,2.4l-5.6,9.4l1.4,0.9l5.7-9.4l4,2.4L107.7,246.4z M108,260.3c0.8,0.4,1.7,0.6,2.5,0.6 c0.8,0.1,1.6-0.1,2.4-0.3c0.8-0.3,1.4-0.7,2-1.3c0.6-0.6,1.1-1.3,1.5-2.1c0.4-0.8,0.6-1.7,0.6-2.5c0.1-0.8-0.1-1.6-0.3-2.4 c-0.3-0.8-0.7-1.4-1.3-2c-0.6-0.6-1.3-1.1-2.1-1.5c-0.8-0.4-1.7-0.6-2.5-0.6c-0.8-0.1-1.6,0.1-2.4,0.3c-0.8,0.3-1.5,0.7-2.1,1.2 c-0.6,0.6-1.1,1.3-1.5,2.1c-0.4,0.8-0.6,1.7-0.6,2.5c0,0.8,0.1,1.7,0.4,2.4c0.3,0.8,0.7,1.4,1.3,2 C106.5,259.4,107.2,259.9,108,260.3L108,260.3z M108.6,259c-0.6-0.3-1.1-0.6-1.5-1.1c-0.4-0.4-0.7-1-0.9-1.5 c-0.2-0.6-0.3-1.1-0.2-1.8c0.1-0.6,0.2-1.3,0.5-2c0.3-0.6,0.7-1.2,1.1-1.7c0.5-0.4,1-0.8,1.5-1c0.6-0.2,1.1-0.3,1.7-0.3 c0.6,0,1.2,0.2,1.8,0.4c0.6,0.3,1.1,0.6,1.5,1.1c0.4,0.4,0.7,1,0.9,1.5c0.2,0.6,0.3,1.2,0.2,1.8c0,0.6-0.2,1.3-0.5,1.9 c-0.3,0.7-0.7,1.2-1.2,1.7c-0.4,0.4-1,0.8-1.5,1c-0.6,0.2-1.1,0.3-1.7,0.3C109.8,259.4,109.2,259.2,108.6,259L108.6,259z M127.1,253.5c-0.7-0.2-1.3-0.3-2-0.3c-0.6,0-1.2,0.1-1.8,0.4c-0.6,0.2-1.1,0.6-1.6,1l0.7-2.4l-1.5-0.4l-4.7,16.4l1.6,0.5l1.9-6.7 c0.2,0.6,0.5,1.2,0.8,1.7c0.4,0.5,0.8,0.9,1.3,1.2c0.5,0.4,1.1,0.6,1.7,0.8c0.8,0.2,1.7,0.3,2.5,0.2c0.8-0.1,1.6-0.3,2.2-0.7 c0.7-0.4,1.3-0.9,1.8-1.6c0.5-0.7,0.9-1.5,1.1-2.4c0.3-0.9,0.4-1.8,0.3-2.6c-0.1-0.8-0.3-1.6-0.7-2.3c-0.4-0.7-0.9-1.3-1.5-1.8 C128.7,254.1,127.9,253.8,127.1,253.5L127.1,253.5z M123.8,264.3c-0.6-0.2-1.2-0.5-1.7-0.8c-0.5-0.4-0.8-0.8-1.1-1.3 c-0.3-0.5-0.4-1.1-0.5-1.8c-0.1-0.6,0-1.3,0.2-2c0.2-0.7,0.5-1.3,0.9-1.8c0.4-0.5,0.8-0.9,1.4-1.2c0.5-0.3,1.1-0.5,1.7-0.6 c0.6-0.1,1.2,0,1.9,0.2c0.6,0.2,1.2,0.5,1.7,0.9c0.5,0.4,0.8,0.8,1.1,1.3c0.3,0.5,0.5,1.1,0.5,1.8c0.1,0.6,0,1.3-0.2,2 c-0.2,0.7-0.5,1.3-0.9,1.8c-0.4,0.5-0.8,0.9-1.4,1.2c-0.5,0.3-1.1,0.5-1.7,0.5C125.1,264.5,124.5,264.4,123.8,264.3L123.8,264.3z M138.1,269c0.9,0.1,1.8,0.1,2.6-0.2c0.8-0.2,1.5-0.6,2.2-1.1c0.6-0.5,1.1-1.1,1.5-1.8c0.4-0.7,0.7-1.6,0.8-2.5 c0.1-0.9,0.1-1.8-0.1-2.6c-0.2-0.8-0.6-1.5-1.1-2.2c-0.5-0.6-1.1-1.1-1.8-1.5c-0.7-0.4-1.5-0.6-2.5-0.8c-0.9-0.1-1.8-0.1-2.5,0.2 c-0.8,0.2-1.5,0.6-2.2,1.1c-0.6,0.5-1.2,1.1-1.6,1.8c-0.4,0.7-0.7,1.5-0.8,2.5s-0.1,1.8,0.1,2.6c0.2,0.8,0.6,1.5,1.1,2.2 c0.5,0.6,1.1,1.1,1.8,1.5C136.4,268.6,137.2,268.9,138.1,269L138.1,269z M138.3,267.5c-0.7-0.1-1.3-0.3-1.8-0.6 c-0.5-0.3-1-0.7-1.3-1.2c-0.4-0.5-0.6-1-0.8-1.6c-0.2-0.6-0.2-1.3-0.1-2c0.1-0.7,0.3-1.4,0.6-1.9c0.3-0.6,0.7-1,1.2-1.4 c0.4-0.4,1-0.6,1.6-0.8c0.6-0.2,1.2-0.2,1.9-0.1c0.7,0.1,1.3,0.3,1.8,0.6c0.5,0.3,1,0.7,1.3,1.1c0.4,0.5,0.6,1,0.8,1.7 c0.2,0.6,0.2,1.3,0.1,2c-0.1,0.7-0.3,1.4-0.6,1.9c-0.3,0.6-0.7,1-1.1,1.4c-0.5,0.4-1,0.6-1.6,0.8C139.6,267.5,139,267.6,138.3,267.5 L138.3,267.5z M154.3,255.6c0.7,0,1.3-0.1,1.9-0.3c0.5-0.2,1-0.5,1.3-1c0.3-0.4,0.5-1,0.5-1.7l-1.2,0c0,0.4-0.1,0.8-0.4,1.1 s-0.5,0.5-0.8,0.7c-0.4,0.2-0.8,0.2-1.2,0.2c-0.5,0-0.9-0.1-1.2-0.3c-0.3-0.2-0.6-0.4-0.8-0.7s-0.3-0.7-0.3-1.1l-1.2-0.1 c0,0.7,0.1,1.2,0.4,1.7c0.3,0.5,0.7,0.8,1.2,1.1C153,255.5,153.6,255.6,154.3,255.6L154.3,255.6z M148.1,269.7l1.5,0.1l8.6-9.6 l-0.3,9.9l1.7,0.1l0.4-12.5l-1.5-0.1l-8.7,9.6l0.3-9.9l-1.7-0.1L148.1,269.7z M170.6,268.9l1.5-0.3l6.3-11.3l1.9,9.8l1.7-0.3 l-2.4-12.2l-1.5,0.3l-6.3,11.3l-1.9-9.7l-1.7,0.3L170.6,268.9z M188.8,251.5l1.5,4.2c0.2,0.6,0.4,1.3,0.6,1.9 c0.2,0.6,0.4,1.2,0.5,1.7c0.1,0.6,0.2,1.1,0.2,1.5c0,0.4-0.1,0.8-0.2,1.2s-0.4,0.6-0.8,0.7c-0.1,0-0.2,0.1-0.3,0.1 c-0.1,0-0.2,0.1-0.3,0.1l0.4,1.4c0.3,0,0.4-0.1,0.6-0.1c0.2-0.1,0.4-0.1,0.6-0.2c0.5-0.2,0.9-0.5,1.1-0.9c0.2-0.4,0.4-0.9,0.4-1.4 c0.1-0.6,0-1.2-0.1-1.9c-0.1-0.7-0.3-1.4-0.5-2.2c-0.2-0.8-0.5-1.6-0.8-2.4l-1-2.9l5.5-2.2l4.1,10.2l1.6-0.6l-4.7-11.6L188.8,251.5z M209.1,241.6c-0.7,0.4-1.3,0.9-1.8,1.5c-0.5,0.6-0.8,1.2-1,1.9s-0.3,1.4-0.3,2.2c0.1,0.8,0.3,1.5,0.6,2.3l-2.5,1.5l-2.8-4.6 l-1.4,0.9l6.4,10.7l1.5-0.9l-2.9-4.8l2.4-1.5c0.5,0.7,1.1,1.2,1.7,1.6c0.6,0.4,1.3,0.7,2.1,0.9c0.7,0.1,1.5,0.1,2.2,0 c0.8-0.1,1.5-0.4,2.2-0.8c0.8-0.4,1.4-1,1.9-1.7c0.5-0.6,0.8-1.3,1-2.1c0.2-0.8,0.2-1.6,0.1-2.4c-0.1-0.8-0.4-1.7-0.9-2.4 c-0.5-0.8-1.1-1.5-1.7-2c-0.7-0.5-1.4-0.8-2.2-1c-0.8-0.2-1.5-0.3-2.4-0.1C210.7,240.9,209.9,241.2,209.1,241.6L209.1,241.6z M214.9,251.2c-0.5,0.3-1.1,0.6-1.7,0.6c-0.6,0.1-1.2,0-1.7-0.1c-0.6-0.1-1.1-0.4-1.6-0.8c-0.5-0.4-0.9-0.9-1.3-1.5 c-0.4-0.6-0.6-1.3-0.7-1.9c-0.1-0.6-0.1-1.2,0-1.8c0.1-0.6,0.4-1.1,0.7-1.6c0.3-0.5,0.8-0.9,1.3-1.2c0.6-0.3,1.1-0.5,1.7-0.6 c0.6-0.1,1.2-0.1,1.7,0.1c0.6,0.1,1.1,0.4,1.6,0.8c0.5,0.4,1,0.9,1.3,1.5c0.4,0.6,0.6,1.3,0.7,1.9c0.1,0.6,0.1,1.2,0,1.8 c-0.1,0.6-0.4,1.1-0.7,1.6C215.9,250.5,215.4,250.9,214.9,251.2L214.9,251.2z M220.1,234c-0.6,0.5-1,1.1-1.4,1.7 c-0.3,0.6-0.5,1.3-0.6,2c-0.1,0.7,0,1.4,0.1,2.1c-0.6-0.8-1.1-1.5-1.4-2.2c-0.3-0.7-0.5-1.4-0.5-2.1c0-0.7,0.1-1.3,0.4-2 c0.3-0.7,0.6-1.4,1.2-2.1l3.1-4.4l-1.3-1l-3.3,4.7c-0.6,0.9-1.1,1.8-1.3,2.7c-0.3,0.9-0.4,1.8-0.3,2.6c0.1,0.9,0.4,1.8,0.9,2.7 c0.5,0.9,1.2,1.9,2.1,2.9c0.8,1,1.7,1.7,2.6,2.2s1.8,0.9,2.7,1.1c0.9,0.1,1.8,0.1,2.6-0.2c0.9-0.3,1.7-0.7,2.5-1.4 c0.7-0.6,1.2-1.3,1.6-2c0.4-0.8,0.6-1.5,0.6-2.3c0.1-0.8-0.1-1.5-0.4-2.3c-0.3-0.8-0.7-1.5-1.3-2.2c-0.6-0.7-1.3-1.2-2-1.5 c-0.7-0.4-1.4-0.6-2.2-0.6c-0.8-0.1-1.5,0.1-2.2,0.3C221.5,233,220.8,233.4,220.1,234L220.1,234z M227.3,242.3c-0.5,0.4-1,0.8-1.6,1 c-0.6,0.2-1.1,0.3-1.7,0.2c-0.6,0-1.1-0.2-1.7-0.5c-0.6-0.3-1.1-0.7-1.5-1.2c-0.4-0.5-0.8-1.1-1-1.7c-0.2-0.6-0.3-1.1-0.3-1.7 c0-0.6,0.2-1.1,0.4-1.7c0.3-0.5,0.7-1,1.1-1.5c0.7-0.6,1.4-1,2.2-1.1c0.8-0.2,1.5-0.1,2.3,0.1c0.7,0.3,1.4,0.7,2,1.4 c0.5,0.5,0.8,1.1,1,1.7c0.2,0.6,0.3,1.1,0.3,1.7c0,0.6-0.1,1.1-0.4,1.7C228.1,241.4,227.7,241.8,227.3,242.3L227.3,242.3z M239.1,233.1c0.6-0.7,1.1-1.4,1.4-2.2c0.3-0.8,0.4-1.6,0.4-2.4c0-0.8-0.2-1.6-0.6-2.3c-0.3-0.8-0.9-1.5-1.5-2.1 c-0.7-0.6-1.4-1.1-2.2-1.4c-0.8-0.3-1.6-0.4-2.4-0.4c-0.8,0-1.6,0.2-2.3,0.6c-0.8,0.3-1.5,0.8-2.1,1.5c-0.6,0.7-1.1,1.4-1.4,2.2 c-0.3,0.8-0.4,1.6-0.4,2.4c0,0.8,0.2,1.6,0.6,2.4c0.4,0.8,0.9,1.5,1.5,2.1c0.7,0.6,1.4,1.1,2.2,1.4c0.8,0.3,1.6,0.4,2.4,0.4 c0.8,0,1.6-0.2,2.4-0.6C237.8,234.3,238.4,233.7,239.1,233.1L239.1,233.1z M238,232.1c-0.4,0.5-1,0.8-1.5,1.1 c-0.6,0.3-1.1,0.4-1.7,0.4c-0.6,0-1.2-0.1-1.8-0.3c-0.6-0.3-1.1-0.6-1.7-1.1c-0.5-0.5-1-1-1.2-1.6c-0.3-0.6-0.4-1.1-0.4-1.8 c0-0.6,0.1-1.2,0.3-1.7c0.2-0.6,0.6-1.1,1-1.6c0.4-0.5,1-0.9,1.5-1.1s1.1-0.4,1.7-0.4c0.6,0,1.2,0.1,1.8,0.3 c0.6,0.3,1.1,0.6,1.7,1.1c0.5,0.5,0.9,1,1.2,1.6c0.3,0.6,0.4,1.2,0.5,1.8c0,0.6-0.1,1.2-0.3,1.7C238.8,231,238.4,231.6,238,232.1 L238,232.1z M237.1,212.6c0.4-0.6,0.6-1.2,0.8-1.7s0.1-1.1-0.1-1.6c-0.2-0.5-0.6-1-1.1-1.4l-0.7,1c0.3,0.3,0.6,0.5,0.7,0.9 c0.1,0.3,0.2,0.7,0.1,1.1c-0.1,0.4-0.2,0.8-0.5,1.1c-0.3,0.4-0.6,0.6-0.9,0.8c-0.3,0.2-0.7,0.3-1,0.3c-0.4,0-0.7-0.1-1.1-0.4l-0.7,1 c0.6,0.4,1.1,0.6,1.7,0.6c0.5,0,1.1-0.1,1.6-0.4C236.3,213.6,236.7,213.2,237.1,212.6L237.1,212.6z M245.5,225.4l0.9-1.2l-3.3-12.5 l8.1,5.7l1-1.4l-10.2-7.2l-0.8,1.2l3.3,12.5l-8.1-5.7l-1,1.4L245.5,225.4z"></path> <path class="st2" d="M32.2,158.8c6.6,0,11.9,5.3,11.9,11.9c0,6.6-5.3,11.9-11.9,11.9s-11.9-5.3-11.9-11.9 C20.4,164.1,25.7,158.8,32.2,158.8L32.2,158.8z"></path> <path class="st2" d="M276.6,158.8c-6.6,0-11.9,5.3-11.9,11.9c0,6.6,5.3,11.9,11.9,11.9c6.6,0,11.9-5.3,11.9-11.9 C288.5,164.1,283.2,158.8,276.6,158.8L276.6,158.8z"></path> </svg> 