<?xml version="1.0" encoding="UTF-8"?> <svg xmlns="http://www.w3.org/2000/svg" width="1680" height="141" viewBox="0 0 1680 141" fill="none"> <rect x="1680" y="1" width="140" height="1680" transform="rotate(90 1680 1)" fill="#BA3D94"></rect> <rect x="980" y="141" width="140" height="70" transform="rotate(-180 980 141)" fill="#8F2980"></rect> <rect x="980" y="71" width="70" height="70" transform="rotate(-180 980 71)" fill="#7D2670"></rect> <path fill-rule="evenodd" clip-rule="evenodd" d="M1540 21.4165L1540 40.861L1680 40.861L1680 21.4165L1540 21.4165ZM1540 80.7218L1540 61.2774L1680 61.2774L1680 80.7218L1540 80.7218ZM1540 120.583L1540 101.139L1680 101.139L1680 120.583L1540 120.583Z" fill="#7D2670"></path> <path fill-rule="evenodd" clip-rule="evenodd" d="M580.417 141L599.861 141L599.861 0.999979L580.417 0.999978L580.417 141ZM639.722 141L620.278 141L620.278 0.999981L639.722 0.999983L639.722 141ZM679.583 141L660.139 141L660.139 0.999985L679.584 0.999986L679.583 141Z" fill="#7D2670"></path> <path fill-rule="evenodd" clip-rule="evenodd" d="M140.025 0.999994L140.025 141C178.865 139.97 210.025 109.024 210.025 71C210.025 32.9759 178.865 2.03024 140.025 0.999994Z" fill="#7D2670"></path> <circle cx="1032.5" cy="123.418" r="17.5" transform="rotate(-90 1032.5 123.418)" fill="#7D2670"></circle> <circle cx="1067.5" cy="123.418" r="17.5" transform="rotate(-90 1067.5 123.418)" fill="#7D2670"></circle> <circle cx="1032.5" cy="88.4165" r="17.5" transform="rotate(-90 1032.5 88.4165)" fill="#7D2670"></circle> <circle cx="1067.5" cy="88.4165" r="17.5" transform="rotate(-90 1067.5 88.4165)" fill="#7D2670"></circle> <circle cx="1032.5" cy="53.417" r="17.5" transform="rotate(-90 1032.5 53.417)" fill="#7D2670"></circle> <circle cx="1067.5" cy="53.417" r="17.5" transform="rotate(-90 1067.5 53.417)" fill="#7D2670"></circle> <circle cx="1032.5" cy="18.417" r="17.5" transform="rotate(-90 1032.5 18.417)" fill="#7D2670"></circle> <circle cx="1067.5" cy="18.417" r="17.5" transform="rotate(-90 1067.5 18.417)" fill="#7D2670"></circle> <path fill-rule="evenodd" clip-rule="evenodd" d="M700 141L840 141L840 0.999993L700 0.999987L700 141ZM770 105.027L805 70.0273L770 35.0273L735 70.0273L770 105.027Z" fill="#7D2670"></path> <circle cx="490" cy="71" r="70" transform="rotate(-180 490 71)" fill="#7D2670"></circle> <rect x="1540" y="0.993652" width="69.9998" height="69.9998" transform="rotate(90 1540 0.993652)" fill="#7D2670"></rect> <rect x="1470" y="70.9941" width="69.9998" height="69.9998" transform="rotate(90 1470 70.9941)" fill="#7D2670"></rect> <path fill-rule="evenodd" clip-rule="evenodd" d="M1190 0.99999C1151.34 0.999988 1120 32.3401 1120 71C1120 109.66 1151.34 141 1190 141C1228.66 141 1260 109.66 1260 71C1260 32.3401 1228.66 0.999992 1190 0.99999ZM1190 35.9998C1170.67 35.9998 1155 51.6698 1155 70.9998C1155 90.3297 1170.67 106 1190 106C1209.33 106 1225 90.3297 1225 70.9998C1225 51.6698 1209.33 35.9998 1190 35.9998Z" fill="#7D2670"></path> <path fill-rule="evenodd" clip-rule="evenodd" d="M1330.02 141L1400.02 141L1400.02 71L1400.02 0.999993L1330.02 0.99999L1260.02 0.999987L1260.02 71L1260.02 141L1330.02 141ZM1330.02 141C1291.36 141 1260.02 109.66 1260.02 71C1260.02 32.3401 1291.36 0.999988 1330.02 0.99999C1368.68 0.999992 1400.02 32.3401 1400.02 71C1400.02 109.66 1368.68 141 1330.02 141Z" fill="#7D2670"></path> <circle cx="17.4999" cy="53.4995" r="17.5" fill="#ED218C"></circle> <circle cx="17.4999" cy="88.4995" r="17.5" fill="#ED218C"></circle> <circle cx="52.5" cy="53.4995" r="17.5" fill="#ED218C"></circle> <circle cx="52.5" cy="88.4995" r="17.5" fill="#ED218C"></circle> <circle cx="87.5" cy="53.4995" r="17.5" fill="#ED218C"></circle> <circle cx="87.5" cy="88.4995" r="17.5" fill="#ED218C"></circle> <circle cx="122.5" cy="53.4995" r="17.5" fill="#ED218C"></circle> <circle cx="122.5" cy="88.4995" r="17.5" fill="#ED218C"></circle> <path d="M280 141L280 1L350 71L280 141Z" fill="#7D2670"></path> <path d="M420 0.999993L420 141L350 71L420 0.999993Z" fill="#2978A1"></path> </svg> 