<?xml version="1.0" encoding="UTF-8"?> <svg xmlns="http://www.w3.org/2000/svg" width="1680" height="141" viewBox="0 0 1680 141" fill="none"> <rect x="1680" y="1" width="140" height="1680" transform="rotate(90 1680 1)" fill="#BA3D94"></rect> <path d="M1400 0.999987L1540 141L1540 0.999993L1400 0.999987Z" fill="#ED218C"></path> <rect x="420" y="141" width="140" height="140" transform="rotate(-180 420 141)" fill="#ED218C"></rect> <path fill-rule="evenodd" clip-rule="evenodd" d="M349.041 0.999987C310.911 0.999984 280 32.3401 280 71C280 109.66 310.911 141 349.041 141C387.172 141 418.082 109.66 418.082 71C418.082 32.3401 387.172 0.99999 349.041 0.999987ZM349.041 36.0001C329.976 36.0001 314.52 51.6701 314.52 71.0001C314.52 90.3301 329.976 106 349.041 106C368.106 106 383.562 90.3301 383.562 71.0001C383.562 51.6701 368.106 36.0001 349.041 36.0001Z" fill="#7D2670"></path> <path fill-rule="evenodd" clip-rule="evenodd" d="M980 21.4165L980 40.861L1120 40.861L1120 21.4165L980 21.4165ZM980 80.7224L980 61.278L1120 61.278L1120 80.7224L980 80.7224ZM980 120.583L980 101.139L1120 101.139L1120 120.584L980 120.583Z" fill="#7D2670"></path> <rect x="700" y="140.844" width="69.9999" height="69.9999" transform="rotate(-180 700 140.844)" fill="#7D2670"></rect> <rect x="630" y="70.8442" width="69.9999" height="69.9999" transform="rotate(-180 630 70.8442)" fill="#7D2670"></rect> <path fill-rule="evenodd" clip-rule="evenodd" d="M485.681 0.999987L459.914 0.999984C444.522 12.0234 431.023 25.5221 420 40.9142L420 66.6805C434.842 38.78 457.78 15.8418 485.681 0.999987ZM519.032 0.99999C471.431 14.9062 433.907 52.43 420 100.031L420 141L427.778 141C427.778 67.9758 486.976 8.77802 560 8.77802C560 8.77802 560 8.77802 560 8.77802L560 0.999993L519.032 0.99999ZM441.389 141C441.389 141 441.389 141 441.389 141C441.389 75.4927 494.493 22.3887 560 22.3887C560 22.3887 560 22.3887 560 22.3887L560 35.9999C560 35.9999 560 35.9999 560 35.9999C502.01 35.9998 455 83.0099 455 141C455 141 455 141 455 141L441.389 141ZM560 49.6111C509.527 49.6111 468.611 90.5272 468.611 141C468.611 141 468.611 141 468.611 141L482.222 141C482.222 141 482.222 141 482.222 141C482.222 98.0445 517.044 63.2222 560 63.2222L560 49.6111ZM560 76.8329C524.562 76.8329 495.833 105.561 495.833 141C495.833 141 495.833 141 495.833 141L509.444 141C509.444 141 509.444 141 509.444 141C509.444 113.079 532.079 90.444 560 90.444L560 76.8329ZM560 104.056C560 104.056 560 104.056 560 104.056C539.596 104.056 523.055 120.596 523.055 141L536.667 141C536.667 128.113 547.113 117.667 560 117.667C560 117.667 560 117.667 560 117.667L560 104.056Z" fill="#7D2670"></path> <rect x="1260" y="71" width="98.9949" height="98.9949" transform="rotate(135 1260 71)" fill="#7D2670"></rect> <circle r="35" transform="matrix(-1 -4.37114e-08 -4.37114e-08 1 1190 71)" fill="#2978A1"></circle> <path fill-rule="evenodd" clip-rule="evenodd" d="M0 141L140 141C138.97 102.16 108.024 71 70 71C31.9759 71 1.03025 102.16 0 141Z" fill="#7D2670"></path> <path fill-rule="evenodd" clip-rule="evenodd" d="M1680 141L1680 1.00001C1641.16 2.03026 1610 32.976 1610 71C1610 109.024 1641.16 139.97 1680 141Z" fill="#7D2670"></path> <path fill-rule="evenodd" clip-rule="evenodd" d="M140 141L280 141L280 0.999993L140 0.999987L140 141ZM210 105.027L245 70.0273L210 35.0273L175 70.0273L210 105.027Z" fill="#7D2670"></path> <path fill-rule="evenodd" clip-rule="evenodd" d="M910 0.99999C871.34 0.999988 840 32.3401 840 71C840 109.66 871.34 141 910 141C948.66 141 980 109.66 980 71C980 32.3401 948.66 0.999992 910 0.99999ZM910 35.9998C890.67 35.9998 875 51.6698 875 70.9998C875 90.3297 890.67 106 910 106C929.33 106 945 90.3297 945 70.9998C945 51.6698 929.33 35.9998 910 35.9998Z" fill="#7D2670"></path> <rect x="770" y="1" width="98.995" height="98.9949" transform="rotate(45 770 1)" fill="#7D2670"></rect> <path d="M1260 141L1260 1L1330 71L1260 141Z" fill="#7D2670"></path> <path d="M1400 0.999993L1400 141L1330 71L1400 0.999993Z" fill="#7D2670"></path> </svg> 